<ttFont>
<head>
    <!-- Most of this table will be recalculated by the compiler -->
    <tableVersion value="1.0"/>
    <fontRevision value="1.002"/>
    <checkSumAdjustment value="0xaa318d5c"/>
    <magicNumber value="0x5f0f3cf5"/>
    <flags value="00000000 00001111"/>
    <unitsPerEm value="1000"/>
    <created value="Sun Jun 13 15:20:27 2021"/>
    <modified value="Mon Jun 14 15:25:30 2021"/>
    <xMin value="-160"/>
    <yMin value="-265"/>
    <xMax value="1233"/>
    <yMax value="1239"/>
    <macStyle value="00000000 00000000"/>
    <lowestRecPPEM value="6"/>
    <fontDirectionHint value="2"/>
    <indexToLocFormat value="0"/>
    <glyphDataFormat value="0"/>
  </head>
    <TTGlyph name=".notdef" xMin="50" yMin="-265" xMax="450" yMax="1000">
      <contour>
        <pt x="50" y="-265" on="1"/>
        <pt x="50" y="1000" on="1"/>
        <pt x="450" y="1000" on="1"/>
        <pt x="450" y="-265" on="1"/>
      </contour>
      <contour>
        <pt x="100" y="-215" on="1"/>
        <pt x="400" y="-215" on="1"/>
        <pt x="400" y="950" on="1"/>
        <pt x="100" y="950" on="1"/>
      </contour>
    </TTGlyph>
    <TTGlyph name="A" xMin="20" yMin="0" xMax="771" yMax="740">
      <contour>
        <pt x="20" y="0" on="1"/>
        <pt x="266" y="740" on="1"/>
        <pt x="525" y="740" on="1"/>
        <pt x="771" y="0" on="1"/>
        <pt x="571" y="0" on="1"/>
        <pt x="532" y="124" on="1"/>
        <pt x="259" y="124" on="1"/>
        <pt x="220" y="0" on="1"/>
      </contour>
      <contour>
        <pt x="310" y="288" on="1"/>
        <pt x="481" y="288" on="1"/>
        <pt x="396" y="561" on="1"/>
      </contour>
    </TTGlyph>
    <TTGlyph name="AE" xMin="20" yMin="0" xMax="1001" yMax="740">
      <contour>
        <pt x="20" y="0" on="1"/>
        <pt x="326" y="740" on="1"/>
        <pt x="996" y="740" on="1"/>
        <pt x="996" y="574" on="1"/>
        <pt x="652" y="574" on="1"/>
        <pt x="652" y="454" on="1"/>
        <pt x="951" y="454" on="1"/>
        <pt x="951" y="296" on="1"/>
        <pt x="652" y="296" on="1"/>
        <pt x="652" y="166" on="1"/>
        <pt x="1001" y="166" on="1"/>
        <pt x="1001" y="0" on="1"/>
        <pt x="460" y="0" on="1"/>
        <pt x="460" y="124" on="1"/>
        <pt x="271" y="124" on="1"/>
        <pt x="220" y="0" on="1"/>
      </contour>
      <contour>
        <pt x="338" y="285" on="1"/>
        <pt x="460" y="285" on="1"/>
        <pt x="460" y="582" on="1"/>
      </contour>
    </TTGlyph>
    <TTGlyph name="Aacute" xMin="20" yMin="0" xMax="771" yMax="989">
      <contour>
        <pt x="464" y="809" on="1"/>
        <pt x="331" y="810" on="1"/>
        <pt x="408" y="989" on="1"/>
        <pt x="578" y="989" on="1"/>
      </contour>
      <contour>
        <pt x="20" y="0" on="1"/>
        <pt x="266" y="740" on="1"/>
        <pt x="525" y="740" on="1"/>
        <pt x="771" y="0" on="1"/>
        <pt x="571" y="0" on="1"/>
        <pt x="532" y="124" on="1"/>
        <pt x="259" y="124" on="1"/>
        <pt x="220" y="0" on="1"/>
      </contour>
      <contour>
        <pt x="310" y="288" on="1"/>
        <pt x="481" y="288" on="1"/>
        <pt x="396" y="561" on="1"/>
      </contour>
    </TTGlyph>
    <TTGlyph name="Abreve" xMin="20" yMin="0" xMax="771" yMax="968">
      <contour>
        <pt x="396" y="802" on="1"/>
        <pt x="336" y="802" on="0"/>
        <pt x="261" y="836" on="0"/>
        <pt x="221" y="885" on="0"/>
        <pt x="205" y="934" on="0"/>
        <pt x="202" y="968" on="0"/>
        <pt x="202" y="968" on="1"/>
        <pt x="321" y="968" on="1"/>
        <pt x="321" y="968" on="0"/>
        <pt x="324" y="949" on="0"/>
        <pt x="338" y="923" on="0"/>
        <pt x="368" y="904" on="0"/>
        <pt x="396" y="904" on="1"/>
        <pt x="424" y="904" on="0"/>
        <pt x="455" y="923" on="0"/>
        <pt x="468" y="949" on="0"/>
        <pt x="471" y="968" on="0"/>
        <pt x="471" y="968" on="1"/>
        <pt x="590" y="968" on="1"/>
        <pt x="590" y="968" on="0"/>
        <pt x="587" y="934" on="0"/>
        <pt x="571" y="885" on="0"/>
        <pt x="531" y="836" on="0"/>
        <pt x="456" y="802" on="0"/>
      </contour>
      <contour>
        <pt x="20" y="0" on="1"/>
        <pt x="266" y="740" on="1"/>
        <pt x="525" y="740" on="1"/>
        <pt x="771" y="0" on="1"/>
        <pt x="571" y="0" on="1"/>
        <pt x="532" y="124" on="1"/>
        <pt x="259" y="124" on="1"/>
        <pt x="220" y="0" on="1"/>
      </contour>
      <contour>
        <pt x="310" y="288" on="1"/>
        <pt x="481" y="288" on="1"/>
        <pt x="396" y="561" on="1"/>
      </contour>
    </TTGlyph>
    <TTGlyph name="Acircumflex" xMin="20" yMin="0" xMax="771" yMax="958">
      <contour>
        <pt x="188" y="799" on="1"/>
        <pt x="323" y="958" on="1"/>
        <pt x="470" y="958" on="1"/>
        <pt x="605" y="799" on="1"/>
        <pt x="464" y="799" on="1"/>
        <pt x="397" y="880" on="1"/>
        <pt x="329" y="799" on="1"/>
      </contour>
      <contour>
        <pt x="20" y="0" on="1"/>
        <pt x="266" y="740" on="1"/>
        <pt x="525" y="740" on="1"/>
        <pt x="771" y="0" on="1"/>
        <pt x="571" y="0" on="1"/>
        <pt x="532" y="124" on="1"/>
        <pt x="259" y="124" on="1"/>
        <pt x="220" y="0" on="1"/>
      </contour>
      <contour>
        <pt x="310" y="288" on="1"/>
        <pt x="481" y="288" on="1"/>
        <pt x="396" y="561" on="1"/>
      </contour>
    </TTGlyph>
    <TTGlyph name="Adieresis" xMin="20" yMin="0" xMax="771" yMax="983">
      <contour>
        <pt x="521" y="788" on="1"/>
        <pt x="476" y="788" on="0"/>
        <pt x="419" y="845" on="0"/>
        <pt x="419" y="885" on="1"/>
        <pt x="419" y="926" on="0"/>
        <pt x="476" y="983" on="0"/>
        <pt x="521" y="983" on="1"/>
        <pt x="565" y="983" on="0"/>
        <pt x="623" y="926" on="0"/>
        <pt x="623" y="885" on="1"/>
        <pt x="623" y="845" on="0"/>
        <pt x="565" y="788" on="0"/>
      </contour>
      <contour>
        <pt x="270" y="788" on="1"/>
        <pt x="225" y="788" on="0"/>
        <pt x="168" y="845" on="0"/>
        <pt x="168" y="885" on="1"/>
        <pt x="168" y="926" on="0"/>
        <pt x="225" y="983" on="0"/>
        <pt x="270" y="983" on="1"/>
        <pt x="314" y="983" on="0"/>
        <pt x="372" y="926" on="0"/>
        <pt x="372" y="885" on="1"/>
        <pt x="372" y="845" on="0"/>
        <pt x="314" y="788" on="0"/>
      </contour>
      <contour>
        <pt x="20" y="0" on="1"/>
        <pt x="266" y="740" on="1"/>
        <pt x="525" y="740" on="1"/>
        <pt x="771" y="0" on="1"/>
        <pt x="571" y="0" on="1"/>
        <pt x="532" y="124" on="1"/>
        <pt x="259" y="124" on="1"/>
        <pt x="220" y="0" on="1"/>
      </contour>
      <contour>
        <pt x="310" y="288" on="1"/>
        <pt x="481" y="288" on="1"/>
        <pt x="396" y="561" on="1"/>
      </contour>
    </TTGlyph>
    <TTGlyph name="Agrave" xMin="20" yMin="0" xMax="771" yMax="989">
      <contour>
        <pt x="331" y="809" on="1"/>
        <pt x="217" y="989" on="1"/>
        <pt x="387" y="989" on="1"/>
        <pt x="464" y="810" on="1"/>
      </contour>
      <contour>
        <pt x="20" y="0" on="1"/>
        <pt x="266" y="740" on="1"/>
        <pt x="525" y="740" on="1"/>
        <pt x="771" y="0" on="1"/>
        <pt x="571" y="0" on="1"/>
        <pt x="532" y="124" on="1"/>
        <pt x="259" y="124" on="1"/>
        <pt x="220" y="0" on="1"/>
      </contour>
      <contour>
        <pt x="310" y="288" on="1"/>
        <pt x="481" y="288" on="1"/>
        <pt x="396" y="561" on="1"/>
      </contour>
    </TTGlyph>
    <TTGlyph name="Amacron" xMin="20" yMin="0" xMax="771" yMax="920">
      <contour>
        <pt x="226" y="818" on="1"/>
        <pt x="226" y="920" on="1"/>
        <pt x="566" y="920" on="1"/>
        <pt x="566" y="818" on="1"/>
      </contour>
      <contour>
        <pt x="20" y="0" on="1"/>
        <pt x="266" y="740" on="1"/>
        <pt x="525" y="740" on="1"/>
        <pt x="771" y="0" on="1"/>
        <pt x="571" y="0" on="1"/>
        <pt x="532" y="124" on="1"/>
        <pt x="259" y="124" on="1"/>
        <pt x="220" y="0" on="1"/>
      </contour>
      <contour>
        <pt x="310" y="288" on="1"/>
        <pt x="481" y="288" on="1"/>
        <pt x="396" y="561" on="1"/>
      </contour>
    </TTGlyph>
    <TTGlyph name="Aogonek" xMin="20" yMin="-194" xMax="806" yMax="740">
      <contour>
        <pt x="20" y="0" on="1"/>
        <pt x="266" y="740" on="1"/>
        <pt x="525" y="740" on="1"/>
        <pt x="771" y="0" on="1"/>
        <pt x="771" y="0" on="0"/>
        <pt x="747" y="-13" on="0"/>
        <pt x="722" y="-37" on="0"/>
        <pt x="722" y="-55" on="1"/>
        <pt x="722" y="-68" on="0"/>
        <pt x="746" y="-90" on="0"/>
        <pt x="774" y="-90" on="1"/>
        <pt x="786" y="-90" on="0"/>
        <pt x="806" y="-87" on="0"/>
        <pt x="806" y="-87" on="1"/>
        <pt x="806" y="-189" on="1"/>
        <pt x="806" y="-189" on="0"/>
        <pt x="771" y="-194" on="0"/>
        <pt x="745" y="-194" on="1"/>
        <pt x="663" y="-194" on="0"/>
        <pt x="591" y="-130" on="0"/>
        <pt x="591" y="-87" on="1"/>
        <pt x="591" y="-56" on="0"/>
        <pt x="621" y="-13" on="0"/>
        <pt x="640" y="0" on="1"/>
        <pt x="571" y="0" on="1"/>
        <pt x="532" y="124" on="1"/>
        <pt x="259" y="124" on="1"/>
        <pt x="220" y="0" on="1"/>
      </contour>
      <contour>
        <pt x="310" y="288" on="1"/>
        <pt x="481" y="288" on="1"/>
        <pt x="396" y="561" on="1"/>
      </contour>
    </TTGlyph>
    <TTGlyph name="Aring" xMin="20" yMin="0" xMax="771" yMax="1069">
      <contour>
        <pt x="396" y="788" on="1"/>
        <pt x="357" y="788" on="0"/>
        <pt x="293" y="826" on="0"/>
        <pt x="255" y="890" on="0"/>
        <pt x="255" y="929" on="1"/>
        <pt x="255" y="968" on="0"/>
        <pt x="293" y="1031" on="0"/>
        <pt x="357" y="1069" on="0"/>
        <pt x="396" y="1069" on="1"/>
        <pt x="435" y="1069" on="0"/>
        <pt x="499" y="1031" on="0"/>
        <pt x="537" y="968" on="0"/>
        <pt x="537" y="929" on="1"/>
        <pt x="537" y="890" on="0"/>
        <pt x="499" y="826" on="0"/>
        <pt x="435" y="788" on="0"/>
      </contour>
      <contour>
        <pt x="396" y="878" on="1"/>
        <pt x="417" y="878" on="0"/>
        <pt x="447" y="907" on="0"/>
        <pt x="447" y="929" on="1"/>
        <pt x="447" y="950" on="0"/>
        <pt x="417" y="979" on="0"/>
        <pt x="396" y="979" on="1"/>
        <pt x="375" y="979" on="0"/>
        <pt x="345" y="950" on="0"/>
        <pt x="345" y="929" on="1"/>
        <pt x="345" y="907" on="0"/>
        <pt x="375" y="878" on="0"/>
      </contour>
      <contour>
        <pt x="20" y="0" on="1"/>
        <pt x="266" y="740" on="1"/>
        <pt x="525" y="740" on="1"/>
        <pt x="771" y="0" on="1"/>
        <pt x="571" y="0" on="1"/>
        <pt x="532" y="124" on="1"/>
        <pt x="259" y="124" on="1"/>
        <pt x="220" y="0" on="1"/>
      </contour>
      <contour>
        <pt x="310" y="288" on="1"/>
        <pt x="481" y="288" on="1"/>
        <pt x="396" y="561" on="1"/>
      </contour>
    </TTGlyph>
    <TTGlyph name="Atilde" xMin="20" yMin="0" xMax="771" yMax="987">
      <contour>
        <pt x="474" y="822" on="1"/>
        <pt x="447" y="822" on="0"/>
        <pt x="407" y="840" on="0"/>
        <pt x="376" y="863" on="0"/>
        <pt x="350" y="881" on="0"/>
        <pt x="336" y="881" on="1"/>
        <pt x="321" y="881" on="0"/>
        <pt x="310" y="854" on="0"/>
        <pt x="310" y="828" on="1"/>
        <pt x="217" y="828" on="1"/>
        <pt x="217" y="863" on="0"/>
        <pt x="233" y="936" on="0"/>
        <pt x="280" y="987" on="0"/>
        <pt x="325" y="987" on="1"/>
        <pt x="362" y="987" on="0"/>
        <pt x="411" y="958" on="0"/>
        <pt x="447" y="928" on="0"/>
        <pt x="464" y="928" on="1"/>
        <pt x="478" y="928" on="0"/>
        <pt x="489" y="956" on="0"/>
        <pt x="489" y="981" on="1"/>
        <pt x="582" y="981" on="1"/>
        <pt x="582" y="947" on="0"/>
        <pt x="566" y="873" on="0"/>
        <pt x="520" y="822" on="0"/>
      </contour>
      <contour>
        <pt x="20" y="0" on="1"/>
        <pt x="266" y="740" on="1"/>
        <pt x="525" y="740" on="1"/>
        <pt x="771" y="0" on="1"/>
        <pt x="571" y="0" on="1"/>
        <pt x="532" y="124" on="1"/>
        <pt x="259" y="124" on="1"/>
        <pt x="220" y="0" on="1"/>
      </contour>
      <contour>
        <pt x="310" y="288" on="1"/>
        <pt x="481" y="288" on="1"/>
        <pt x="396" y="561" on="1"/>
      </contour>
    </TTGlyph>
    <TTGlyph name="B" xMin="60" yMin="0" xMax="693" yMax="740">
      <contour>
        <pt x="60" y="0" on="1"/>
        <pt x="60" y="740" on="1"/>
        <pt x="440" y="740" on="1"/>
        <pt x="513" y="740" on="0"/>
        <pt x="611" y="692" on="0"/>
        <pt x="661" y="610" on="0"/>
        <pt x="661" y="559" on="1"/>
        <pt x="661" y="492" on="0"/>
        <pt x="591" y="415" on="0"/>
        <pt x="546" y="402" on="1"/>
        <pt x="546" y="393" on="1"/>
        <pt x="575" y="387" on="0"/>
        <pt x="644" y="347" on="0"/>
        <pt x="693" y="272" on="0"/>
        <pt x="693" y="212" on="1"/>
        <pt x="693" y="159" on="0"/>
        <pt x="643" y="62" on="0"/>
        <pt x="536" y="0" on="0"/>
        <pt x="448" y="0" on="1"/>
      </contour>
      <contour>
        <pt x="400" y="581" on="1"/>
        <pt x="252" y="581" on="1"/>
        <pt x="252" y="452" on="1"/>
        <pt x="400" y="452" on="1"/>
        <pt x="438" y="452" on="0"/>
        <pt x="476" y="487" on="0"/>
        <pt x="476" y="517" on="1"/>
        <pt x="476" y="546" on="0"/>
        <pt x="438" y="581" on="0"/>
      </contour>
      <contour>
        <pt x="414" y="309" on="1"/>
        <pt x="252" y="309" on="1"/>
        <pt x="252" y="159" on="1"/>
        <pt x="414" y="159" on="1"/>
        <pt x="458" y="159" on="0"/>
        <pt x="500" y="201" on="0"/>
        <pt x="500" y="235" on="1"/>
        <pt x="500" y="269" on="0"/>
        <pt x="458" y="309" on="0"/>
      </contour>
    </TTGlyph>
    <TTGlyph name="C" xMin="30" yMin="-10" xMax="753" yMax="750">
      <contour>
        <pt x="408" y="-10" on="1"/>
        <pt x="314" y="-10" on="0"/>
        <pt x="172" y="55" on="0"/>
        <pt x="78" y="164" on="0"/>
        <pt x="30" y="300" on="0"/>
        <pt x="30" y="371" on="1"/>
        <pt x="30" y="442" on="0"/>
        <pt x="78" y="577" on="0"/>
        <pt x="172" y="685" on="0"/>
        <pt x="314" y="750" on="0"/>
        <pt x="408" y="750" on="1"/>
        <pt x="488" y="750" on="0"/>
        <pt x="602" y="710" on="0"/>
        <pt x="678" y="647" on="0"/>
        <pt x="723" y="576" on="0"/>
        <pt x="746" y="513" on="0"/>
        <pt x="753" y="473" on="0"/>
        <pt x="753" y="473" on="1"/>
        <pt x="563" y="473" on="1"/>
        <pt x="563" y="473" on="0"/>
        <pt x="553" y="505" on="0"/>
        <pt x="523" y="548" on="0"/>
        <pt x="461" y="580" on="0"/>
        <pt x="410" y="580" on="1"/>
        <pt x="350" y="580" on="0"/>
        <pt x="269" y="519" on="0"/>
        <pt x="229" y="423" on="0"/>
        <pt x="229" y="371" on="1"/>
        <pt x="229" y="319" on="0"/>
        <pt x="269" y="223" on="0"/>
        <pt x="350" y="161" on="0"/>
        <pt x="410" y="161" on="1"/>
        <pt x="461" y="161" on="0"/>
        <pt x="523" y="193" on="0"/>
        <pt x="553" y="235" on="0"/>
        <pt x="563" y="267" on="0"/>
        <pt x="563" y="267" on="1"/>
        <pt x="753" y="267" on="1"/>
        <pt x="753" y="267" on="0"/>
        <pt x="746" y="227" on="0"/>
        <pt x="723" y="164" on="0"/>
        <pt x="678" y="93" on="0"/>
        <pt x="602" y="30" on="0"/>
        <pt x="488" y="-10" on="0"/>
      </contour>
    </TTGlyph>
    <TTGlyph name="Cacute" xMin="30" yMin="-10" xMax="753" yMax="987">
      <contour>
        <pt x="476" y="807" on="1"/>
        <pt x="343" y="808" on="1"/>
        <pt x="420" y="987" on="1"/>
        <pt x="590" y="987" on="1"/>
      </contour>
      <contour>
        <pt x="408" y="-10" on="1"/>
        <pt x="314" y="-10" on="0"/>
        <pt x="172" y="55" on="0"/>
        <pt x="78" y="164" on="0"/>
        <pt x="30" y="300" on="0"/>
        <pt x="30" y="371" on="1"/>
        <pt x="30" y="442" on="0"/>
        <pt x="78" y="577" on="0"/>
        <pt x="172" y="685" on="0"/>
        <pt x="314" y="750" on="0"/>
        <pt x="408" y="750" on="1"/>
        <pt x="488" y="750" on="0"/>
        <pt x="602" y="710" on="0"/>
        <pt x="678" y="647" on="0"/>
        <pt x="723" y="576" on="0"/>
        <pt x="746" y="513" on="0"/>
        <pt x="753" y="473" on="0"/>
        <pt x="753" y="473" on="1"/>
        <pt x="563" y="473" on="1"/>
        <pt x="563" y="473" on="0"/>
        <pt x="553" y="505" on="0"/>
        <pt x="523" y="548" on="0"/>
        <pt x="461" y="580" on="0"/>
        <pt x="410" y="580" on="1"/>
        <pt x="350" y="580" on="0"/>
        <pt x="269" y="519" on="0"/>
        <pt x="229" y="423" on="0"/>
        <pt x="229" y="371" on="1"/>
        <pt x="229" y="319" on="0"/>
        <pt x="269" y="223" on="0"/>
        <pt x="350" y="161" on="0"/>
        <pt x="410" y="161" on="1"/>
        <pt x="461" y="161" on="0"/>
        <pt x="523" y="193" on="0"/>
        <pt x="553" y="235" on="0"/>
        <pt x="563" y="267" on="0"/>
        <pt x="563" y="267" on="1"/>
        <pt x="753" y="267" on="1"/>
        <pt x="753" y="267" on="0"/>
        <pt x="746" y="227" on="0"/>
        <pt x="723" y="164" on="0"/>
        <pt x="678" y="93" on="0"/>
        <pt x="602" y="30" on="0"/>
        <pt x="488" y="-10" on="0"/>
      </contour>
    </TTGlyph>
    <TTGlyph name="Ccaron" xMin="30" yMin="-10" xMax="753" yMax="987">
      <contour>
        <pt x="334" y="798" on="1"/>
        <pt x="199" y="987" on="1"/>
        <pt x="340" y="987" on="1"/>
        <pt x="408" y="885" on="1"/>
        <pt x="475" y="987" on="1"/>
        <pt x="616" y="987" on="1"/>
        <pt x="481" y="798" on="1"/>
      </contour>
      <contour>
        <pt x="408" y="-10" on="1"/>
        <pt x="314" y="-10" on="0"/>
        <pt x="172" y="55" on="0"/>
        <pt x="78" y="164" on="0"/>
        <pt x="30" y="300" on="0"/>
        <pt x="30" y="371" on="1"/>
        <pt x="30" y="442" on="0"/>
        <pt x="78" y="577" on="0"/>
        <pt x="172" y="685" on="0"/>
        <pt x="314" y="750" on="0"/>
        <pt x="408" y="750" on="1"/>
        <pt x="488" y="750" on="0"/>
        <pt x="602" y="710" on="0"/>
        <pt x="678" y="647" on="0"/>
        <pt x="723" y="576" on="0"/>
        <pt x="746" y="513" on="0"/>
        <pt x="753" y="473" on="0"/>
        <pt x="753" y="473" on="1"/>
        <pt x="563" y="473" on="1"/>
        <pt x="563" y="473" on="0"/>
        <pt x="553" y="505" on="0"/>
        <pt x="523" y="548" on="0"/>
        <pt x="461" y="580" on="0"/>
        <pt x="410" y="580" on="1"/>
        <pt x="350" y="580" on="0"/>
        <pt x="269" y="519" on="0"/>
        <pt x="229" y="423" on="0"/>
        <pt x="229" y="371" on="1"/>
        <pt x="229" y="319" on="0"/>
        <pt x="269" y="223" on="0"/>
        <pt x="350" y="161" on="0"/>
        <pt x="410" y="161" on="1"/>
        <pt x="461" y="161" on="0"/>
        <pt x="523" y="193" on="0"/>
        <pt x="553" y="235" on="0"/>
        <pt x="563" y="267" on="0"/>
        <pt x="563" y="267" on="1"/>
        <pt x="753" y="267" on="1"/>
        <pt x="753" y="267" on="0"/>
        <pt x="746" y="227" on="0"/>
        <pt x="723" y="164" on="0"/>
        <pt x="678" y="93" on="0"/>
        <pt x="602" y="30" on="0"/>
        <pt x="488" y="-10" on="0"/>
      </contour>
    </TTGlyph>
    <TTGlyph name="Ccedilla" xMin="30" yMin="-263" xMax="753" yMax="750">
      <contour>
        <pt x="383" y="-263" on="1"/>
        <pt x="363" y="-263" on="0"/>
        <pt x="321" y="-259" on="0"/>
        <pt x="294" y="-255" on="0"/>
        <pt x="294" y="-255" on="1"/>
        <pt x="294" y="-163" on="1"/>
        <pt x="294" y="-163" on="0"/>
        <pt x="320" y="-166" on="0"/>
        <pt x="357" y="-169" on="0"/>
        <pt x="373" y="-169" on="1"/>
        <pt x="417" y="-169" on="0"/>
        <pt x="445" y="-146" on="0"/>
        <pt x="445" y="-134" on="1"/>
        <pt x="445" y="-122" on="0"/>
        <pt x="426" y="-108" on="0"/>
        <pt x="410" y="-108" on="1"/>
        <pt x="389" y="-108" on="0"/>
        <pt x="356" y="-127" on="0"/>
        <pt x="356" y="-127" on="1"/>
        <pt x="292" y="-62" on="1"/>
        <pt x="334" y="-4" on="1"/>
        <pt x="259" y="8" on="0"/>
        <pt x="144" y="80" on="0"/>
        <pt x="68" y="184" on="0"/>
        <pt x="30" y="307" on="0"/>
        <pt x="30" y="371" on="1"/>
        <pt x="30" y="442" on="0"/>
        <pt x="78" y="577" on="0"/>
        <pt x="172" y="685" on="0"/>
        <pt x="314" y="750" on="0"/>
        <pt x="408" y="750" on="1"/>
        <pt x="488" y="750" on="0"/>
        <pt x="602" y="710" on="0"/>
        <pt x="678" y="647" on="0"/>
        <pt x="723" y="576" on="0"/>
        <pt x="746" y="513" on="0"/>
        <pt x="753" y="473" on="0"/>
        <pt x="753" y="473" on="1"/>
        <pt x="563" y="473" on="1"/>
        <pt x="563" y="473" on="0"/>
        <pt x="553" y="505" on="0"/>
        <pt x="523" y="548" on="0"/>
        <pt x="461" y="580" on="0"/>
        <pt x="410" y="580" on="1"/>
        <pt x="350" y="580" on="0"/>
        <pt x="269" y="519" on="0"/>
        <pt x="229" y="423" on="0"/>
        <pt x="229" y="371" on="1"/>
        <pt x="229" y="319" on="0"/>
        <pt x="269" y="223" on="0"/>
        <pt x="350" y="161" on="0"/>
        <pt x="410" y="161" on="1"/>
        <pt x="461" y="161" on="0"/>
        <pt x="523" y="193" on="0"/>
        <pt x="553" y="235" on="0"/>
        <pt x="563" y="267" on="0"/>
        <pt x="563" y="267" on="1"/>
        <pt x="753" y="267" on="1"/>
        <pt x="753" y="267" on="0"/>
        <pt x="747" y="230" on="0"/>
        <pt x="726" y="171" on="0"/>
        <pt x="686" y="103" on="0"/>
        <pt x="618" y="40" on="0"/>
        <pt x="516" y="-4" on="0"/>
        <pt x="445" y="-9" on="1"/>
        <pt x="430" y="-29" on="1"/>
        <pt x="437" y="-28" on="0"/>
        <pt x="446" y="-28" on="1"/>
        <pt x="496" y="-28" on="0"/>
        <pt x="556" y="-90" on="0"/>
        <pt x="556" y="-136" on="1"/>
        <pt x="556" y="-186" on="0"/>
        <pt x="472" y="-263" on="0"/>
      </contour>
    </TTGlyph>
    <TTGlyph name="Cdotaccent" xMin="30" yMin="-10" xMax="753" yMax="998">
      <contour>
        <pt x="408" y="791" on="1"/>
        <pt x="361" y="791" on="0"/>
        <pt x="300" y="852" on="0"/>
        <pt x="300" y="894" on="1"/>
        <pt x="300" y="938" on="0"/>
        <pt x="361" y="998" on="0"/>
        <pt x="408" y="998" on="1"/>
        <pt x="455" y="998" on="0"/>
        <pt x="517" y="938" on="0"/>
        <pt x="517" y="894" on="1"/>
        <pt x="517" y="852" on="0"/>
        <pt x="455" y="791" on="0"/>
      </contour>
      <contour>
        <pt x="408" y="-10" on="1"/>
        <pt x="314" y="-10" on="0"/>
        <pt x="172" y="55" on="0"/>
        <pt x="78" y="164" on="0"/>
        <pt x="30" y="300" on="0"/>
        <pt x="30" y="371" on="1"/>
        <pt x="30" y="442" on="0"/>
        <pt x="78" y="577" on="0"/>
        <pt x="172" y="685" on="0"/>
        <pt x="314" y="750" on="0"/>
        <pt x="408" y="750" on="1"/>
        <pt x="488" y="750" on="0"/>
        <pt x="602" y="710" on="0"/>
        <pt x="678" y="647" on="0"/>
        <pt x="723" y="576" on="0"/>
        <pt x="746" y="513" on="0"/>
        <pt x="753" y="473" on="0"/>
        <pt x="753" y="473" on="1"/>
        <pt x="563" y="473" on="1"/>
        <pt x="563" y="473" on="0"/>
        <pt x="553" y="505" on="0"/>
        <pt x="523" y="548" on="0"/>
        <pt x="461" y="580" on="0"/>
        <pt x="410" y="580" on="1"/>
        <pt x="350" y="580" on="0"/>
        <pt x="269" y="519" on="0"/>
        <pt x="229" y="423" on="0"/>
        <pt x="229" y="371" on="1"/>
        <pt x="229" y="319" on="0"/>
        <pt x="269" y="223" on="0"/>
        <pt x="350" y="161" on="0"/>
        <pt x="410" y="161" on="1"/>
        <pt x="461" y="161" on="0"/>
        <pt x="523" y="193" on="0"/>
        <pt x="553" y="235" on="0"/>
        <pt x="563" y="267" on="0"/>
        <pt x="563" y="267" on="1"/>
        <pt x="753" y="267" on="1"/>
        <pt x="753" y="267" on="0"/>
        <pt x="746" y="227" on="0"/>
        <pt x="723" y="164" on="0"/>
        <pt x="678" y="93" on="0"/>
        <pt x="602" y="30" on="0"/>
        <pt x="488" y="-10" on="0"/>
      </contour>
    </TTGlyph>
    <TTGlyph name="D" xMin="60" yMin="0" xMax="736" yMax="740">
      <contour>
        <pt x="60" y="0" on="1"/>
        <pt x="60" y="740" on="1"/>
        <pt x="366" y="740" on="1"/>
        <pt x="458" y="740" on="0"/>
        <pt x="597" y="677" on="0"/>
        <pt x="690" y="571" on="0"/>
        <pt x="736" y="439" on="0"/>
        <pt x="736" y="370" on="1"/>
        <pt x="736" y="301" on="0"/>
        <pt x="690" y="169" on="0"/>
        <pt x="597" y="63" on="0"/>
        <pt x="458" y="0" on="0"/>
        <pt x="366" y="0" on="1"/>
      </contour>
      <contour>
        <pt x="357" y="572" on="1"/>
        <pt x="252" y="572" on="1"/>
        <pt x="252" y="171" on="1"/>
        <pt x="357" y="171" on="1"/>
        <pt x="422" y="171" on="0"/>
        <pt x="504" y="230" on="0"/>
        <pt x="543" y="322" on="0"/>
        <pt x="543" y="372" on="1"/>
        <pt x="543" y="422" on="0"/>
        <pt x="504" y="513" on="0"/>
        <pt x="422" y="572" on="0"/>
      </contour>
    </TTGlyph>
    <TTGlyph name="Dcaron" xMin="60" yMin="0" xMax="736" yMax="989">
      <contour>
        <pt x="292" y="800" on="1"/>
        <pt x="157" y="989" on="1"/>
        <pt x="298" y="989" on="1"/>
        <pt x="366" y="887" on="1"/>
        <pt x="433" y="989" on="1"/>
        <pt x="574" y="989" on="1"/>
        <pt x="439" y="800" on="1"/>
      </contour>
      <contour>
        <pt x="60" y="0" on="1"/>
        <pt x="60" y="740" on="1"/>
        <pt x="366" y="740" on="1"/>
        <pt x="458" y="740" on="0"/>
        <pt x="597" y="677" on="0"/>
        <pt x="690" y="571" on="0"/>
        <pt x="736" y="439" on="0"/>
        <pt x="736" y="370" on="1"/>
        <pt x="736" y="301" on="0"/>
        <pt x="690" y="169" on="0"/>
        <pt x="597" y="63" on="0"/>
        <pt x="458" y="0" on="0"/>
        <pt x="366" y="0" on="1"/>
      </contour>
      <contour>
        <pt x="357" y="572" on="1"/>
        <pt x="252" y="572" on="1"/>
        <pt x="252" y="171" on="1"/>
        <pt x="357" y="171" on="1"/>
        <pt x="422" y="171" on="0"/>
        <pt x="504" y="230" on="0"/>
        <pt x="543" y="322" on="0"/>
        <pt x="543" y="372" on="1"/>
        <pt x="543" y="422" on="0"/>
        <pt x="504" y="513" on="0"/>
        <pt x="422" y="572" on="0"/>
      </contour>
    </TTGlyph>
    <TTGlyph name="Dcroat" xMin="5" yMin="0" xMax="752" yMax="740">
      <contour>
        <pt x="76" y="0" on="1"/>
        <pt x="76" y="296" on="1"/>
        <pt x="5" y="296" on="1"/>
        <pt x="5" y="444" on="1"/>
        <pt x="76" y="444" on="1"/>
        <pt x="76" y="740" on="1"/>
        <pt x="382" y="740" on="1"/>
        <pt x="474" y="740" on="0"/>
        <pt x="613" y="677" on="0"/>
        <pt x="706" y="571" on="0"/>
        <pt x="752" y="439" on="0"/>
        <pt x="752" y="370" on="1"/>
        <pt x="752" y="301" on="0"/>
        <pt x="706" y="169" on="0"/>
        <pt x="613" y="63" on="0"/>
        <pt x="474" y="0" on="0"/>
        <pt x="382" y="0" on="1"/>
      </contour>
      <contour>
        <pt x="395" y="296" on="1"/>
        <pt x="268" y="296" on="1"/>
        <pt x="268" y="171" on="1"/>
        <pt x="373" y="171" on="1"/>
        <pt x="438" y="171" on="0"/>
        <pt x="520" y="230" on="0"/>
        <pt x="559" y="322" on="0"/>
        <pt x="559" y="372" on="1"/>
        <pt x="559" y="422" on="0"/>
        <pt x="520" y="513" on="0"/>
        <pt x="438" y="572" on="0"/>
        <pt x="373" y="572" on="1"/>
        <pt x="268" y="572" on="1"/>
        <pt x="268" y="444" on="1"/>
        <pt x="395" y="444" on="1"/>
      </contour>
    </TTGlyph>
    <TTGlyph name="E" xMin="60" yMin="0" xMax="601" yMax="740">
      <contour>
        <pt x="60" y="0" on="1"/>
        <pt x="60" y="740" on="1"/>
        <pt x="596" y="740" on="1"/>
        <pt x="596" y="574" on="1"/>
        <pt x="252" y="574" on="1"/>
        <pt x="252" y="454" on="1"/>
        <pt x="551" y="454" on="1"/>
        <pt x="551" y="296" on="1"/>
        <pt x="252" y="296" on="1"/>
        <pt x="252" y="166" on="1"/>
        <pt x="601" y="166" on="1"/>
        <pt x="601" y="0" on="1"/>
      </contour>
    </TTGlyph>
    <TTGlyph name="Eacute" xMin="60" yMin="0" xMax="601" yMax="989">
      <contour>
        <pt x="396" y="809" on="1"/>
        <pt x="263" y="810" on="1"/>
        <pt x="340" y="989" on="1"/>
        <pt x="510" y="989" on="1"/>
      </contour>
      <contour>
        <pt x="60" y="0" on="1"/>
        <pt x="60" y="740" on="1"/>
        <pt x="596" y="740" on="1"/>
        <pt x="596" y="574" on="1"/>
        <pt x="252" y="574" on="1"/>
        <pt x="252" y="454" on="1"/>
        <pt x="551" y="454" on="1"/>
        <pt x="551" y="296" on="1"/>
        <pt x="252" y="296" on="1"/>
        <pt x="252" y="166" on="1"/>
        <pt x="601" y="166" on="1"/>
        <pt x="601" y="0" on="1"/>
      </contour>
    </TTGlyph>
    <TTGlyph name="Ecaron" xMin="60" yMin="0" xMax="601" yMax="989">
      <contour>
        <pt x="254" y="800" on="1"/>
        <pt x="119" y="989" on="1"/>
        <pt x="260" y="989" on="1"/>
        <pt x="328" y="887" on="1"/>
        <pt x="395" y="989" on="1"/>
        <pt x="536" y="989" on="1"/>
        <pt x="401" y="800" on="1"/>
      </contour>
      <contour>
        <pt x="60" y="0" on="1"/>
        <pt x="60" y="740" on="1"/>
        <pt x="596" y="740" on="1"/>
        <pt x="596" y="574" on="1"/>
        <pt x="252" y="574" on="1"/>
        <pt x="252" y="454" on="1"/>
        <pt x="551" y="454" on="1"/>
        <pt x="551" y="296" on="1"/>
        <pt x="252" y="296" on="1"/>
        <pt x="252" y="166" on="1"/>
        <pt x="601" y="166" on="1"/>
        <pt x="601" y="0" on="1"/>
      </contour>
    </TTGlyph>
    <TTGlyph name="Ecircumflex" xMin="60" yMin="0" xMax="601" yMax="958">
      <contour>
        <pt x="120" y="799" on="1"/>
        <pt x="255" y="958" on="1"/>
        <pt x="402" y="958" on="1"/>
        <pt x="537" y="799" on="1"/>
        <pt x="396" y="799" on="1"/>
        <pt x="329" y="880" on="1"/>
        <pt x="261" y="799" on="1"/>
      </contour>
      <contour>
        <pt x="60" y="0" on="1"/>
        <pt x="60" y="740" on="1"/>
        <pt x="596" y="740" on="1"/>
        <pt x="596" y="574" on="1"/>
        <pt x="252" y="574" on="1"/>
        <pt x="252" y="454" on="1"/>
        <pt x="551" y="454" on="1"/>
        <pt x="551" y="296" on="1"/>
        <pt x="252" y="296" on="1"/>
        <pt x="252" y="166" on="1"/>
        <pt x="601" y="166" on="1"/>
        <pt x="601" y="0" on="1"/>
      </contour>
    </TTGlyph>
    <TTGlyph name="Edieresis" xMin="60" yMin="0" xMax="601" yMax="983">
      <contour>
        <pt x="453" y="788" on="1"/>
        <pt x="408" y="788" on="0"/>
        <pt x="351" y="845" on="0"/>
        <pt x="351" y="885" on="1"/>
        <pt x="351" y="926" on="0"/>
        <pt x="408" y="983" on="0"/>
        <pt x="453" y="983" on="1"/>
        <pt x="497" y="983" on="0"/>
        <pt x="555" y="926" on="0"/>
        <pt x="555" y="885" on="1"/>
        <pt x="555" y="845" on="0"/>
        <pt x="497" y="788" on="0"/>
      </contour>
      <contour>
        <pt x="202" y="788" on="1"/>
        <pt x="157" y="788" on="0"/>
        <pt x="100" y="845" on="0"/>
        <pt x="100" y="885" on="1"/>
        <pt x="100" y="926" on="0"/>
        <pt x="157" y="983" on="0"/>
        <pt x="202" y="983" on="1"/>
        <pt x="246" y="983" on="0"/>
        <pt x="304" y="926" on="0"/>
        <pt x="304" y="885" on="1"/>
        <pt x="304" y="845" on="0"/>
        <pt x="246" y="788" on="0"/>
      </contour>
      <contour>
        <pt x="60" y="0" on="1"/>
        <pt x="60" y="740" on="1"/>
        <pt x="596" y="740" on="1"/>
        <pt x="596" y="574" on="1"/>
        <pt x="252" y="574" on="1"/>
        <pt x="252" y="454" on="1"/>
        <pt x="551" y="454" on="1"/>
        <pt x="551" y="296" on="1"/>
        <pt x="252" y="296" on="1"/>
        <pt x="252" y="166" on="1"/>
        <pt x="601" y="166" on="1"/>
        <pt x="601" y="0" on="1"/>
      </contour>
    </TTGlyph>
    <TTGlyph name="Edotaccent" xMin="60" yMin="0" xMax="601" yMax="1000">
      <contour>
        <pt x="328" y="793" on="1"/>
        <pt x="281" y="793" on="0"/>
        <pt x="220" y="854" on="0"/>
        <pt x="220" y="896" on="1"/>
        <pt x="220" y="940" on="0"/>
        <pt x="281" y="1000" on="0"/>
        <pt x="328" y="1000" on="1"/>
        <pt x="375" y="1000" on="0"/>
        <pt x="437" y="940" on="0"/>
        <pt x="437" y="896" on="1"/>
        <pt x="437" y="854" on="0"/>
        <pt x="375" y="793" on="0"/>
      </contour>
      <contour>
        <pt x="60" y="0" on="1"/>
        <pt x="60" y="740" on="1"/>
        <pt x="596" y="740" on="1"/>
        <pt x="596" y="574" on="1"/>
        <pt x="252" y="574" on="1"/>
        <pt x="252" y="454" on="1"/>
        <pt x="551" y="454" on="1"/>
        <pt x="551" y="296" on="1"/>
        <pt x="252" y="296" on="1"/>
        <pt x="252" y="166" on="1"/>
        <pt x="601" y="166" on="1"/>
        <pt x="601" y="0" on="1"/>
      </contour>
    </TTGlyph>
    <TTGlyph name="Egrave" xMin="60" yMin="0" xMax="601" yMax="989">
      <contour>
        <pt x="263" y="809" on="1"/>
        <pt x="149" y="989" on="1"/>
        <pt x="319" y="989" on="1"/>
        <pt x="396" y="810" on="1"/>
      </contour>
      <contour>
        <pt x="60" y="0" on="1"/>
        <pt x="60" y="740" on="1"/>
        <pt x="596" y="740" on="1"/>
        <pt x="596" y="574" on="1"/>
        <pt x="252" y="574" on="1"/>
        <pt x="252" y="454" on="1"/>
        <pt x="551" y="454" on="1"/>
        <pt x="551" y="296" on="1"/>
        <pt x="252" y="296" on="1"/>
        <pt x="252" y="166" on="1"/>
        <pt x="601" y="166" on="1"/>
        <pt x="601" y="0" on="1"/>
      </contour>
    </TTGlyph>
    <TTGlyph name="Emacron" xMin="60" yMin="0" xMax="601" yMax="920">
      <contour>
        <pt x="158" y="818" on="1"/>
        <pt x="158" y="920" on="1"/>
        <pt x="498" y="920" on="1"/>
        <pt x="498" y="818" on="1"/>
      </contour>
      <contour>
        <pt x="60" y="0" on="1"/>
        <pt x="60" y="740" on="1"/>
        <pt x="596" y="740" on="1"/>
        <pt x="596" y="574" on="1"/>
        <pt x="252" y="574" on="1"/>
        <pt x="252" y="454" on="1"/>
        <pt x="551" y="454" on="1"/>
        <pt x="551" y="296" on="1"/>
        <pt x="252" y="296" on="1"/>
        <pt x="252" y="166" on="1"/>
        <pt x="601" y="166" on="1"/>
        <pt x="601" y="0" on="1"/>
      </contour>
    </TTGlyph>
    <TTGlyph name="Eogonek" xMin="60" yMin="-194" xMax="636" yMax="740">
      <contour>
        <pt x="60" y="0" on="1"/>
        <pt x="60" y="740" on="1"/>
        <pt x="596" y="740" on="1"/>
        <pt x="596" y="574" on="1"/>
        <pt x="252" y="574" on="1"/>
        <pt x="252" y="454" on="1"/>
        <pt x="551" y="454" on="1"/>
        <pt x="551" y="296" on="1"/>
        <pt x="252" y="296" on="1"/>
        <pt x="252" y="166" on="1"/>
        <pt x="601" y="166" on="1"/>
        <pt x="601" y="0" on="1"/>
        <pt x="601" y="0" on="0"/>
        <pt x="577" y="-13" on="0"/>
        <pt x="552" y="-37" on="0"/>
        <pt x="552" y="-55" on="1"/>
        <pt x="552" y="-68" on="0"/>
        <pt x="576" y="-90" on="0"/>
        <pt x="604" y="-90" on="1"/>
        <pt x="616" y="-90" on="0"/>
        <pt x="636" y="-87" on="0"/>
        <pt x="636" y="-87" on="1"/>
        <pt x="636" y="-189" on="1"/>
        <pt x="636" y="-189" on="0"/>
        <pt x="601" y="-194" on="0"/>
        <pt x="575" y="-194" on="1"/>
        <pt x="493" y="-194" on="0"/>
        <pt x="421" y="-130" on="0"/>
        <pt x="421" y="-87" on="1"/>
        <pt x="421" y="-56" on="0"/>
        <pt x="451" y="-13" on="0"/>
        <pt x="470" y="0" on="1"/>
      </contour>
    </TTGlyph>
    <TTGlyph name="Eth" xMin="5" yMin="0" xMax="752" yMax="740">
      <contour>
        <pt x="76" y="0" on="1"/>
        <pt x="76" y="296" on="1"/>
        <pt x="5" y="296" on="1"/>
        <pt x="5" y="444" on="1"/>
        <pt x="76" y="444" on="1"/>
        <pt x="76" y="740" on="1"/>
        <pt x="382" y="740" on="1"/>
        <pt x="474" y="740" on="0"/>
        <pt x="613" y="677" on="0"/>
        <pt x="706" y="571" on="0"/>
        <pt x="752" y="439" on="0"/>
        <pt x="752" y="370" on="1"/>
        <pt x="752" y="301" on="0"/>
        <pt x="706" y="169" on="0"/>
        <pt x="613" y="63" on="0"/>
        <pt x="474" y="0" on="0"/>
        <pt x="382" y="0" on="1"/>
      </contour>
      <contour>
        <pt x="395" y="296" on="1"/>
        <pt x="268" y="296" on="1"/>
        <pt x="268" y="171" on="1"/>
        <pt x="373" y="171" on="1"/>
        <pt x="438" y="171" on="0"/>
        <pt x="520" y="230" on="0"/>
        <pt x="559" y="322" on="0"/>
        <pt x="559" y="372" on="1"/>
        <pt x="559" y="422" on="0"/>
        <pt x="520" y="513" on="0"/>
        <pt x="438" y="572" on="0"/>
        <pt x="373" y="572" on="1"/>
        <pt x="268" y="572" on="1"/>
        <pt x="268" y="444" on="1"/>
        <pt x="395" y="444" on="1"/>
      </contour>
    </TTGlyph>
    <TTGlyph name="Euro" xMin="20" yMin="-10" xMax="631" yMax="750">
      <contour>
        <pt x="20" y="270" on="1"/>
        <pt x="20" y="350" on="1"/>
        <pt x="92" y="350" on="1"/>
        <pt x="92" y="360" on="0"/>
        <pt x="92" y="370" on="1"/>
        <pt x="92" y="380" on="0"/>
        <pt x="92" y="389" on="1"/>
        <pt x="20" y="389" on="1"/>
        <pt x="20" y="469" on="1"/>
        <pt x="104" y="469" on="1"/>
        <pt x="122" y="545" on="0"/>
        <pt x="217" y="673" on="0"/>
        <pt x="374" y="750" on="0"/>
        <pt x="485" y="750" on="1"/>
        <pt x="519" y="750" on="0"/>
        <pt x="586" y="742" on="0"/>
        <pt x="631" y="734" on="0"/>
        <pt x="631" y="734" on="1"/>
        <pt x="631" y="569" on="1"/>
        <pt x="631" y="569" on="0"/>
        <pt x="589" y="577" on="0"/>
        <pt x="528" y="585" on="0"/>
        <pt x="498" y="585" on="1"/>
        <pt x="424" y="585" on="0"/>
        <pt x="330" y="518" on="0"/>
        <pt x="308" y="469" on="1"/>
        <pt x="538" y="469" on="1"/>
        <pt x="538" y="389" on="1"/>
        <pt x="288" y="389" on="1"/>
        <pt x="287" y="380" on="0"/>
        <pt x="287" y="370" on="1"/>
        <pt x="287" y="360" on="0"/>
        <pt x="288" y="350" on="1"/>
        <pt x="538" y="350" on="1"/>
        <pt x="538" y="270" on="1"/>
        <pt x="308" y="270" on="1"/>
        <pt x="330" y="221" on="0"/>
        <pt x="424" y="155" on="0"/>
        <pt x="498" y="155" on="1"/>
        <pt x="528" y="155" on="0"/>
        <pt x="589" y="163" on="0"/>
        <pt x="631" y="171" on="0"/>
        <pt x="631" y="171" on="1"/>
        <pt x="631" y="6" on="1"/>
        <pt x="631" y="6" on="0"/>
        <pt x="586" y="-2" on="0"/>
        <pt x="519" y="-10" on="0"/>
        <pt x="485" y="-10" on="1"/>
        <pt x="374" y="-10" on="0"/>
        <pt x="218" y="67" on="0"/>
        <pt x="122" y="194" on="0"/>
        <pt x="104" y="270" on="1"/>
      </contour>
    </TTGlyph>
    <TTGlyph name="F" xMin="60" yMin="0" xMax="596" yMax="740">
      <contour>
        <pt x="60" y="0" on="1"/>
        <pt x="60" y="740" on="1"/>
        <pt x="596" y="740" on="1"/>
        <pt x="596" y="574" on="1"/>
        <pt x="252" y="574" on="1"/>
        <pt x="252" y="414" on="1"/>
        <pt x="551" y="414" on="1"/>
        <pt x="551" y="255" on="1"/>
        <pt x="252" y="255" on="1"/>
        <pt x="252" y="0" on="1"/>
      </contour>
    </TTGlyph>
    <TTGlyph name="G" xMin="30" yMin="-10" xMax="764" yMax="750">
      <contour>
        <pt x="414" y="-10" on="1"/>
        <pt x="318" y="-10" on="0"/>
        <pt x="174" y="54" on="0"/>
        <pt x="78" y="162" on="0"/>
        <pt x="30" y="298" on="0"/>
        <pt x="30" y="369" on="1"/>
        <pt x="30" y="440" on="0"/>
        <pt x="79" y="576" on="0"/>
        <pt x="176" y="685" on="0"/>
        <pt x="322" y="750" on="0"/>
        <pt x="419" y="750" on="1"/>
        <pt x="496" y="750" on="0"/>
        <pt x="607" y="712" on="0"/>
        <pt x="681" y="651" on="0"/>
        <pt x="726" y="583" on="0"/>
        <pt x="749" y="522" on="0"/>
        <pt x="757" y="484" on="0"/>
        <pt x="757" y="484" on="1"/>
        <pt x="567" y="484" on="1"/>
        <pt x="567" y="484" on="0"/>
        <pt x="556" y="514" on="0"/>
        <pt x="525" y="552" on="0"/>
        <pt x="467" y="582" on="0"/>
        <pt x="419" y="582" on="1"/>
        <pt x="356" y="582" on="0"/>
        <pt x="271" y="521" on="0"/>
        <pt x="228" y="425" on="0"/>
        <pt x="228" y="372" on="1"/>
        <pt x="228" y="319" on="0"/>
        <pt x="272" y="220" on="0"/>
        <pt x="359" y="157" on="0"/>
        <pt x="423" y="157" on="1"/>
        <pt x="486" y="157" on="0"/>
        <pt x="561" y="214" on="0"/>
        <pt x="573" y="261" on="1"/>
        <pt x="400" y="261" on="1"/>
        <pt x="400" y="409" on="1"/>
        <pt x="764" y="409" on="1"/>
        <pt x="764" y="348" on="1"/>
        <pt x="764" y="231" on="0"/>
        <pt x="674" y="71" on="0"/>
        <pt x="517" y="-10" on="0"/>
      </contour>
    </TTGlyph>
    <TTGlyph name="Gbreve" xMin="30" yMin="-10" xMax="764" yMax="988">
      <contour>
        <pt x="419" y="802" on="1"/>
        <pt x="359" y="802" on="0"/>
        <pt x="284" y="840" on="0"/>
        <pt x="244" y="895" on="0"/>
        <pt x="228" y="950" on="0"/>
        <pt x="225" y="988" on="0"/>
        <pt x="225" y="988" on="1"/>
        <pt x="344" y="988" on="1"/>
        <pt x="344" y="988" on="0"/>
        <pt x="347" y="964" on="0"/>
        <pt x="361" y="931" on="0"/>
        <pt x="391" y="907" on="0"/>
        <pt x="419" y="907" on="1"/>
        <pt x="447" y="907" on="0"/>
        <pt x="478" y="931" on="0"/>
        <pt x="491" y="964" on="0"/>
        <pt x="494" y="988" on="0"/>
        <pt x="494" y="988" on="1"/>
        <pt x="613" y="988" on="1"/>
        <pt x="613" y="988" on="0"/>
        <pt x="610" y="950" on="0"/>
        <pt x="594" y="895" on="0"/>
        <pt x="554" y="840" on="0"/>
        <pt x="479" y="802" on="0"/>
      </contour>
      <contour>
        <pt x="414" y="-10" on="1"/>
        <pt x="318" y="-10" on="0"/>
        <pt x="174" y="54" on="0"/>
        <pt x="78" y="162" on="0"/>
        <pt x="30" y="298" on="0"/>
        <pt x="30" y="369" on="1"/>
        <pt x="30" y="440" on="0"/>
        <pt x="79" y="576" on="0"/>
        <pt x="176" y="685" on="0"/>
        <pt x="322" y="750" on="0"/>
        <pt x="419" y="750" on="1"/>
        <pt x="496" y="750" on="0"/>
        <pt x="607" y="712" on="0"/>
        <pt x="681" y="651" on="0"/>
        <pt x="726" y="583" on="0"/>
        <pt x="749" y="522" on="0"/>
        <pt x="757" y="484" on="0"/>
        <pt x="757" y="484" on="1"/>
        <pt x="567" y="484" on="1"/>
        <pt x="567" y="484" on="0"/>
        <pt x="556" y="514" on="0"/>
        <pt x="525" y="552" on="0"/>
        <pt x="467" y="582" on="0"/>
        <pt x="419" y="582" on="1"/>
        <pt x="356" y="582" on="0"/>
        <pt x="271" y="521" on="0"/>
        <pt x="228" y="425" on="0"/>
        <pt x="228" y="372" on="1"/>
        <pt x="228" y="319" on="0"/>
        <pt x="272" y="220" on="0"/>
        <pt x="359" y="157" on="0"/>
        <pt x="423" y="157" on="1"/>
        <pt x="486" y="157" on="0"/>
        <pt x="561" y="214" on="0"/>
        <pt x="573" y="261" on="1"/>
        <pt x="400" y="261" on="1"/>
        <pt x="400" y="409" on="1"/>
        <pt x="764" y="409" on="1"/>
        <pt x="764" y="348" on="1"/>
        <pt x="764" y="231" on="0"/>
        <pt x="674" y="71" on="0"/>
        <pt x="517" y="-10" on="0"/>
      </contour>
    </TTGlyph>
    <TTGlyph name="Gcaron" xMin="30" yMin="-10" xMax="764" yMax="989">
      <contour>
        <pt x="345" y="800" on="1"/>
        <pt x="210" y="989" on="1"/>
        <pt x="351" y="989" on="1"/>
        <pt x="419" y="887" on="1"/>
        <pt x="486" y="989" on="1"/>
        <pt x="627" y="989" on="1"/>
        <pt x="492" y="800" on="1"/>
      </contour>
      <contour>
        <pt x="414" y="-10" on="1"/>
        <pt x="318" y="-10" on="0"/>
        <pt x="174" y="54" on="0"/>
        <pt x="78" y="162" on="0"/>
        <pt x="30" y="298" on="0"/>
        <pt x="30" y="369" on="1"/>
        <pt x="30" y="440" on="0"/>
        <pt x="79" y="576" on="0"/>
        <pt x="176" y="685" on="0"/>
        <pt x="322" y="750" on="0"/>
        <pt x="419" y="750" on="1"/>
        <pt x="496" y="750" on="0"/>
        <pt x="607" y="712" on="0"/>
        <pt x="681" y="651" on="0"/>
        <pt x="726" y="583" on="0"/>
        <pt x="749" y="522" on="0"/>
        <pt x="757" y="484" on="0"/>
        <pt x="757" y="484" on="1"/>
        <pt x="567" y="484" on="1"/>
        <pt x="567" y="484" on="0"/>
        <pt x="556" y="514" on="0"/>
        <pt x="525" y="552" on="0"/>
        <pt x="467" y="582" on="0"/>
        <pt x="419" y="582" on="1"/>
        <pt x="356" y="582" on="0"/>
        <pt x="271" y="521" on="0"/>
        <pt x="228" y="425" on="0"/>
        <pt x="228" y="372" on="1"/>
        <pt x="228" y="319" on="0"/>
        <pt x="272" y="220" on="0"/>
        <pt x="359" y="157" on="0"/>
        <pt x="423" y="157" on="1"/>
        <pt x="486" y="157" on="0"/>
        <pt x="561" y="214" on="0"/>
        <pt x="573" y="261" on="1"/>
        <pt x="400" y="261" on="1"/>
        <pt x="400" y="409" on="1"/>
        <pt x="764" y="409" on="1"/>
        <pt x="764" y="348" on="1"/>
        <pt x="764" y="231" on="0"/>
        <pt x="674" y="71" on="0"/>
        <pt x="517" y="-10" on="0"/>
      </contour>
    </TTGlyph>
    <TTGlyph name="Gdotaccent" xMin="30" yMin="-10" xMax="764" yMax="1000">
      <contour>
        <pt x="419" y="793" on="1"/>
        <pt x="372" y="793" on="0"/>
        <pt x="311" y="854" on="0"/>
        <pt x="311" y="896" on="1"/>
        <pt x="311" y="940" on="0"/>
        <pt x="372" y="1000" on="0"/>
        <pt x="419" y="1000" on="1"/>
        <pt x="466" y="1000" on="0"/>
        <pt x="528" y="940" on="0"/>
        <pt x="528" y="896" on="1"/>
        <pt x="528" y="854" on="0"/>
        <pt x="466" y="793" on="0"/>
      </contour>
      <contour>
        <pt x="414" y="-10" on="1"/>
        <pt x="318" y="-10" on="0"/>
        <pt x="174" y="54" on="0"/>
        <pt x="78" y="162" on="0"/>
        <pt x="30" y="298" on="0"/>
        <pt x="30" y="369" on="1"/>
        <pt x="30" y="440" on="0"/>
        <pt x="79" y="576" on="0"/>
        <pt x="176" y="685" on="0"/>
        <pt x="322" y="750" on="0"/>
        <pt x="419" y="750" on="1"/>
        <pt x="496" y="750" on="0"/>
        <pt x="607" y="712" on="0"/>
        <pt x="681" y="651" on="0"/>
        <pt x="726" y="583" on="0"/>
        <pt x="749" y="522" on="0"/>
        <pt x="757" y="484" on="0"/>
        <pt x="757" y="484" on="1"/>
        <pt x="567" y="484" on="1"/>
        <pt x="567" y="484" on="0"/>
        <pt x="556" y="514" on="0"/>
        <pt x="525" y="552" on="0"/>
        <pt x="467" y="582" on="0"/>
        <pt x="419" y="582" on="1"/>
        <pt x="356" y="582" on="0"/>
        <pt x="271" y="521" on="0"/>
        <pt x="228" y="425" on="0"/>
        <pt x="228" y="372" on="1"/>
        <pt x="228" y="319" on="0"/>
        <pt x="272" y="220" on="0"/>
        <pt x="359" y="157" on="0"/>
        <pt x="423" y="157" on="1"/>
        <pt x="486" y="157" on="0"/>
        <pt x="561" y="214" on="0"/>
        <pt x="573" y="261" on="1"/>
        <pt x="400" y="261" on="1"/>
        <pt x="400" y="409" on="1"/>
        <pt x="764" y="409" on="1"/>
        <pt x="764" y="348" on="1"/>
        <pt x="764" y="231" on="0"/>
        <pt x="674" y="71" on="0"/>
        <pt x="517" y="-10" on="0"/>
      </contour>
    </TTGlyph>
    <TTGlyph name="H" xMin="60" yMin="0" xMax="688" yMax="740">
      <contour>
        <pt x="60" y="0" on="1"/>
        <pt x="60" y="740" on="1"/>
        <pt x="252" y="740" on="1"/>
        <pt x="252" y="462" on="1"/>
        <pt x="496" y="462" on="1"/>
        <pt x="496" y="740" on="1"/>
        <pt x="688" y="740" on="1"/>
        <pt x="688" y="0" on="1"/>
        <pt x="496" y="0" on="1"/>
        <pt x="496" y="298" on="1"/>
        <pt x="252" y="298" on="1"/>
        <pt x="252" y="0" on="1"/>
      </contour>
    </TTGlyph>
    <TTGlyph name="Hbar" xMin="10" yMin="0" xMax="781" yMax="740">
      <contour>
        <pt x="82" y="0" on="1"/>
        <pt x="82" y="527" on="1"/>
        <pt x="10" y="527" on="1"/>
        <pt x="10" y="658" on="1"/>
        <pt x="82" y="658" on="1"/>
        <pt x="82" y="740" on="1"/>
        <pt x="274" y="740" on="1"/>
        <pt x="274" y="658" on="1"/>
        <pt x="518" y="658" on="1"/>
        <pt x="518" y="740" on="1"/>
        <pt x="710" y="740" on="1"/>
        <pt x="710" y="658" on="1"/>
        <pt x="781" y="658" on="1"/>
        <pt x="781" y="527" on="1"/>
        <pt x="710" y="527" on="1"/>
        <pt x="710" y="0" on="1"/>
        <pt x="518" y="0" on="1"/>
        <pt x="518" y="298" on="1"/>
        <pt x="274" y="298" on="1"/>
        <pt x="274" y="0" on="1"/>
      </contour>
      <contour>
        <pt x="274" y="462" on="1"/>
        <pt x="518" y="462" on="1"/>
        <pt x="518" y="527" on="1"/>
        <pt x="274" y="527" on="1"/>
      </contour>
    </TTGlyph>
    <TTGlyph name="I" xMin="60" yMin="0" xMax="252" yMax="740">
      <contour>
        <pt x="60" y="0" on="1"/>
        <pt x="60" y="740" on="1"/>
        <pt x="252" y="740" on="1"/>
        <pt x="252" y="0" on="1"/>
      </contour>
    </TTGlyph>
    <TTGlyph name="Iacute" xMin="60" yMin="0" xMax="338" yMax="989">
      <contour>
        <pt x="224" y="809" on="1"/>
        <pt x="91" y="810" on="1"/>
        <pt x="168" y="989" on="1"/>
        <pt x="338" y="989" on="1"/>
      </contour>
      <contour>
        <pt x="60" y="0" on="1"/>
        <pt x="60" y="740" on="1"/>
        <pt x="252" y="740" on="1"/>
        <pt x="252" y="0" on="1"/>
      </contour>
    </TTGlyph>
    <TTGlyph name="Icircumflex" xMin="-52" yMin="0" xMax="365" yMax="988">
      <contour>
        <pt x="-52" y="799" on="1"/>
        <pt x="83" y="988" on="1"/>
        <pt x="230" y="988" on="1"/>
        <pt x="365" y="799" on="1"/>
        <pt x="224" y="799" on="1"/>
        <pt x="157" y="901" on="1"/>
        <pt x="89" y="799" on="1"/>
      </contour>
      <contour>
        <pt x="60" y="0" on="1"/>
        <pt x="60" y="740" on="1"/>
        <pt x="252" y="740" on="1"/>
        <pt x="252" y="0" on="1"/>
      </contour>
    </TTGlyph>
    <TTGlyph name="Idieresis" xMin="-72" yMin="0" xMax="383" yMax="983">
      <contour>
        <pt x="281" y="788" on="1"/>
        <pt x="236" y="788" on="0"/>
        <pt x="179" y="845" on="0"/>
        <pt x="179" y="885" on="1"/>
        <pt x="179" y="926" on="0"/>
        <pt x="236" y="983" on="0"/>
        <pt x="281" y="983" on="1"/>
        <pt x="325" y="983" on="0"/>
        <pt x="383" y="926" on="0"/>
        <pt x="383" y="885" on="1"/>
        <pt x="383" y="845" on="0"/>
        <pt x="325" y="788" on="0"/>
      </contour>
      <contour>
        <pt x="30" y="788" on="1"/>
        <pt x="-15" y="788" on="0"/>
        <pt x="-72" y="845" on="0"/>
        <pt x="-72" y="885" on="1"/>
        <pt x="-72" y="926" on="0"/>
        <pt x="-15" y="983" on="0"/>
        <pt x="30" y="983" on="1"/>
        <pt x="74" y="983" on="0"/>
        <pt x="132" y="926" on="0"/>
        <pt x="132" y="885" on="1"/>
        <pt x="132" y="845" on="0"/>
        <pt x="74" y="788" on="0"/>
      </contour>
      <contour>
        <pt x="60" y="0" on="1"/>
        <pt x="60" y="740" on="1"/>
        <pt x="252" y="740" on="1"/>
        <pt x="252" y="0" on="1"/>
      </contour>
    </TTGlyph>
    <TTGlyph name="Idotaccent" xMin="48" yMin="0" xMax="265" yMax="1000">
      <contour>
        <pt x="156" y="793" on="1"/>
        <pt x="109" y="793" on="0"/>
        <pt x="48" y="854" on="0"/>
        <pt x="48" y="896" on="1"/>
        <pt x="48" y="940" on="0"/>
        <pt x="109" y="1000" on="0"/>
        <pt x="156" y="1000" on="1"/>
        <pt x="203" y="1000" on="0"/>
        <pt x="265" y="940" on="0"/>
        <pt x="265" y="896" on="1"/>
        <pt x="265" y="854" on="0"/>
        <pt x="203" y="793" on="0"/>
      </contour>
      <contour>
        <pt x="60" y="0" on="1"/>
        <pt x="60" y="740" on="1"/>
        <pt x="252" y="740" on="1"/>
        <pt x="252" y="0" on="1"/>
      </contour>
    </TTGlyph>
    <TTGlyph name="Igrave" xMin="-23" yMin="0" xMax="252" yMax="989">
      <contour>
        <pt x="91" y="809" on="1"/>
        <pt x="-23" y="989" on="1"/>
        <pt x="147" y="989" on="1"/>
        <pt x="224" y="810" on="1"/>
      </contour>
      <contour>
        <pt x="60" y="0" on="1"/>
        <pt x="60" y="740" on="1"/>
        <pt x="252" y="740" on="1"/>
        <pt x="252" y="0" on="1"/>
      </contour>
    </TTGlyph>
    <TTGlyph name="Imacron" xMin="-14" yMin="0" xMax="326" yMax="920">
      <contour>
        <pt x="-14" y="818" on="1"/>
        <pt x="-14" y="920" on="1"/>
        <pt x="326" y="920" on="1"/>
        <pt x="326" y="818" on="1"/>
      </contour>
      <contour>
        <pt x="60" y="0" on="1"/>
        <pt x="60" y="740" on="1"/>
        <pt x="252" y="740" on="1"/>
        <pt x="252" y="0" on="1"/>
      </contour>
    </TTGlyph>
    <TTGlyph name="Iogonek" xMin="60" yMin="-194" xMax="287" yMax="740">
      <contour>
        <pt x="60" y="0" on="1"/>
        <pt x="60" y="740" on="1"/>
        <pt x="252" y="740" on="1"/>
        <pt x="252" y="0" on="1"/>
        <pt x="252" y="0" on="0"/>
        <pt x="228" y="-13" on="0"/>
        <pt x="203" y="-37" on="0"/>
        <pt x="203" y="-55" on="1"/>
        <pt x="203" y="-68" on="0"/>
        <pt x="227" y="-90" on="0"/>
        <pt x="255" y="-90" on="1"/>
        <pt x="267" y="-90" on="0"/>
        <pt x="287" y="-87" on="0"/>
        <pt x="287" y="-87" on="1"/>
        <pt x="287" y="-189" on="1"/>
        <pt x="287" y="-189" on="0"/>
        <pt x="252" y="-194" on="0"/>
        <pt x="226" y="-194" on="1"/>
        <pt x="144" y="-194" on="0"/>
        <pt x="72" y="-130" on="0"/>
        <pt x="72" y="-87" on="1"/>
        <pt x="72" y="-56" on="0"/>
        <pt x="102" y="-13" on="0"/>
        <pt x="121" y="0" on="1"/>
      </contour>
    </TTGlyph>
    <TTGlyph name="Itilde" xMin="-23" yMin="0" xMax="342" yMax="987">
      <contour>
        <pt x="234" y="822" on="1"/>
        <pt x="207" y="822" on="0"/>
        <pt x="167" y="840" on="0"/>
        <pt x="136" y="863" on="0"/>
        <pt x="110" y="881" on="0"/>
        <pt x="96" y="881" on="1"/>
        <pt x="81" y="881" on="0"/>
        <pt x="70" y="854" on="0"/>
        <pt x="70" y="828" on="1"/>
        <pt x="-23" y="828" on="1"/>
        <pt x="-23" y="863" on="0"/>
        <pt x="-7" y="936" on="0"/>
        <pt x="40" y="987" on="0"/>
        <pt x="85" y="987" on="1"/>
        <pt x="122" y="987" on="0"/>
        <pt x="171" y="958" on="0"/>
        <pt x="207" y="928" on="0"/>
        <pt x="224" y="928" on="1"/>
        <pt x="238" y="928" on="0"/>
        <pt x="249" y="956" on="0"/>
        <pt x="249" y="981" on="1"/>
        <pt x="342" y="981" on="1"/>
        <pt x="342" y="947" on="0"/>
        <pt x="326" y="873" on="0"/>
        <pt x="280" y="822" on="0"/>
      </contour>
      <contour>
        <pt x="60" y="0" on="1"/>
        <pt x="60" y="740" on="1"/>
        <pt x="252" y="740" on="1"/>
        <pt x="252" y="0" on="1"/>
      </contour>
    </TTGlyph>
    <TTGlyph name="J" xMin="40" yMin="-10" xMax="448" yMax="740">
      <contour>
        <pt x="158" y="-10" on="1"/>
        <pt x="108" y="-10" on="0"/>
        <pt x="40" y="0" on="0"/>
        <pt x="40" y="0" on="1"/>
        <pt x="40" y="157" on="1"/>
        <pt x="40" y="157" on="0"/>
        <pt x="88" y="152" on="0"/>
        <pt x="119" y="152" on="1"/>
        <pt x="183" y="152" on="0"/>
        <pt x="258" y="212" on="0"/>
        <pt x="258" y="291" on="1"/>
        <pt x="258" y="740" on="1"/>
        <pt x="448" y="740" on="1"/>
        <pt x="448" y="286" on="1"/>
        <pt x="448" y="228" on="0"/>
        <pt x="418" y="121" on="0"/>
        <pt x="351" y="38" on="0"/>
        <pt x="239" y="-10" on="0"/>
      </contour>
    </TTGlyph>
    <TTGlyph name="K" xMin="60" yMin="0" xMax="720" yMax="740">
      <contour>
        <pt x="60" y="0" on="1"/>
        <pt x="60" y="740" on="1"/>
        <pt x="252" y="740" on="1"/>
        <pt x="252" y="444" on="1"/>
        <pt x="479" y="740" on="1"/>
        <pt x="711" y="740" on="1"/>
        <pt x="426" y="387" on="1"/>
        <pt x="720" y="0" on="1"/>
        <pt x="479" y="0" on="1"/>
        <pt x="252" y="309" on="1"/>
        <pt x="252" y="0" on="1"/>
      </contour>
    </TTGlyph>
    <TTGlyph name="L" xMin="60" yMin="0" xMax="601" yMax="740">
      <contour>
        <pt x="60" y="0" on="1"/>
        <pt x="60" y="740" on="1"/>
        <pt x="252" y="740" on="1"/>
        <pt x="252" y="166" on="1"/>
        <pt x="601" y="166" on="1"/>
        <pt x="601" y="0" on="1"/>
      </contour>
    </TTGlyph>
    <TTGlyph name="Lacute" xMin="60" yMin="0" xMax="601" yMax="989">
      <contour>
        <pt x="224" y="809" on="1"/>
        <pt x="91" y="810" on="1"/>
        <pt x="168" y="989" on="1"/>
        <pt x="338" y="989" on="1"/>
      </contour>
      <contour>
        <pt x="60" y="0" on="1"/>
        <pt x="60" y="740" on="1"/>
        <pt x="252" y="740" on="1"/>
        <pt x="252" y="166" on="1"/>
        <pt x="601" y="166" on="1"/>
        <pt x="601" y="0" on="1"/>
      </contour>
    </TTGlyph>
    <TTGlyph name="Lcaron" xMin="-53" yMin="0" xMax="601" yMax="989">
      <contour>
        <pt x="82" y="800" on="1"/>
        <pt x="-53" y="989" on="1"/>
        <pt x="88" y="989" on="1"/>
        <pt x="156" y="887" on="1"/>
        <pt x="223" y="989" on="1"/>
        <pt x="364" y="989" on="1"/>
        <pt x="229" y="800" on="1"/>
      </contour>
      <contour>
        <pt x="60" y="0" on="1"/>
        <pt x="60" y="740" on="1"/>
        <pt x="252" y="740" on="1"/>
        <pt x="252" y="166" on="1"/>
        <pt x="601" y="166" on="1"/>
        <pt x="601" y="0" on="1"/>
      </contour>
    </TTGlyph>
    <TTGlyph name="Lslash" xMin="-9" yMin="0" xMax="612" yMax="740">
      <contour>
        <pt x="71" y="0" on="1"/>
        <pt x="71" y="266" on="1"/>
        <pt x="-9" y="227" on="1"/>
        <pt x="-9" y="361" on="1"/>
        <pt x="71" y="400" on="1"/>
        <pt x="71" y="740" on="1"/>
        <pt x="263" y="740" on="1"/>
        <pt x="263" y="495" on="1"/>
        <pt x="381" y="553" on="1"/>
        <pt x="381" y="419" on="1"/>
        <pt x="263" y="361" on="1"/>
        <pt x="263" y="166" on="1"/>
        <pt x="612" y="166" on="1"/>
        <pt x="612" y="0" on="1"/>
      </contour>
    </TTGlyph>
    <TTGlyph name="M" xMin="60" yMin="0" xMax="852" yMax="740">
      <contour>
        <pt x="60" y="0" on="1"/>
        <pt x="60" y="740" on="1"/>
        <pt x="320" y="740" on="1"/>
        <pt x="457" y="402" on="1"/>
        <pt x="602" y="740" on="1"/>
        <pt x="852" y="740" on="1"/>
        <pt x="852" y="0" on="1"/>
        <pt x="662" y="0" on="1"/>
        <pt x="662" y="441" on="1"/>
        <pt x="544" y="162" on="1"/>
        <pt x="368" y="162" on="1"/>
        <pt x="250" y="443" on="1"/>
        <pt x="250" y="0" on="1"/>
      </contour>
    </TTGlyph>
    <TTGlyph name="N" xMin="60" yMin="0" xMax="700" yMax="740">
      <contour>
        <pt x="60" y="0" on="1"/>
        <pt x="60" y="740" on="1"/>
        <pt x="237" y="740" on="1"/>
        <pt x="510" y="329" on="1"/>
        <pt x="510" y="740" on="1"/>
        <pt x="700" y="740" on="1"/>
        <pt x="700" y="0" on="1"/>
        <pt x="521" y="0" on="1"/>
        <pt x="250" y="390" on="1"/>
        <pt x="250" y="0" on="1"/>
      </contour>
    </TTGlyph>
    <TTGlyph name="Nacute" xMin="60" yMin="0" xMax="700" yMax="989">
      <contour>
        <pt x="444" y="809" on="1"/>
        <pt x="311" y="810" on="1"/>
        <pt x="388" y="989" on="1"/>
        <pt x="558" y="989" on="1"/>
      </contour>
      <contour>
        <pt x="60" y="0" on="1"/>
        <pt x="60" y="740" on="1"/>
        <pt x="237" y="740" on="1"/>
        <pt x="510" y="329" on="1"/>
        <pt x="510" y="740" on="1"/>
        <pt x="700" y="740" on="1"/>
        <pt x="700" y="0" on="1"/>
        <pt x="521" y="0" on="1"/>
        <pt x="250" y="390" on="1"/>
        <pt x="250" y="0" on="1"/>
      </contour>
    </TTGlyph>
    <TTGlyph name="Ncaron" xMin="60" yMin="0" xMax="700" yMax="989">
      <contour>
        <pt x="302" y="800" on="1"/>
        <pt x="167" y="989" on="1"/>
        <pt x="308" y="989" on="1"/>
        <pt x="376" y="887" on="1"/>
        <pt x="443" y="989" on="1"/>
        <pt x="584" y="989" on="1"/>
        <pt x="449" y="800" on="1"/>
      </contour>
      <contour>
        <pt x="60" y="0" on="1"/>
        <pt x="60" y="740" on="1"/>
        <pt x="237" y="740" on="1"/>
        <pt x="510" y="329" on="1"/>
        <pt x="510" y="740" on="1"/>
        <pt x="700" y="740" on="1"/>
        <pt x="700" y="0" on="1"/>
        <pt x="521" y="0" on="1"/>
        <pt x="250" y="390" on="1"/>
        <pt x="250" y="0" on="1"/>
      </contour>
    </TTGlyph>
    <TTGlyph name="Ntilde" xMin="60" yMin="0" xMax="700" yMax="987">
      <contour>
        <pt x="454" y="822" on="1"/>
        <pt x="427" y="822" on="0"/>
        <pt x="387" y="840" on="0"/>
        <pt x="356" y="863" on="0"/>
        <pt x="330" y="881" on="0"/>
        <pt x="316" y="881" on="1"/>
        <pt x="301" y="881" on="0"/>
        <pt x="290" y="854" on="0"/>
        <pt x="290" y="828" on="1"/>
        <pt x="197" y="828" on="1"/>
        <pt x="197" y="863" on="0"/>
        <pt x="213" y="936" on="0"/>
        <pt x="260" y="987" on="0"/>
        <pt x="305" y="987" on="1"/>
        <pt x="342" y="987" on="0"/>
        <pt x="391" y="958" on="0"/>
        <pt x="427" y="928" on="0"/>
        <pt x="444" y="928" on="1"/>
        <pt x="458" y="928" on="0"/>
        <pt x="469" y="956" on="0"/>
        <pt x="469" y="981" on="1"/>
        <pt x="562" y="981" on="1"/>
        <pt x="562" y="947" on="0"/>
        <pt x="546" y="873" on="0"/>
        <pt x="500" y="822" on="0"/>
      </contour>
      <contour>
        <pt x="60" y="0" on="1"/>
        <pt x="60" y="740" on="1"/>
        <pt x="237" y="740" on="1"/>
        <pt x="510" y="329" on="1"/>
        <pt x="510" y="740" on="1"/>
        <pt x="700" y="740" on="1"/>
        <pt x="700" y="0" on="1"/>
        <pt x="521" y="0" on="1"/>
        <pt x="250" y="390" on="1"/>
        <pt x="250" y="0" on="1"/>
      </contour>
    </TTGlyph>
    <TTGlyph name="O" xMin="30" yMin="-10" xMax="800" yMax="750">
      <contour>
        <pt x="415" y="-10" on="1"/>
        <pt x="319" y="-10" on="0"/>
        <pt x="175" y="55" on="0"/>
        <pt x="79" y="164" on="0"/>
        <pt x="30" y="300" on="0"/>
        <pt x="30" y="371" on="1"/>
        <pt x="30" y="442" on="0"/>
        <pt x="79" y="577" on="0"/>
        <pt x="175" y="685" on="0"/>
        <pt x="319" y="750" on="0"/>
        <pt x="415" y="750" on="1"/>
        <pt x="511" y="750" on="0"/>
        <pt x="655" y="685" on="0"/>
        <pt x="752" y="577" on="0"/>
        <pt x="800" y="442" on="0"/>
        <pt x="800" y="371" on="1"/>
        <pt x="800" y="300" on="0"/>
        <pt x="752" y="164" on="0"/>
        <pt x="655" y="55" on="0"/>
        <pt x="511" y="-10" on="0"/>
      </contour>
      <contour>
        <pt x="415" y="161" on="1"/>
        <pt x="477" y="161" on="0"/>
        <pt x="559" y="222" on="0"/>
        <pt x="600" y="319" on="0"/>
        <pt x="600" y="371" on="1"/>
        <pt x="600" y="423" on="0"/>
        <pt x="559" y="519" on="0"/>
        <pt x="477" y="580" on="0"/>
        <pt x="415" y="580" on="1"/>
        <pt x="354" y="580" on="0"/>
        <pt x="272" y="519" on="0"/>
        <pt x="231" y="423" on="0"/>
        <pt x="231" y="371" on="1"/>
        <pt x="231" y="319" on="0"/>
        <pt x="272" y="222" on="0"/>
        <pt x="354" y="161" on="0"/>
      </contour>
    </TTGlyph>
    <TTGlyph name="OE" xMin="30" yMin="0" xMax="1015" yMax="740">
      <contour>
        <pt x="1010" y="740" on="1"/>
        <pt x="1010" y="574" on="1"/>
        <pt x="666" y="574" on="1"/>
        <pt x="666" y="454" on="1"/>
        <pt x="965" y="454" on="1"/>
        <pt x="965" y="296" on="1"/>
        <pt x="666" y="296" on="1"/>
        <pt x="666" y="166" on="1"/>
        <pt x="1015" y="166" on="1"/>
        <pt x="1015" y="0" on="1"/>
        <pt x="429" y="0" on="1"/>
        <pt x="326" y="0" on="0"/>
        <pt x="175" y="63" on="0"/>
        <pt x="77" y="169" on="0"/>
        <pt x="30" y="301" on="0"/>
        <pt x="30" y="370" on="1"/>
        <pt x="30" y="439" on="0"/>
        <pt x="77" y="571" on="0"/>
        <pt x="175" y="677" on="0"/>
        <pt x="326" y="740" on="0"/>
        <pt x="429" y="740" on="1"/>
      </contour>
      <contour>
        <pt x="223" y="368" on="1"/>
        <pt x="223" y="319" on="0"/>
        <pt x="264" y="227" on="0"/>
        <pt x="355" y="168" on="0"/>
        <pt x="429" y="168" on="1"/>
        <pt x="474" y="168" on="1"/>
        <pt x="474" y="569" on="1"/>
        <pt x="429" y="569" on="1"/>
        <pt x="355" y="569" on="0"/>
        <pt x="264" y="510" on="0"/>
        <pt x="223" y="418" on="0"/>
      </contour>
    </TTGlyph>
    <TTGlyph name="Oacute" xMin="30" yMin="-10" xMax="800" yMax="999">
      <contour>
        <pt x="483" y="819" on="1"/>
        <pt x="350" y="820" on="1"/>
        <pt x="427" y="999" on="1"/>
        <pt x="597" y="999" on="1"/>
      </contour>
      <contour>
        <pt x="415" y="-10" on="1"/>
        <pt x="319" y="-10" on="0"/>
        <pt x="175" y="55" on="0"/>
        <pt x="79" y="164" on="0"/>
        <pt x="30" y="300" on="0"/>
        <pt x="30" y="371" on="1"/>
        <pt x="30" y="442" on="0"/>
        <pt x="79" y="577" on="0"/>
        <pt x="175" y="685" on="0"/>
        <pt x="319" y="750" on="0"/>
        <pt x="415" y="750" on="1"/>
        <pt x="511" y="750" on="0"/>
        <pt x="655" y="685" on="0"/>
        <pt x="752" y="577" on="0"/>
        <pt x="800" y="442" on="0"/>
        <pt x="800" y="371" on="1"/>
        <pt x="800" y="300" on="0"/>
        <pt x="752" y="164" on="0"/>
        <pt x="655" y="55" on="0"/>
        <pt x="511" y="-10" on="0"/>
      </contour>
      <contour>
        <pt x="415" y="161" on="1"/>
        <pt x="477" y="161" on="0"/>
        <pt x="559" y="222" on="0"/>
        <pt x="600" y="319" on="0"/>
        <pt x="600" y="371" on="1"/>
        <pt x="600" y="423" on="0"/>
        <pt x="559" y="519" on="0"/>
        <pt x="477" y="580" on="0"/>
        <pt x="415" y="580" on="1"/>
        <pt x="354" y="580" on="0"/>
        <pt x="272" y="519" on="0"/>
        <pt x="231" y="423" on="0"/>
        <pt x="231" y="371" on="1"/>
        <pt x="231" y="319" on="0"/>
        <pt x="272" y="222" on="0"/>
        <pt x="354" y="161" on="0"/>
      </contour>
    </TTGlyph>
    <TTGlyph name="Ocircumflex" xMin="30" yMin="-10" xMax="800" yMax="968">
      <contour>
        <pt x="207" y="809" on="1"/>
        <pt x="342" y="968" on="1"/>
        <pt x="489" y="968" on="1"/>
        <pt x="624" y="809" on="1"/>
        <pt x="483" y="809" on="1"/>
        <pt x="416" y="890" on="1"/>
        <pt x="348" y="809" on="1"/>
      </contour>
      <contour>
        <pt x="415" y="-10" on="1"/>
        <pt x="319" y="-10" on="0"/>
        <pt x="175" y="55" on="0"/>
        <pt x="79" y="164" on="0"/>
        <pt x="30" y="300" on="0"/>
        <pt x="30" y="371" on="1"/>
        <pt x="30" y="442" on="0"/>
        <pt x="79" y="577" on="0"/>
        <pt x="175" y="685" on="0"/>
        <pt x="319" y="750" on="0"/>
        <pt x="415" y="750" on="1"/>
        <pt x="511" y="750" on="0"/>
        <pt x="655" y="685" on="0"/>
        <pt x="752" y="577" on="0"/>
        <pt x="800" y="442" on="0"/>
        <pt x="800" y="371" on="1"/>
        <pt x="800" y="300" on="0"/>
        <pt x="752" y="164" on="0"/>
        <pt x="655" y="55" on="0"/>
        <pt x="511" y="-10" on="0"/>
      </contour>
      <contour>
        <pt x="415" y="161" on="1"/>
        <pt x="477" y="161" on="0"/>
        <pt x="559" y="222" on="0"/>
        <pt x="600" y="319" on="0"/>
        <pt x="600" y="371" on="1"/>
        <pt x="600" y="423" on="0"/>
        <pt x="559" y="519" on="0"/>
        <pt x="477" y="580" on="0"/>
        <pt x="415" y="580" on="1"/>
        <pt x="354" y="580" on="0"/>
        <pt x="272" y="519" on="0"/>
        <pt x="231" y="423" on="0"/>
        <pt x="231" y="371" on="1"/>
        <pt x="231" y="319" on="0"/>
        <pt x="272" y="222" on="0"/>
        <pt x="354" y="161" on="0"/>
      </contour>
    </TTGlyph>
    <TTGlyph name="Odieresis" xMin="30" yMin="-10" xMax="800" yMax="993">
      <contour>
        <pt x="540" y="798" on="1"/>
        <pt x="495" y="798" on="0"/>
        <pt x="438" y="855" on="0"/>
        <pt x="438" y="895" on="1"/>
        <pt x="438" y="936" on="0"/>
        <pt x="495" y="993" on="0"/>
        <pt x="540" y="993" on="1"/>
        <pt x="584" y="993" on="0"/>
        <pt x="642" y="936" on="0"/>
        <pt x="642" y="895" on="1"/>
        <pt x="642" y="855" on="0"/>
        <pt x="584" y="798" on="0"/>
      </contour>
      <contour>
        <pt x="289" y="798" on="1"/>
        <pt x="244" y="798" on="0"/>
        <pt x="187" y="855" on="0"/>
        <pt x="187" y="895" on="1"/>
        <pt x="187" y="936" on="0"/>
        <pt x="244" y="993" on="0"/>
        <pt x="289" y="993" on="1"/>
        <pt x="333" y="993" on="0"/>
        <pt x="391" y="936" on="0"/>
        <pt x="391" y="895" on="1"/>
        <pt x="391" y="855" on="0"/>
        <pt x="333" y="798" on="0"/>
      </contour>
      <contour>
        <pt x="415" y="-10" on="1"/>
        <pt x="319" y="-10" on="0"/>
        <pt x="175" y="55" on="0"/>
        <pt x="79" y="164" on="0"/>
        <pt x="30" y="300" on="0"/>
        <pt x="30" y="371" on="1"/>
        <pt x="30" y="442" on="0"/>
        <pt x="79" y="577" on="0"/>
        <pt x="175" y="685" on="0"/>
        <pt x="319" y="750" on="0"/>
        <pt x="415" y="750" on="1"/>
        <pt x="511" y="750" on="0"/>
        <pt x="655" y="685" on="0"/>
        <pt x="752" y="577" on="0"/>
        <pt x="800" y="442" on="0"/>
        <pt x="800" y="371" on="1"/>
        <pt x="800" y="300" on="0"/>
        <pt x="752" y="164" on="0"/>
        <pt x="655" y="55" on="0"/>
        <pt x="511" y="-10" on="0"/>
      </contour>
      <contour>
        <pt x="415" y="161" on="1"/>
        <pt x="477" y="161" on="0"/>
        <pt x="559" y="222" on="0"/>
        <pt x="600" y="319" on="0"/>
        <pt x="600" y="371" on="1"/>
        <pt x="600" y="423" on="0"/>
        <pt x="559" y="519" on="0"/>
        <pt x="477" y="580" on="0"/>
        <pt x="415" y="580" on="1"/>
        <pt x="354" y="580" on="0"/>
        <pt x="272" y="519" on="0"/>
        <pt x="231" y="423" on="0"/>
        <pt x="231" y="371" on="1"/>
        <pt x="231" y="319" on="0"/>
        <pt x="272" y="222" on="0"/>
        <pt x="354" y="161" on="0"/>
      </contour>
    </TTGlyph>
    <TTGlyph name="Ograve" xMin="30" yMin="-10" xMax="800" yMax="999">
      <contour>
        <pt x="350" y="819" on="1"/>
        <pt x="236" y="999" on="1"/>
        <pt x="406" y="999" on="1"/>
        <pt x="483" y="820" on="1"/>
      </contour>
      <contour>
        <pt x="415" y="-10" on="1"/>
        <pt x="319" y="-10" on="0"/>
        <pt x="175" y="55" on="0"/>
        <pt x="79" y="164" on="0"/>
        <pt x="30" y="300" on="0"/>
        <pt x="30" y="371" on="1"/>
        <pt x="30" y="442" on="0"/>
        <pt x="79" y="577" on="0"/>
        <pt x="175" y="685" on="0"/>
        <pt x="319" y="750" on="0"/>
        <pt x="415" y="750" on="1"/>
        <pt x="511" y="750" on="0"/>
        <pt x="655" y="685" on="0"/>
        <pt x="752" y="577" on="0"/>
        <pt x="800" y="442" on="0"/>
        <pt x="800" y="371" on="1"/>
        <pt x="800" y="300" on="0"/>
        <pt x="752" y="164" on="0"/>
        <pt x="655" y="55" on="0"/>
        <pt x="511" y="-10" on="0"/>
      </contour>
      <contour>
        <pt x="415" y="161" on="1"/>
        <pt x="477" y="161" on="0"/>
        <pt x="559" y="222" on="0"/>
        <pt x="600" y="319" on="0"/>
        <pt x="600" y="371" on="1"/>
        <pt x="600" y="423" on="0"/>
        <pt x="559" y="519" on="0"/>
        <pt x="477" y="580" on="0"/>
        <pt x="415" y="580" on="1"/>
        <pt x="354" y="580" on="0"/>
        <pt x="272" y="519" on="0"/>
        <pt x="231" y="423" on="0"/>
        <pt x="231" y="371" on="1"/>
        <pt x="231" y="319" on="0"/>
        <pt x="272" y="222" on="0"/>
        <pt x="354" y="161" on="0"/>
      </contour>
    </TTGlyph>
    <TTGlyph name="Ohorn" xMin="30" yMin="-10" xMax="800" yMax="867">
      <contour>
        <pt x="415" y="-10" on="1"/>
        <pt x="319" y="-10" on="0"/>
        <pt x="175" y="55" on="0"/>
        <pt x="79" y="164" on="0"/>
        <pt x="30" y="300" on="0"/>
        <pt x="30" y="371" on="1"/>
        <pt x="30" y="442" on="0"/>
        <pt x="79" y="577" on="0"/>
        <pt x="175" y="685" on="0"/>
        <pt x="319" y="750" on="0"/>
        <pt x="415" y="750" on="1"/>
        <pt x="431" y="750" on="0"/>
        <pt x="446" y="749" on="1"/>
        <pt x="569" y="749" on="1"/>
        <pt x="631" y="749" on="0"/>
        <pt x="631" y="811" on="1"/>
        <pt x="631" y="867" on="1"/>
        <pt x="788" y="867" on="1"/>
        <pt x="788" y="787" on="1"/>
        <pt x="788" y="726" on="0"/>
        <pt x="737" y="661" on="0"/>
        <pt x="681" y="654" on="1"/>
        <pt x="740" y="599" on="0"/>
        <pt x="800" y="449" on="0"/>
        <pt x="800" y="371" on="1"/>
        <pt x="800" y="300" on="0"/>
        <pt x="752" y="164" on="0"/>
        <pt x="655" y="55" on="0"/>
        <pt x="511" y="-10" on="0"/>
      </contour>
      <contour>
        <pt x="415" y="161" on="1"/>
        <pt x="477" y="161" on="0"/>
        <pt x="559" y="222" on="0"/>
        <pt x="600" y="319" on="0"/>
        <pt x="600" y="371" on="1"/>
        <pt x="600" y="423" on="0"/>
        <pt x="559" y="519" on="0"/>
        <pt x="477" y="580" on="0"/>
        <pt x="415" y="580" on="1"/>
        <pt x="354" y="580" on="0"/>
        <pt x="272" y="519" on="0"/>
        <pt x="231" y="423" on="0"/>
        <pt x="231" y="371" on="1"/>
        <pt x="231" y="319" on="0"/>
        <pt x="272" y="222" on="0"/>
        <pt x="354" y="161" on="0"/>
      </contour>
    </TTGlyph>
    <TTGlyph name="Ohungarumlaut" xMin="30" yMin="-10" xMax="800" yMax="999">
      <contour>
        <pt x="374" y="819" on="1"/>
        <pt x="251" y="820" on="1"/>
        <pt x="298" y="999" on="1"/>
        <pt x="458" y="999" on="1"/>
      </contour>
      <contour>
        <pt x="575" y="819" on="1"/>
        <pt x="452" y="820" on="1"/>
        <pt x="499" y="999" on="1"/>
        <pt x="659" y="999" on="1"/>
      </contour>
      <contour>
        <pt x="415" y="-10" on="1"/>
        <pt x="319" y="-10" on="0"/>
        <pt x="175" y="55" on="0"/>
        <pt x="79" y="164" on="0"/>
        <pt x="30" y="300" on="0"/>
        <pt x="30" y="371" on="1"/>
        <pt x="30" y="442" on="0"/>
        <pt x="79" y="577" on="0"/>
        <pt x="175" y="685" on="0"/>
        <pt x="319" y="750" on="0"/>
        <pt x="415" y="750" on="1"/>
        <pt x="511" y="750" on="0"/>
        <pt x="655" y="685" on="0"/>
        <pt x="752" y="577" on="0"/>
        <pt x="800" y="442" on="0"/>
        <pt x="800" y="371" on="1"/>
        <pt x="800" y="300" on="0"/>
        <pt x="752" y="164" on="0"/>
        <pt x="655" y="55" on="0"/>
        <pt x="511" y="-10" on="0"/>
      </contour>
      <contour>
        <pt x="415" y="161" on="1"/>
        <pt x="477" y="161" on="0"/>
        <pt x="559" y="222" on="0"/>
        <pt x="600" y="319" on="0"/>
        <pt x="600" y="371" on="1"/>
        <pt x="600" y="423" on="0"/>
        <pt x="559" y="519" on="0"/>
        <pt x="477" y="580" on="0"/>
        <pt x="415" y="580" on="1"/>
        <pt x="354" y="580" on="0"/>
        <pt x="272" y="519" on="0"/>
        <pt x="231" y="423" on="0"/>
        <pt x="231" y="371" on="1"/>
        <pt x="231" y="319" on="0"/>
        <pt x="272" y="222" on="0"/>
        <pt x="354" y="161" on="0"/>
      </contour>
    </TTGlyph>
    <TTGlyph name="Omacron" xMin="30" yMin="-10" xMax="800" yMax="930">
      <contour>
        <pt x="245" y="828" on="1"/>
        <pt x="245" y="930" on="1"/>
        <pt x="585" y="930" on="1"/>
        <pt x="585" y="828" on="1"/>
      </contour>
      <contour>
        <pt x="415" y="-10" on="1"/>
        <pt x="319" y="-10" on="0"/>
        <pt x="175" y="55" on="0"/>
        <pt x="79" y="164" on="0"/>
        <pt x="30" y="300" on="0"/>
        <pt x="30" y="371" on="1"/>
        <pt x="30" y="442" on="0"/>
        <pt x="79" y="577" on="0"/>
        <pt x="175" y="685" on="0"/>
        <pt x="319" y="750" on="0"/>
        <pt x="415" y="750" on="1"/>
        <pt x="511" y="750" on="0"/>
        <pt x="655" y="685" on="0"/>
        <pt x="752" y="577" on="0"/>
        <pt x="800" y="442" on="0"/>
        <pt x="800" y="371" on="1"/>
        <pt x="800" y="300" on="0"/>
        <pt x="752" y="164" on="0"/>
        <pt x="655" y="55" on="0"/>
        <pt x="511" y="-10" on="0"/>
      </contour>
      <contour>
        <pt x="415" y="161" on="1"/>
        <pt x="477" y="161" on="0"/>
        <pt x="559" y="222" on="0"/>
        <pt x="600" y="319" on="0"/>
        <pt x="600" y="371" on="1"/>
        <pt x="600" y="423" on="0"/>
        <pt x="559" y="519" on="0"/>
        <pt x="477" y="580" on="0"/>
        <pt x="415" y="580" on="1"/>
        <pt x="354" y="580" on="0"/>
        <pt x="272" y="519" on="0"/>
        <pt x="231" y="423" on="0"/>
        <pt x="231" y="371" on="1"/>
        <pt x="231" y="319" on="0"/>
        <pt x="272" y="222" on="0"/>
        <pt x="354" y="161" on="0"/>
      </contour>
    </TTGlyph>
    <TTGlyph name="Oslash" xMin="30" yMin="-24" xMax="800" yMax="763">
      <contour>
        <pt x="77" y="-24" on="1"/>
        <pt x="148" y="87" on="1"/>
        <pt x="89" y="142" on="0"/>
        <pt x="30" y="292" on="0"/>
        <pt x="30" y="371" on="1"/>
        <pt x="30" y="442" on="0"/>
        <pt x="79" y="577" on="0"/>
        <pt x="175" y="685" on="0"/>
        <pt x="319" y="750" on="0"/>
        <pt x="415" y="750" on="1"/>
        <pt x="455" y="750" on="0"/>
        <pt x="526" y="738" on="0"/>
        <pt x="558" y="727" on="1"/>
        <pt x="581" y="763" on="1"/>
        <pt x="752" y="763" on="1"/>
        <pt x="682" y="653" on="1"/>
        <pt x="741" y="598" on="0"/>
        <pt x="800" y="449" on="0"/>
        <pt x="800" y="371" on="1"/>
        <pt x="800" y="300" on="0"/>
        <pt x="752" y="164" on="0"/>
        <pt x="655" y="55" on="0"/>
        <pt x="511" y="-10" on="0"/>
        <pt x="415" y="-10" on="1"/>
        <pt x="375" y="-10" on="0"/>
        <pt x="304" y="2" on="0"/>
        <pt x="272" y="13" on="1"/>
        <pt x="248" y="-24" on="1"/>
      </contour>
      <contour>
        <pt x="231" y="371" on="1"/>
        <pt x="231" y="308" on="0"/>
        <pt x="257" y="257" on="1"/>
        <pt x="460" y="575" on="1"/>
        <pt x="439" y="580" on="0"/>
        <pt x="415" y="580" on="1"/>
        <pt x="354" y="580" on="0"/>
        <pt x="272" y="519" on="0"/>
        <pt x="231" y="423" on="0"/>
      </contour>
      <contour>
        <pt x="415" y="161" on="1"/>
        <pt x="477" y="161" on="0"/>
        <pt x="559" y="222" on="0"/>
        <pt x="600" y="319" on="0"/>
        <pt x="600" y="371" on="1"/>
        <pt x="600" y="433" on="0"/>
        <pt x="573" y="484" on="1"/>
        <pt x="370" y="166" on="1"/>
        <pt x="391" y="161" on="0"/>
      </contour>
    </TTGlyph>
    <TTGlyph name="Otilde" xMin="30" yMin="-10" xMax="800" yMax="997">
      <contour>
        <pt x="493" y="832" on="1"/>
        <pt x="466" y="832" on="0"/>
        <pt x="426" y="850" on="0"/>
        <pt x="395" y="873" on="0"/>
        <pt x="369" y="891" on="0"/>
        <pt x="355" y="891" on="1"/>
        <pt x="340" y="891" on="0"/>
        <pt x="329" y="864" on="0"/>
        <pt x="329" y="838" on="1"/>
        <pt x="236" y="838" on="1"/>
        <pt x="236" y="873" on="0"/>
        <pt x="252" y="946" on="0"/>
        <pt x="299" y="997" on="0"/>
        <pt x="344" y="997" on="1"/>
        <pt x="381" y="997" on="0"/>
        <pt x="430" y="968" on="0"/>
        <pt x="466" y="938" on="0"/>
        <pt x="483" y="938" on="1"/>
        <pt x="497" y="938" on="0"/>
        <pt x="508" y="966" on="0"/>
        <pt x="508" y="991" on="1"/>
        <pt x="601" y="991" on="1"/>
        <pt x="601" y="957" on="0"/>
        <pt x="585" y="883" on="0"/>
        <pt x="539" y="832" on="0"/>
      </contour>
      <contour>
        <pt x="415" y="-10" on="1"/>
        <pt x="319" y="-10" on="0"/>
        <pt x="175" y="55" on="0"/>
        <pt x="79" y="164" on="0"/>
        <pt x="30" y="300" on="0"/>
        <pt x="30" y="371" on="1"/>
        <pt x="30" y="442" on="0"/>
        <pt x="79" y="577" on="0"/>
        <pt x="175" y="685" on="0"/>
        <pt x="319" y="750" on="0"/>
        <pt x="415" y="750" on="1"/>
        <pt x="511" y="750" on="0"/>
        <pt x="655" y="685" on="0"/>
        <pt x="752" y="577" on="0"/>
        <pt x="800" y="442" on="0"/>
        <pt x="800" y="371" on="1"/>
        <pt x="800" y="300" on="0"/>
        <pt x="752" y="164" on="0"/>
        <pt x="655" y="55" on="0"/>
        <pt x="511" y="-10" on="0"/>
      </contour>
      <contour>
        <pt x="415" y="161" on="1"/>
        <pt x="477" y="161" on="0"/>
        <pt x="559" y="222" on="0"/>
        <pt x="600" y="319" on="0"/>
        <pt x="600" y="371" on="1"/>
        <pt x="600" y="423" on="0"/>
        <pt x="559" y="519" on="0"/>
        <pt x="477" y="580" on="0"/>
        <pt x="415" y="580" on="1"/>
        <pt x="354" y="580" on="0"/>
        <pt x="272" y="519" on="0"/>
        <pt x="231" y="423" on="0"/>
        <pt x="231" y="371" on="1"/>
        <pt x="231" y="319" on="0"/>
        <pt x="272" y="222" on="0"/>
        <pt x="354" y="161" on="0"/>
      </contour>
    </TTGlyph>
    <TTGlyph name="P" xMin="60" yMin="0" xMax="677" yMax="740">
      <contour>
        <pt x="60" y="0" on="1"/>
        <pt x="60" y="740" on="1"/>
        <pt x="393" y="740" on="1"/>
        <pt x="488" y="740" on="0"/>
        <pt x="614" y="667" on="0"/>
        <pt x="677" y="553" on="0"/>
        <pt x="677" y="490" on="1"/>
        <pt x="677" y="427" on="0"/>
        <pt x="614" y="312" on="0"/>
        <pt x="488" y="239" on="0"/>
        <pt x="393" y="239" on="1"/>
        <pt x="252" y="239" on="1"/>
        <pt x="252" y="0" on="1"/>
      </contour>
      <contour>
        <pt x="392" y="573" on="1"/>
        <pt x="252" y="573" on="1"/>
        <pt x="252" y="405" on="1"/>
        <pt x="392" y="405" on="1"/>
        <pt x="438" y="405" on="0"/>
        <pt x="483" y="458" on="0"/>
        <pt x="483" y="489" on="1"/>
        <pt x="483" y="521" on="0"/>
        <pt x="438" y="573" on="0"/>
      </contour>
    </TTGlyph>
    <TTGlyph name="Q" xMin="30" yMin="-10" xMax="809" yMax="750">
      <contour>
        <pt x="415" y="-10" on="1"/>
        <pt x="319" y="-10" on="0"/>
        <pt x="175" y="55" on="0"/>
        <pt x="79" y="164" on="0"/>
        <pt x="30" y="300" on="0"/>
        <pt x="30" y="371" on="1"/>
        <pt x="30" y="442" on="0"/>
        <pt x="79" y="577" on="0"/>
        <pt x="175" y="685" on="0"/>
        <pt x="319" y="750" on="0"/>
        <pt x="415" y="750" on="1"/>
        <pt x="511" y="750" on="0"/>
        <pt x="655" y="685" on="0"/>
        <pt x="752" y="577" on="0"/>
        <pt x="800" y="442" on="0"/>
        <pt x="800" y="371" on="1"/>
        <pt x="800" y="302" on="0"/>
        <pt x="755" y="170" on="0"/>
        <pt x="710" y="117" on="1"/>
        <pt x="809" y="0" on="1"/>
        <pt x="618" y="0" on="1"/>
        <pt x="594" y="28" on="1"/>
        <pt x="556" y="10" on="0"/>
        <pt x="467" y="-10" on="0"/>
      </contour>
      <contour>
        <pt x="415" y="161" on="1"/>
        <pt x="445" y="161" on="0"/>
        <pt x="472" y="169" on="1"/>
        <pt x="363" y="296" on="1"/>
        <pt x="481" y="390" on="1"/>
        <pt x="580" y="272" on="1"/>
        <pt x="600" y="318" on="0"/>
        <pt x="600" y="371" on="1"/>
        <pt x="600" y="423" on="0"/>
        <pt x="559" y="519" on="0"/>
        <pt x="477" y="580" on="0"/>
        <pt x="415" y="580" on="1"/>
        <pt x="354" y="580" on="0"/>
        <pt x="272" y="519" on="0"/>
        <pt x="231" y="423" on="0"/>
        <pt x="231" y="371" on="1"/>
        <pt x="231" y="319" on="0"/>
        <pt x="272" y="222" on="0"/>
        <pt x="354" y="161" on="0"/>
      </contour>
    </TTGlyph>
    <TTGlyph name="R" xMin="60" yMin="0" xMax="680" yMax="740">
      <contour>
        <pt x="60" y="0" on="1"/>
        <pt x="60" y="740" on="1"/>
        <pt x="386" y="740" on="1"/>
        <pt x="469" y="740" on="0"/>
        <pt x="595" y="686" on="0"/>
        <pt x="665" y="581" on="0"/>
        <pt x="665" y="504" on="1"/>
        <pt x="665" y="429" on="0"/>
        <pt x="596" y="324" on="0"/>
        <pt x="536" y="297" on="1"/>
        <pt x="680" y="0" on="1"/>
        <pt x="469" y="0" on="1"/>
        <pt x="344" y="268" on="1"/>
        <pt x="252" y="268" on="1"/>
        <pt x="252" y="0" on="1"/>
      </contour>
      <contour>
        <pt x="383" y="575" on="1"/>
        <pt x="252" y="575" on="1"/>
        <pt x="252" y="421" on="1"/>
        <pt x="383" y="421" on="1"/>
        <pt x="423" y="421" on="0"/>
        <pt x="473" y="461" on="0"/>
        <pt x="473" y="498" on="1"/>
        <pt x="473" y="536" on="0"/>
        <pt x="423" y="575" on="0"/>
      </contour>
    </TTGlyph>
    <TTGlyph name="Racute" xMin="60" yMin="0" xMax="680" yMax="989">
      <contour>
        <pt x="367" y="809" on="1"/>
        <pt x="234" y="810" on="1"/>
        <pt x="311" y="989" on="1"/>
        <pt x="481" y="989" on="1"/>
      </contour>
      <contour>
        <pt x="60" y="0" on="1"/>
        <pt x="60" y="740" on="1"/>
        <pt x="386" y="740" on="1"/>
        <pt x="469" y="740" on="0"/>
        <pt x="595" y="686" on="0"/>
        <pt x="665" y="581" on="0"/>
        <pt x="665" y="504" on="1"/>
        <pt x="665" y="429" on="0"/>
        <pt x="596" y="324" on="0"/>
        <pt x="536" y="297" on="1"/>
        <pt x="680" y="0" on="1"/>
        <pt x="469" y="0" on="1"/>
        <pt x="344" y="268" on="1"/>
        <pt x="252" y="268" on="1"/>
        <pt x="252" y="0" on="1"/>
      </contour>
      <contour>
        <pt x="383" y="575" on="1"/>
        <pt x="252" y="575" on="1"/>
        <pt x="252" y="421" on="1"/>
        <pt x="383" y="421" on="1"/>
        <pt x="423" y="421" on="0"/>
        <pt x="473" y="461" on="0"/>
        <pt x="473" y="498" on="1"/>
        <pt x="473" y="536" on="0"/>
        <pt x="423" y="575" on="0"/>
      </contour>
    </TTGlyph>
    <TTGlyph name="Rcaron" xMin="60" yMin="0" xMax="680" yMax="989">
      <contour>
        <pt x="225" y="800" on="1"/>
        <pt x="90" y="989" on="1"/>
        <pt x="231" y="989" on="1"/>
        <pt x="299" y="887" on="1"/>
        <pt x="366" y="989" on="1"/>
        <pt x="507" y="989" on="1"/>
        <pt x="372" y="800" on="1"/>
      </contour>
      <contour>
        <pt x="60" y="0" on="1"/>
        <pt x="60" y="740" on="1"/>
        <pt x="386" y="740" on="1"/>
        <pt x="469" y="740" on="0"/>
        <pt x="595" y="686" on="0"/>
        <pt x="665" y="581" on="0"/>
        <pt x="665" y="504" on="1"/>
        <pt x="665" y="429" on="0"/>
        <pt x="596" y="324" on="0"/>
        <pt x="536" y="297" on="1"/>
        <pt x="680" y="0" on="1"/>
        <pt x="469" y="0" on="1"/>
        <pt x="344" y="268" on="1"/>
        <pt x="252" y="268" on="1"/>
        <pt x="252" y="0" on="1"/>
      </contour>
      <contour>
        <pt x="383" y="575" on="1"/>
        <pt x="252" y="575" on="1"/>
        <pt x="252" y="421" on="1"/>
        <pt x="383" y="421" on="1"/>
        <pt x="423" y="421" on="0"/>
        <pt x="473" y="461" on="0"/>
        <pt x="473" y="498" on="1"/>
        <pt x="473" y="536" on="0"/>
        <pt x="423" y="575" on="0"/>
      </contour>
    </TTGlyph>
    <TTGlyph name="S" xMin="30" yMin="-10" xMax="661" yMax="750">
      <contour>
        <pt x="355" y="-10" on="1"/>
        <pt x="278" y="-10" on="0"/>
        <pt x="169" y="26" on="0"/>
        <pt x="98" y="82" on="0"/>
        <pt x="56" y="146" on="0"/>
        <pt x="36" y="202" on="0"/>
        <pt x="30" y="238" on="0"/>
        <pt x="30" y="238" on="1"/>
        <pt x="224" y="238" on="1"/>
        <pt x="224" y="238" on="0"/>
        <pt x="232" y="210" on="0"/>
        <pt x="259" y="173" on="0"/>
        <pt x="315" y="145" on="0"/>
        <pt x="363" y="145" on="1"/>
        <pt x="422" y="145" on="0"/>
        <pt x="469" y="190" on="0"/>
        <pt x="469" y="216" on="1"/>
        <pt x="469" y="240" on="0"/>
        <pt x="434" y="269" on="0"/>
        <pt x="391" y="276" on="1"/>
        <pt x="292" y="292" on="1"/>
        <pt x="228" y="303" on="0"/>
        <pt x="114" y="351" on="0"/>
        <pt x="43" y="441" on="0"/>
        <pt x="43" y="514" on="1"/>
        <pt x="43" y="584" on="0"/>
        <pt x="114" y="690" on="0"/>
        <pt x="246" y="750" on="0"/>
        <pt x="337" y="750" on="1"/>
        <pt x="408" y="750" on="0"/>
        <pt x="508" y="717" on="0"/>
        <pt x="574" y="664" on="0"/>
        <pt x="614" y="606" on="0"/>
        <pt x="634" y="553" on="0"/>
        <pt x="640" y="520" on="0"/>
        <pt x="640" y="520" on="1"/>
        <pt x="451" y="520" on="1"/>
        <pt x="451" y="520" on="0"/>
        <pt x="444" y="543" on="0"/>
        <pt x="420" y="572" on="0"/>
        <pt x="373" y="595" on="0"/>
        <pt x="333" y="595" on="1"/>
        <pt x="295" y="595" on="0"/>
        <pt x="250" y="573" on="0"/>
        <pt x="231" y="541" on="0"/>
        <pt x="231" y="525" on="1"/>
        <pt x="231" y="496" on="0"/>
        <pt x="286" y="469" on="0"/>
        <pt x="326" y="462" on="1"/>
        <pt x="430" y="445" on="1"/>
        <pt x="492" y="435" on="0"/>
        <pt x="597" y="384" on="0"/>
        <pt x="661" y="295" on="0"/>
        <pt x="661" y="228" on="1"/>
        <pt x="661" y="159" on="0"/>
        <pt x="589" y="51" on="0"/>
        <pt x="453" y="-10" on="0"/>
      </contour>
    </TTGlyph>
    <TTGlyph name="Sacute" xMin="30" yMin="-10" xMax="661" yMax="989">
      <contour>
        <pt x="412" y="809" on="1"/>
        <pt x="279" y="810" on="1"/>
        <pt x="356" y="989" on="1"/>
        <pt x="526" y="989" on="1"/>
      </contour>
      <contour>
        <pt x="355" y="-10" on="1"/>
        <pt x="278" y="-10" on="0"/>
        <pt x="169" y="26" on="0"/>
        <pt x="98" y="82" on="0"/>
        <pt x="56" y="146" on="0"/>
        <pt x="36" y="202" on="0"/>
        <pt x="30" y="238" on="0"/>
        <pt x="30" y="238" on="1"/>
        <pt x="224" y="238" on="1"/>
        <pt x="224" y="238" on="0"/>
        <pt x="232" y="210" on="0"/>
        <pt x="259" y="173" on="0"/>
        <pt x="315" y="145" on="0"/>
        <pt x="363" y="145" on="1"/>
        <pt x="422" y="145" on="0"/>
        <pt x="469" y="190" on="0"/>
        <pt x="469" y="216" on="1"/>
        <pt x="469" y="240" on="0"/>
        <pt x="434" y="269" on="0"/>
        <pt x="391" y="276" on="1"/>
        <pt x="292" y="292" on="1"/>
        <pt x="228" y="303" on="0"/>
        <pt x="114" y="351" on="0"/>
        <pt x="43" y="441" on="0"/>
        <pt x="43" y="514" on="1"/>
        <pt x="43" y="584" on="0"/>
        <pt x="114" y="690" on="0"/>
        <pt x="246" y="750" on="0"/>
        <pt x="337" y="750" on="1"/>
        <pt x="408" y="750" on="0"/>
        <pt x="508" y="717" on="0"/>
        <pt x="574" y="664" on="0"/>
        <pt x="614" y="606" on="0"/>
        <pt x="634" y="553" on="0"/>
        <pt x="640" y="520" on="0"/>
        <pt x="640" y="520" on="1"/>
        <pt x="451" y="520" on="1"/>
        <pt x="451" y="520" on="0"/>
        <pt x="444" y="543" on="0"/>
        <pt x="420" y="572" on="0"/>
        <pt x="373" y="595" on="0"/>
        <pt x="333" y="595" on="1"/>
        <pt x="295" y="595" on="0"/>
        <pt x="250" y="573" on="0"/>
        <pt x="231" y="541" on="0"/>
        <pt x="231" y="525" on="1"/>
        <pt x="231" y="496" on="0"/>
        <pt x="286" y="469" on="0"/>
        <pt x="326" y="462" on="1"/>
        <pt x="430" y="445" on="1"/>
        <pt x="492" y="435" on="0"/>
        <pt x="597" y="384" on="0"/>
        <pt x="661" y="295" on="0"/>
        <pt x="661" y="228" on="1"/>
        <pt x="661" y="159" on="0"/>
        <pt x="589" y="51" on="0"/>
        <pt x="453" y="-10" on="0"/>
      </contour>
    </TTGlyph>
    <TTGlyph name="Scaron" xMin="30" yMin="-10" xMax="661" yMax="989">
      <contour>
        <pt x="270" y="800" on="1"/>
        <pt x="135" y="989" on="1"/>
        <pt x="276" y="989" on="1"/>
        <pt x="344" y="887" on="1"/>
        <pt x="411" y="989" on="1"/>
        <pt x="552" y="989" on="1"/>
        <pt x="417" y="800" on="1"/>
      </contour>
      <contour>
        <pt x="355" y="-10" on="1"/>
        <pt x="278" y="-10" on="0"/>
        <pt x="169" y="26" on="0"/>
        <pt x="98" y="82" on="0"/>
        <pt x="56" y="146" on="0"/>
        <pt x="36" y="202" on="0"/>
        <pt x="30" y="238" on="0"/>
        <pt x="30" y="238" on="1"/>
        <pt x="224" y="238" on="1"/>
        <pt x="224" y="238" on="0"/>
        <pt x="232" y="210" on="0"/>
        <pt x="259" y="173" on="0"/>
        <pt x="315" y="145" on="0"/>
        <pt x="363" y="145" on="1"/>
        <pt x="422" y="145" on="0"/>
        <pt x="469" y="190" on="0"/>
        <pt x="469" y="216" on="1"/>
        <pt x="469" y="240" on="0"/>
        <pt x="434" y="269" on="0"/>
        <pt x="391" y="276" on="1"/>
        <pt x="292" y="292" on="1"/>
        <pt x="228" y="303" on="0"/>
        <pt x="114" y="351" on="0"/>
        <pt x="43" y="441" on="0"/>
        <pt x="43" y="514" on="1"/>
        <pt x="43" y="584" on="0"/>
        <pt x="114" y="690" on="0"/>
        <pt x="246" y="750" on="0"/>
        <pt x="337" y="750" on="1"/>
        <pt x="408" y="750" on="0"/>
        <pt x="508" y="717" on="0"/>
        <pt x="574" y="664" on="0"/>
        <pt x="614" y="606" on="0"/>
        <pt x="634" y="553" on="0"/>
        <pt x="640" y="520" on="0"/>
        <pt x="640" y="520" on="1"/>
        <pt x="451" y="520" on="1"/>
        <pt x="451" y="520" on="0"/>
        <pt x="444" y="543" on="0"/>
        <pt x="420" y="572" on="0"/>
        <pt x="373" y="595" on="0"/>
        <pt x="333" y="595" on="1"/>
        <pt x="295" y="595" on="0"/>
        <pt x="250" y="573" on="0"/>
        <pt x="231" y="541" on="0"/>
        <pt x="231" y="525" on="1"/>
        <pt x="231" y="496" on="0"/>
        <pt x="286" y="469" on="0"/>
        <pt x="326" y="462" on="1"/>
        <pt x="430" y="445" on="1"/>
        <pt x="492" y="435" on="0"/>
        <pt x="597" y="384" on="0"/>
        <pt x="661" y="295" on="0"/>
        <pt x="661" y="228" on="1"/>
        <pt x="661" y="159" on="0"/>
        <pt x="589" y="51" on="0"/>
        <pt x="453" y="-10" on="0"/>
      </contour>
    </TTGlyph>
    <TTGlyph name="Scedilla" xMin="30" yMin="-263" xMax="661" yMax="750">
      <contour>
        <pt x="319" y="-263" on="1"/>
        <pt x="299" y="-263" on="0"/>
        <pt x="257" y="-259" on="0"/>
        <pt x="230" y="-255" on="0"/>
        <pt x="230" y="-255" on="1"/>
        <pt x="230" y="-163" on="1"/>
        <pt x="230" y="-163" on="0"/>
        <pt x="256" y="-166" on="0"/>
        <pt x="293" y="-169" on="0"/>
        <pt x="309" y="-169" on="1"/>
        <pt x="353" y="-169" on="0"/>
        <pt x="381" y="-146" on="0"/>
        <pt x="381" y="-134" on="1"/>
        <pt x="381" y="-122" on="0"/>
        <pt x="362" y="-108" on="0"/>
        <pt x="346" y="-108" on="1"/>
        <pt x="325" y="-108" on="0"/>
        <pt x="292" y="-127" on="0"/>
        <pt x="292" y="-127" on="1"/>
        <pt x="228" y="-62" on="1"/>
        <pt x="271" y="-3" on="1"/>
        <pt x="203" y="9" on="0"/>
        <pt x="114" y="65" on="0"/>
        <pt x="62" y="133" on="0"/>
        <pt x="37" y="197" on="0"/>
        <pt x="30" y="238" on="0"/>
        <pt x="30" y="238" on="1"/>
        <pt x="224" y="238" on="1"/>
        <pt x="224" y="238" on="0"/>
        <pt x="232" y="210" on="0"/>
        <pt x="259" y="173" on="0"/>
        <pt x="315" y="145" on="0"/>
        <pt x="363" y="145" on="1"/>
        <pt x="422" y="145" on="0"/>
        <pt x="469" y="190" on="0"/>
        <pt x="469" y="216" on="1"/>
        <pt x="469" y="240" on="0"/>
        <pt x="434" y="269" on="0"/>
        <pt x="391" y="276" on="1"/>
        <pt x="292" y="292" on="1"/>
        <pt x="228" y="303" on="0"/>
        <pt x="114" y="351" on="0"/>
        <pt x="43" y="441" on="0"/>
        <pt x="43" y="514" on="1"/>
        <pt x="43" y="584" on="0"/>
        <pt x="114" y="690" on="0"/>
        <pt x="246" y="750" on="0"/>
        <pt x="337" y="750" on="1"/>
        <pt x="408" y="750" on="0"/>
        <pt x="508" y="717" on="0"/>
        <pt x="574" y="664" on="0"/>
        <pt x="614" y="606" on="0"/>
        <pt x="634" y="553" on="0"/>
        <pt x="640" y="520" on="0"/>
        <pt x="640" y="520" on="1"/>
        <pt x="451" y="520" on="1"/>
        <pt x="451" y="520" on="0"/>
        <pt x="444" y="543" on="0"/>
        <pt x="420" y="572" on="0"/>
        <pt x="373" y="595" on="0"/>
        <pt x="333" y="595" on="1"/>
        <pt x="295" y="595" on="0"/>
        <pt x="250" y="573" on="0"/>
        <pt x="231" y="541" on="0"/>
        <pt x="231" y="525" on="1"/>
        <pt x="231" y="496" on="0"/>
        <pt x="286" y="469" on="0"/>
        <pt x="326" y="462" on="1"/>
        <pt x="430" y="445" on="1"/>
        <pt x="492" y="435" on="0"/>
        <pt x="597" y="384" on="0"/>
        <pt x="661" y="295" on="0"/>
        <pt x="661" y="228" on="1"/>
        <pt x="661" y="162" on="0"/>
        <pt x="595" y="58" on="0"/>
        <pt x="470" y="-5" on="0"/>
        <pt x="380" y="-9" on="1"/>
        <pt x="366" y="-29" on="1"/>
        <pt x="373" y="-28" on="0"/>
        <pt x="382" y="-28" on="1"/>
        <pt x="432" y="-28" on="0"/>
        <pt x="492" y="-90" on="0"/>
        <pt x="492" y="-136" on="1"/>
        <pt x="492" y="-186" on="0"/>
        <pt x="408" y="-263" on="0"/>
      </contour>
    </TTGlyph>
    <TTGlyph name="T" xMin="35" yMin="0" xMax="675" yMax="740">
      <contour>
        <pt x="259" y="0" on="1"/>
        <pt x="259" y="574" on="1"/>
        <pt x="35" y="574" on="1"/>
        <pt x="35" y="740" on="1"/>
        <pt x="675" y="740" on="1"/>
        <pt x="675" y="574" on="1"/>
        <pt x="451" y="574" on="1"/>
        <pt x="451" y="0" on="1"/>
      </contour>
    </TTGlyph>
    <TTGlyph name="Tbar" xMin="35" yMin="0" xMax="675" yMax="740">
      <contour>
        <pt x="259" y="0" on="1"/>
        <pt x="259" y="313" on="1"/>
        <pt x="74" y="313" on="1"/>
        <pt x="74" y="428" on="1"/>
        <pt x="259" y="428" on="1"/>
        <pt x="259" y="574" on="1"/>
        <pt x="35" y="574" on="1"/>
        <pt x="35" y="740" on="1"/>
        <pt x="675" y="740" on="1"/>
        <pt x="675" y="574" on="1"/>
        <pt x="451" y="574" on="1"/>
        <pt x="451" y="428" on="1"/>
        <pt x="636" y="428" on="1"/>
        <pt x="636" y="313" on="1"/>
        <pt x="451" y="313" on="1"/>
        <pt x="451" y="0" on="1"/>
      </contour>
    </TTGlyph>
    <TTGlyph name="Tcaron" xMin="35" yMin="0" xMax="675" yMax="989">
      <contour>
        <pt x="281" y="800" on="1"/>
        <pt x="146" y="989" on="1"/>
        <pt x="287" y="989" on="1"/>
        <pt x="355" y="887" on="1"/>
        <pt x="422" y="989" on="1"/>
        <pt x="563" y="989" on="1"/>
        <pt x="428" y="800" on="1"/>
      </contour>
      <contour>
        <pt x="259" y="0" on="1"/>
        <pt x="259" y="574" on="1"/>
        <pt x="35" y="574" on="1"/>
        <pt x="35" y="740" on="1"/>
        <pt x="675" y="740" on="1"/>
        <pt x="675" y="574" on="1"/>
        <pt x="451" y="574" on="1"/>
        <pt x="451" y="0" on="1"/>
      </contour>
    </TTGlyph>
    <TTGlyph name="Thorn" xMin="60" yMin="0" xMax="677" yMax="740">
      <contour>
        <pt x="60" y="0" on="1"/>
        <pt x="60" y="740" on="1"/>
        <pt x="252" y="740" on="1"/>
        <pt x="252" y="620" on="1"/>
        <pt x="393" y="620" on="1"/>
        <pt x="488" y="620" on="0"/>
        <pt x="614" y="547" on="0"/>
        <pt x="677" y="433" on="0"/>
        <pt x="677" y="370" on="1"/>
        <pt x="677" y="307" on="0"/>
        <pt x="614" y="192" on="0"/>
        <pt x="488" y="119" on="0"/>
        <pt x="393" y="119" on="1"/>
        <pt x="252" y="119" on="1"/>
        <pt x="252" y="0" on="1"/>
      </contour>
      <contour>
        <pt x="392" y="453" on="1"/>
        <pt x="252" y="453" on="1"/>
        <pt x="252" y="285" on="1"/>
        <pt x="392" y="285" on="1"/>
        <pt x="438" y="285" on="0"/>
        <pt x="483" y="338" on="0"/>
        <pt x="483" y="369" on="1"/>
        <pt x="483" y="401" on="0"/>
        <pt x="438" y="453" on="0"/>
      </contour>
    </TTGlyph>
    <TTGlyph name="U" xMin="60" yMin="-10" xMax="686" yMax="740">
      <contour>
        <pt x="373" y="-10" on="1"/>
        <pt x="316" y="-10" on="0"/>
        <pt x="204" y="22" on="0"/>
        <pt x="114" y="94" on="0"/>
        <pt x="60" y="213" on="0"/>
        <pt x="60" y="300" on="1"/>
        <pt x="60" y="740" on="1"/>
        <pt x="252" y="740" on="1"/>
        <pt x="252" y="300" on="1"/>
        <pt x="252" y="246" on="0"/>
        <pt x="310" y="170" on="0"/>
        <pt x="373" y="170" on="1"/>
        <pt x="436" y="170" on="0"/>
        <pt x="494" y="246" on="0"/>
        <pt x="494" y="300" on="1"/>
        <pt x="494" y="740" on="1"/>
        <pt x="686" y="740" on="1"/>
        <pt x="686" y="300" on="1"/>
        <pt x="686" y="213" on="0"/>
        <pt x="632" y="94" on="0"/>
        <pt x="542" y="22" on="0"/>
        <pt x="430" y="-10" on="0"/>
      </contour>
    </TTGlyph>
    <TTGlyph name="Uacute" xMin="60" yMin="-10" xMax="686" yMax="989">
      <contour>
        <pt x="441" y="809" on="1"/>
        <pt x="308" y="810" on="1"/>
        <pt x="385" y="989" on="1"/>
        <pt x="555" y="989" on="1"/>
      </contour>
      <contour>
        <pt x="373" y="-10" on="1"/>
        <pt x="316" y="-10" on="0"/>
        <pt x="204" y="22" on="0"/>
        <pt x="114" y="94" on="0"/>
        <pt x="60" y="213" on="0"/>
        <pt x="60" y="300" on="1"/>
        <pt x="60" y="740" on="1"/>
        <pt x="252" y="740" on="1"/>
        <pt x="252" y="300" on="1"/>
        <pt x="252" y="246" on="0"/>
        <pt x="310" y="170" on="0"/>
        <pt x="373" y="170" on="1"/>
        <pt x="436" y="170" on="0"/>
        <pt x="494" y="246" on="0"/>
        <pt x="494" y="300" on="1"/>
        <pt x="494" y="740" on="1"/>
        <pt x="686" y="740" on="1"/>
        <pt x="686" y="300" on="1"/>
        <pt x="686" y="213" on="0"/>
        <pt x="632" y="94" on="0"/>
        <pt x="542" y="22" on="0"/>
        <pt x="430" y="-10" on="0"/>
      </contour>
    </TTGlyph>
    <TTGlyph name="Ucircumflex" xMin="60" yMin="-10" xMax="686" yMax="988">
      <contour>
        <pt x="165" y="799" on="1"/>
        <pt x="300" y="988" on="1"/>
        <pt x="447" y="988" on="1"/>
        <pt x="582" y="799" on="1"/>
        <pt x="441" y="799" on="1"/>
        <pt x="374" y="901" on="1"/>
        <pt x="306" y="799" on="1"/>
      </contour>
      <contour>
        <pt x="373" y="-10" on="1"/>
        <pt x="316" y="-10" on="0"/>
        <pt x="204" y="22" on="0"/>
        <pt x="114" y="94" on="0"/>
        <pt x="60" y="213" on="0"/>
        <pt x="60" y="300" on="1"/>
        <pt x="60" y="740" on="1"/>
        <pt x="252" y="740" on="1"/>
        <pt x="252" y="300" on="1"/>
        <pt x="252" y="246" on="0"/>
        <pt x="310" y="170" on="0"/>
        <pt x="373" y="170" on="1"/>
        <pt x="436" y="170" on="0"/>
        <pt x="494" y="246" on="0"/>
        <pt x="494" y="300" on="1"/>
        <pt x="494" y="740" on="1"/>
        <pt x="686" y="740" on="1"/>
        <pt x="686" y="300" on="1"/>
        <pt x="686" y="213" on="0"/>
        <pt x="632" y="94" on="0"/>
        <pt x="542" y="22" on="0"/>
        <pt x="430" y="-10" on="0"/>
      </contour>
    </TTGlyph>
    <TTGlyph name="Udieresis" xMin="60" yMin="-10" xMax="686" yMax="983">
      <contour>
        <pt x="498" y="788" on="1"/>
        <pt x="453" y="788" on="0"/>
        <pt x="396" y="845" on="0"/>
        <pt x="396" y="885" on="1"/>
        <pt x="396" y="926" on="0"/>
        <pt x="453" y="983" on="0"/>
        <pt x="498" y="983" on="1"/>
        <pt x="542" y="983" on="0"/>
        <pt x="600" y="926" on="0"/>
        <pt x="600" y="885" on="1"/>
        <pt x="600" y="845" on="0"/>
        <pt x="542" y="788" on="0"/>
      </contour>
      <contour>
        <pt x="247" y="788" on="1"/>
        <pt x="202" y="788" on="0"/>
        <pt x="145" y="845" on="0"/>
        <pt x="145" y="885" on="1"/>
        <pt x="145" y="926" on="0"/>
        <pt x="202" y="983" on="0"/>
        <pt x="247" y="983" on="1"/>
        <pt x="291" y="983" on="0"/>
        <pt x="349" y="926" on="0"/>
        <pt x="349" y="885" on="1"/>
        <pt x="349" y="845" on="0"/>
        <pt x="291" y="788" on="0"/>
      </contour>
      <contour>
        <pt x="373" y="-10" on="1"/>
        <pt x="316" y="-10" on="0"/>
        <pt x="204" y="22" on="0"/>
        <pt x="114" y="94" on="0"/>
        <pt x="60" y="213" on="0"/>
        <pt x="60" y="300" on="1"/>
        <pt x="60" y="740" on="1"/>
        <pt x="252" y="740" on="1"/>
        <pt x="252" y="300" on="1"/>
        <pt x="252" y="246" on="0"/>
        <pt x="310" y="170" on="0"/>
        <pt x="373" y="170" on="1"/>
        <pt x="436" y="170" on="0"/>
        <pt x="494" y="246" on="0"/>
        <pt x="494" y="300" on="1"/>
        <pt x="494" y="740" on="1"/>
        <pt x="686" y="740" on="1"/>
        <pt x="686" y="300" on="1"/>
        <pt x="686" y="213" on="0"/>
        <pt x="632" y="94" on="0"/>
        <pt x="542" y="22" on="0"/>
        <pt x="430" y="-10" on="0"/>
      </contour>
    </TTGlyph>
    <TTGlyph name="Ugrave" xMin="60" yMin="-10" xMax="686" yMax="989">
      <contour>
        <pt x="308" y="809" on="1"/>
        <pt x="194" y="989" on="1"/>
        <pt x="364" y="989" on="1"/>
        <pt x="441" y="810" on="1"/>
      </contour>
      <contour>
        <pt x="373" y="-10" on="1"/>
        <pt x="316" y="-10" on="0"/>
        <pt x="204" y="22" on="0"/>
        <pt x="114" y="94" on="0"/>
        <pt x="60" y="213" on="0"/>
        <pt x="60" y="300" on="1"/>
        <pt x="60" y="740" on="1"/>
        <pt x="252" y="740" on="1"/>
        <pt x="252" y="300" on="1"/>
        <pt x="252" y="246" on="0"/>
        <pt x="310" y="170" on="0"/>
        <pt x="373" y="170" on="1"/>
        <pt x="436" y="170" on="0"/>
        <pt x="494" y="246" on="0"/>
        <pt x="494" y="300" on="1"/>
        <pt x="494" y="740" on="1"/>
        <pt x="686" y="740" on="1"/>
        <pt x="686" y="300" on="1"/>
        <pt x="686" y="213" on="0"/>
        <pt x="632" y="94" on="0"/>
        <pt x="542" y="22" on="0"/>
        <pt x="430" y="-10" on="0"/>
      </contour>
    </TTGlyph>
    <TTGlyph name="Uhorn" xMin="60" yMin="-10" xMax="802" yMax="858">
      <contour>
        <pt x="373" y="-10" on="1"/>
        <pt x="316" y="-10" on="0"/>
        <pt x="204" y="22" on="0"/>
        <pt x="114" y="94" on="0"/>
        <pt x="60" y="213" on="0"/>
        <pt x="60" y="300" on="1"/>
        <pt x="60" y="740" on="1"/>
        <pt x="252" y="740" on="1"/>
        <pt x="252" y="300" on="1"/>
        <pt x="252" y="246" on="0"/>
        <pt x="310" y="170" on="0"/>
        <pt x="373" y="170" on="1"/>
        <pt x="436" y="170" on="0"/>
        <pt x="494" y="246" on="0"/>
        <pt x="494" y="300" on="1"/>
        <pt x="494" y="740" on="1"/>
        <pt x="615" y="740" on="1"/>
        <pt x="655" y="740" on="0"/>
        <pt x="655" y="780" on="1"/>
        <pt x="655" y="858" on="1"/>
        <pt x="802" y="858" on="1"/>
        <pt x="802" y="771" on="1"/>
        <pt x="802" y="713" on="0"/>
        <pt x="742" y="652" on="0"/>
        <pt x="686" y="652" on="1"/>
        <pt x="686" y="300" on="1"/>
        <pt x="686" y="213" on="0"/>
        <pt x="632" y="94" on="0"/>
        <pt x="542" y="22" on="0"/>
        <pt x="430" y="-10" on="0"/>
      </contour>
    </TTGlyph>
    <TTGlyph name="Uhungarumlaut" xMin="60" yMin="-10" xMax="686" yMax="989">
      <contour>
        <pt x="332" y="809" on="1"/>
        <pt x="209" y="810" on="1"/>
        <pt x="256" y="989" on="1"/>
        <pt x="416" y="989" on="1"/>
      </contour>
      <contour>
        <pt x="533" y="809" on="1"/>
        <pt x="410" y="810" on="1"/>
        <pt x="457" y="989" on="1"/>
        <pt x="617" y="989" on="1"/>
      </contour>
      <contour>
        <pt x="373" y="-10" on="1"/>
        <pt x="316" y="-10" on="0"/>
        <pt x="204" y="22" on="0"/>
        <pt x="114" y="94" on="0"/>
        <pt x="60" y="213" on="0"/>
        <pt x="60" y="300" on="1"/>
        <pt x="60" y="740" on="1"/>
        <pt x="252" y="740" on="1"/>
        <pt x="252" y="300" on="1"/>
        <pt x="252" y="246" on="0"/>
        <pt x="310" y="170" on="0"/>
        <pt x="373" y="170" on="1"/>
        <pt x="436" y="170" on="0"/>
        <pt x="494" y="246" on="0"/>
        <pt x="494" y="300" on="1"/>
        <pt x="494" y="740" on="1"/>
        <pt x="686" y="740" on="1"/>
        <pt x="686" y="300" on="1"/>
        <pt x="686" y="213" on="0"/>
        <pt x="632" y="94" on="0"/>
        <pt x="542" y="22" on="0"/>
        <pt x="430" y="-10" on="0"/>
      </contour>
    </TTGlyph>
    <TTGlyph name="Umacron" xMin="60" yMin="-10" xMax="686" yMax="920">
      <contour>
        <pt x="203" y="818" on="1"/>
        <pt x="203" y="920" on="1"/>
        <pt x="543" y="920" on="1"/>
        <pt x="543" y="818" on="1"/>
      </contour>
      <contour>
        <pt x="373" y="-10" on="1"/>
        <pt x="316" y="-10" on="0"/>
        <pt x="204" y="22" on="0"/>
        <pt x="114" y="94" on="0"/>
        <pt x="60" y="213" on="0"/>
        <pt x="60" y="300" on="1"/>
        <pt x="60" y="740" on="1"/>
        <pt x="252" y="740" on="1"/>
        <pt x="252" y="300" on="1"/>
        <pt x="252" y="246" on="0"/>
        <pt x="310" y="170" on="0"/>
        <pt x="373" y="170" on="1"/>
        <pt x="436" y="170" on="0"/>
        <pt x="494" y="246" on="0"/>
        <pt x="494" y="300" on="1"/>
        <pt x="494" y="740" on="1"/>
        <pt x="686" y="740" on="1"/>
        <pt x="686" y="300" on="1"/>
        <pt x="686" y="213" on="0"/>
        <pt x="632" y="94" on="0"/>
        <pt x="542" y="22" on="0"/>
        <pt x="430" y="-10" on="0"/>
      </contour>
    </TTGlyph>
    <TTGlyph name="Uogonek" xMin="60" yMin="-198" xMax="686" yMax="740">
      <contour>
        <pt x="417" y="-198" on="1"/>
        <pt x="335" y="-198" on="0"/>
        <pt x="263" y="-134" on="0"/>
        <pt x="263" y="-91" on="1"/>
        <pt x="263" y="-60" on="0"/>
        <pt x="291" y="-19" on="0"/>
        <pt x="310" y="-5" on="1"/>
        <pt x="245" y="4" on="0"/>
        <pt x="130" y="72" on="0"/>
        <pt x="60" y="200" on="0"/>
        <pt x="60" y="300" on="1"/>
        <pt x="60" y="740" on="1"/>
        <pt x="252" y="740" on="1"/>
        <pt x="252" y="300" on="1"/>
        <pt x="252" y="246" on="0"/>
        <pt x="310" y="170" on="0"/>
        <pt x="373" y="170" on="1"/>
        <pt x="436" y="170" on="0"/>
        <pt x="494" y="246" on="0"/>
        <pt x="494" y="300" on="1"/>
        <pt x="494" y="740" on="1"/>
        <pt x="686" y="740" on="1"/>
        <pt x="686" y="300" on="1"/>
        <pt x="686" y="201" on="0"/>
        <pt x="618" y="75" on="0"/>
        <pt x="506" y="6" on="0"/>
        <pt x="442" y="-4" on="1"/>
        <pt x="438" y="-6" on="0"/>
        <pt x="415" y="-19" on="0"/>
        <pt x="394" y="-43" on="0"/>
        <pt x="394" y="-59" on="1"/>
        <pt x="394" y="-72" on="0"/>
        <pt x="418" y="-94" on="0"/>
        <pt x="446" y="-94" on="1"/>
        <pt x="458" y="-94" on="0"/>
        <pt x="478" y="-91" on="0"/>
        <pt x="478" y="-91" on="1"/>
        <pt x="478" y="-193" on="1"/>
        <pt x="478" y="-193" on="0"/>
        <pt x="443" y="-198" on="0"/>
      </contour>
    </TTGlyph>
    <TTGlyph name="Uring" xMin="60" yMin="-10" xMax="686" yMax="1069">
      <contour>
        <pt x="373" y="788" on="1"/>
        <pt x="334" y="788" on="0"/>
        <pt x="270" y="826" on="0"/>
        <pt x="232" y="890" on="0"/>
        <pt x="232" y="929" on="1"/>
        <pt x="232" y="968" on="0"/>
        <pt x="270" y="1031" on="0"/>
        <pt x="334" y="1069" on="0"/>
        <pt x="373" y="1069" on="1"/>
        <pt x="412" y="1069" on="0"/>
        <pt x="476" y="1031" on="0"/>
        <pt x="514" y="968" on="0"/>
        <pt x="514" y="929" on="1"/>
        <pt x="514" y="890" on="0"/>
        <pt x="476" y="826" on="0"/>
        <pt x="412" y="788" on="0"/>
      </contour>
      <contour>
        <pt x="373" y="878" on="1"/>
        <pt x="394" y="878" on="0"/>
        <pt x="424" y="907" on="0"/>
        <pt x="424" y="929" on="1"/>
        <pt x="424" y="950" on="0"/>
        <pt x="394" y="979" on="0"/>
        <pt x="373" y="979" on="1"/>
        <pt x="352" y="979" on="0"/>
        <pt x="322" y="950" on="0"/>
        <pt x="322" y="929" on="1"/>
        <pt x="322" y="907" on="0"/>
        <pt x="352" y="878" on="0"/>
      </contour>
      <contour>
        <pt x="373" y="-10" on="1"/>
        <pt x="316" y="-10" on="0"/>
        <pt x="204" y="22" on="0"/>
        <pt x="114" y="94" on="0"/>
        <pt x="60" y="213" on="0"/>
        <pt x="60" y="300" on="1"/>
        <pt x="60" y="740" on="1"/>
        <pt x="252" y="740" on="1"/>
        <pt x="252" y="300" on="1"/>
        <pt x="252" y="246" on="0"/>
        <pt x="310" y="170" on="0"/>
        <pt x="373" y="170" on="1"/>
        <pt x="436" y="170" on="0"/>
        <pt x="494" y="246" on="0"/>
        <pt x="494" y="300" on="1"/>
        <pt x="494" y="740" on="1"/>
        <pt x="686" y="740" on="1"/>
        <pt x="686" y="300" on="1"/>
        <pt x="686" y="213" on="0"/>
        <pt x="632" y="94" on="0"/>
        <pt x="542" y="22" on="0"/>
        <pt x="430" y="-10" on="0"/>
      </contour>
    </TTGlyph>
    <TTGlyph name="Utilde" xMin="60" yMin="-10" xMax="686" yMax="987">
      <contour>
        <pt x="451" y="822" on="1"/>
        <pt x="424" y="822" on="0"/>
        <pt x="384" y="840" on="0"/>
        <pt x="353" y="863" on="0"/>
        <pt x="327" y="881" on="0"/>
        <pt x="313" y="881" on="1"/>
        <pt x="298" y="881" on="0"/>
        <pt x="287" y="854" on="0"/>
        <pt x="287" y="828" on="1"/>
        <pt x="194" y="828" on="1"/>
        <pt x="194" y="863" on="0"/>
        <pt x="210" y="936" on="0"/>
        <pt x="257" y="987" on="0"/>
        <pt x="302" y="987" on="1"/>
        <pt x="339" y="987" on="0"/>
        <pt x="388" y="958" on="0"/>
        <pt x="424" y="928" on="0"/>
        <pt x="441" y="928" on="1"/>
        <pt x="455" y="928" on="0"/>
        <pt x="466" y="956" on="0"/>
        <pt x="466" y="981" on="1"/>
        <pt x="559" y="981" on="1"/>
        <pt x="559" y="947" on="0"/>
        <pt x="543" y="873" on="0"/>
        <pt x="497" y="822" on="0"/>
      </contour>
      <contour>
        <pt x="373" y="-10" on="1"/>
        <pt x="316" y="-10" on="0"/>
        <pt x="204" y="22" on="0"/>
        <pt x="114" y="94" on="0"/>
        <pt x="60" y="213" on="0"/>
        <pt x="60" y="300" on="1"/>
        <pt x="60" y="740" on="1"/>
        <pt x="252" y="740" on="1"/>
        <pt x="252" y="300" on="1"/>
        <pt x="252" y="246" on="0"/>
        <pt x="310" y="170" on="0"/>
        <pt x="373" y="170" on="1"/>
        <pt x="436" y="170" on="0"/>
        <pt x="494" y="246" on="0"/>
        <pt x="494" y="300" on="1"/>
        <pt x="494" y="740" on="1"/>
        <pt x="686" y="740" on="1"/>
        <pt x="686" y="300" on="1"/>
        <pt x="686" y="213" on="0"/>
        <pt x="632" y="94" on="0"/>
        <pt x="542" y="22" on="0"/>
        <pt x="430" y="-10" on="0"/>
      </contour>
    </TTGlyph>
    <TTGlyph name="V" xMin="10" yMin="0" xMax="761" yMax="740">
      <contour>
        <pt x="256" y="0" on="1"/>
        <pt x="10" y="740" on="1"/>
        <pt x="210" y="740" on="1"/>
        <pt x="386" y="178" on="1"/>
        <pt x="561" y="740" on="1"/>
        <pt x="761" y="740" on="1"/>
        <pt x="515" y="0" on="1"/>
      </contour>
    </TTGlyph>
    <TTGlyph name="W" xMin="20" yMin="0" xMax="1071" yMax="740">
      <contour>
        <pt x="196" y="0" on="1"/>
        <pt x="20" y="740" on="1"/>
        <pt x="210" y="740" on="1"/>
        <pt x="326" y="243" on="1"/>
        <pt x="446" y="740" on="1"/>
        <pt x="645" y="740" on="1"/>
        <pt x="765" y="243" on="1"/>
        <pt x="881" y="740" on="1"/>
        <pt x="1071" y="740" on="1"/>
        <pt x="895" y="0" on="1"/>
        <pt x="642" y="0" on="1"/>
        <pt x="546" y="406" on="1"/>
        <pt x="449" y="0" on="1"/>
      </contour>
    </TTGlyph>
    <TTGlyph name="Wacute" xMin="10" yMin="0" xMax="1061" yMax="989">
      <contour>
        <pt x="604" y="809" on="1"/>
        <pt x="471" y="810" on="1"/>
        <pt x="548" y="989" on="1"/>
        <pt x="718" y="989" on="1"/>
      </contour>
      <contour>
        <pt x="186" y="0" on="1"/>
        <pt x="10" y="740" on="1"/>
        <pt x="200" y="740" on="1"/>
        <pt x="316" y="243" on="1"/>
        <pt x="436" y="740" on="1"/>
        <pt x="635" y="740" on="1"/>
        <pt x="755" y="243" on="1"/>
        <pt x="871" y="740" on="1"/>
        <pt x="1061" y="740" on="1"/>
        <pt x="885" y="0" on="1"/>
        <pt x="632" y="0" on="1"/>
        <pt x="536" y="406" on="1"/>
        <pt x="439" y="0" on="1"/>
      </contour>
    </TTGlyph>
    <TTGlyph name="Wcircumflex" xMin="10" yMin="0" xMax="1061" yMax="988">
      <contour>
        <pt x="328" y="799" on="1"/>
        <pt x="463" y="988" on="1"/>
        <pt x="610" y="988" on="1"/>
        <pt x="745" y="799" on="1"/>
        <pt x="604" y="799" on="1"/>
        <pt x="537" y="901" on="1"/>
        <pt x="469" y="799" on="1"/>
      </contour>
      <contour>
        <pt x="186" y="0" on="1"/>
        <pt x="10" y="740" on="1"/>
        <pt x="200" y="740" on="1"/>
        <pt x="316" y="243" on="1"/>
        <pt x="436" y="740" on="1"/>
        <pt x="635" y="740" on="1"/>
        <pt x="755" y="243" on="1"/>
        <pt x="871" y="740" on="1"/>
        <pt x="1061" y="740" on="1"/>
        <pt x="885" y="0" on="1"/>
        <pt x="632" y="0" on="1"/>
        <pt x="536" y="406" on="1"/>
        <pt x="439" y="0" on="1"/>
      </contour>
    </TTGlyph>
    <TTGlyph name="Wdieresis" xMin="10" yMin="0" xMax="1061" yMax="983">
      <contour>
        <pt x="661" y="788" on="1"/>
        <pt x="616" y="788" on="0"/>
        <pt x="559" y="845" on="0"/>
        <pt x="559" y="885" on="1"/>
        <pt x="559" y="926" on="0"/>
        <pt x="616" y="983" on="0"/>
        <pt x="661" y="983" on="1"/>
        <pt x="705" y="983" on="0"/>
        <pt x="763" y="926" on="0"/>
        <pt x="763" y="885" on="1"/>
        <pt x="763" y="845" on="0"/>
        <pt x="705" y="788" on="0"/>
      </contour>
      <contour>
        <pt x="410" y="788" on="1"/>
        <pt x="365" y="788" on="0"/>
        <pt x="308" y="845" on="0"/>
        <pt x="308" y="885" on="1"/>
        <pt x="308" y="926" on="0"/>
        <pt x="365" y="983" on="0"/>
        <pt x="410" y="983" on="1"/>
        <pt x="454" y="983" on="0"/>
        <pt x="512" y="926" on="0"/>
        <pt x="512" y="885" on="1"/>
        <pt x="512" y="845" on="0"/>
        <pt x="454" y="788" on="0"/>
      </contour>
      <contour>
        <pt x="186" y="0" on="1"/>
        <pt x="10" y="740" on="1"/>
        <pt x="200" y="740" on="1"/>
        <pt x="316" y="243" on="1"/>
        <pt x="436" y="740" on="1"/>
        <pt x="635" y="740" on="1"/>
        <pt x="755" y="243" on="1"/>
        <pt x="871" y="740" on="1"/>
        <pt x="1061" y="740" on="1"/>
        <pt x="885" y="0" on="1"/>
        <pt x="632" y="0" on="1"/>
        <pt x="536" y="406" on="1"/>
        <pt x="439" y="0" on="1"/>
      </contour>
    </TTGlyph>
    <TTGlyph name="Wgrave" xMin="10" yMin="0" xMax="1061" yMax="989">
      <contour>
        <pt x="471" y="809" on="1"/>
        <pt x="357" y="989" on="1"/>
        <pt x="527" y="989" on="1"/>
        <pt x="604" y="810" on="1"/>
      </contour>
      <contour>
        <pt x="186" y="0" on="1"/>
        <pt x="10" y="740" on="1"/>
        <pt x="200" y="740" on="1"/>
        <pt x="316" y="243" on="1"/>
        <pt x="436" y="740" on="1"/>
        <pt x="635" y="740" on="1"/>
        <pt x="755" y="243" on="1"/>
        <pt x="871" y="740" on="1"/>
        <pt x="1061" y="740" on="1"/>
        <pt x="885" y="0" on="1"/>
        <pt x="632" y="0" on="1"/>
        <pt x="536" y="406" on="1"/>
        <pt x="439" y="0" on="1"/>
      </contour>
    </TTGlyph>
    <TTGlyph name="X" xMin="45" yMin="0" xMax="757" yMax="740">
      <contour>
        <pt x="45" y="0" on="1"/>
        <pt x="267" y="370" on="1"/>
        <pt x="46" y="740" on="1"/>
        <pt x="274" y="740" on="1"/>
        <pt x="400" y="511" on="1"/>
        <pt x="528" y="740" on="1"/>
        <pt x="756" y="740" on="1"/>
        <pt x="531" y="370" on="1"/>
        <pt x="757" y="0" on="1"/>
        <pt x="528" y="0" on="1"/>
        <pt x="400" y="230" on="1"/>
        <pt x="274" y="0" on="1"/>
      </contour>
    </TTGlyph>
    <TTGlyph name="Y" xMin="20" yMin="0" xMax="734" yMax="740">
      <contour>
        <pt x="281" y="0" on="1"/>
        <pt x="281" y="247" on="1"/>
        <pt x="20" y="740" on="1"/>
        <pt x="230" y="740" on="1"/>
        <pt x="377" y="444" on="1"/>
        <pt x="523" y="740" on="1"/>
        <pt x="734" y="740" on="1"/>
        <pt x="473" y="247" on="1"/>
        <pt x="473" y="0" on="1"/>
      </contour>
    </TTGlyph>
    <TTGlyph name="Yacute" xMin="20" yMin="0" xMax="734" yMax="989">
      <contour>
        <pt x="445" y="809" on="1"/>
        <pt x="312" y="810" on="1"/>
        <pt x="389" y="989" on="1"/>
        <pt x="559" y="989" on="1"/>
      </contour>
      <contour>
        <pt x="281" y="0" on="1"/>
        <pt x="281" y="247" on="1"/>
        <pt x="20" y="740" on="1"/>
        <pt x="230" y="740" on="1"/>
        <pt x="377" y="444" on="1"/>
        <pt x="523" y="740" on="1"/>
        <pt x="734" y="740" on="1"/>
        <pt x="473" y="247" on="1"/>
        <pt x="473" y="0" on="1"/>
      </contour>
    </TTGlyph>
    <TTGlyph name="Ycircumflex" xMin="20" yMin="0" xMax="734" yMax="988">
      <contour>
        <pt x="169" y="799" on="1"/>
        <pt x="304" y="988" on="1"/>
        <pt x="451" y="988" on="1"/>
        <pt x="586" y="799" on="1"/>
        <pt x="445" y="799" on="1"/>
        <pt x="378" y="901" on="1"/>
        <pt x="310" y="799" on="1"/>
      </contour>
      <contour>
        <pt x="281" y="0" on="1"/>
        <pt x="281" y="247" on="1"/>
        <pt x="20" y="740" on="1"/>
        <pt x="230" y="740" on="1"/>
        <pt x="377" y="444" on="1"/>
        <pt x="523" y="740" on="1"/>
        <pt x="734" y="740" on="1"/>
        <pt x="473" y="247" on="1"/>
        <pt x="473" y="0" on="1"/>
      </contour>
    </TTGlyph>
    <TTGlyph name="Ydieresis" xMin="20" yMin="0" xMax="734" yMax="983">
      <contour>
        <pt x="502" y="788" on="1"/>
        <pt x="457" y="788" on="0"/>
        <pt x="400" y="845" on="0"/>
        <pt x="400" y="885" on="1"/>
        <pt x="400" y="926" on="0"/>
        <pt x="457" y="983" on="0"/>
        <pt x="502" y="983" on="1"/>
        <pt x="546" y="983" on="0"/>
        <pt x="604" y="926" on="0"/>
        <pt x="604" y="885" on="1"/>
        <pt x="604" y="845" on="0"/>
        <pt x="546" y="788" on="0"/>
      </contour>
      <contour>
        <pt x="251" y="788" on="1"/>
        <pt x="206" y="788" on="0"/>
        <pt x="149" y="845" on="0"/>
        <pt x="149" y="885" on="1"/>
        <pt x="149" y="926" on="0"/>
        <pt x="206" y="983" on="0"/>
        <pt x="251" y="983" on="1"/>
        <pt x="295" y="983" on="0"/>
        <pt x="353" y="926" on="0"/>
        <pt x="353" y="885" on="1"/>
        <pt x="353" y="845" on="0"/>
        <pt x="295" y="788" on="0"/>
      </contour>
      <contour>
        <pt x="281" y="0" on="1"/>
        <pt x="281" y="247" on="1"/>
        <pt x="20" y="740" on="1"/>
        <pt x="230" y="740" on="1"/>
        <pt x="377" y="444" on="1"/>
        <pt x="523" y="740" on="1"/>
        <pt x="734" y="740" on="1"/>
        <pt x="473" y="247" on="1"/>
        <pt x="473" y="0" on="1"/>
      </contour>
    </TTGlyph>
    <TTGlyph name="Ygrave" xMin="20" yMin="0" xMax="734" yMax="989">
      <contour>
        <pt x="312" y="809" on="1"/>
        <pt x="198" y="989" on="1"/>
        <pt x="368" y="989" on="1"/>
        <pt x="445" y="810" on="1"/>
      </contour>
      <contour>
        <pt x="281" y="0" on="1"/>
        <pt x="281" y="247" on="1"/>
        <pt x="20" y="740" on="1"/>
        <pt x="230" y="740" on="1"/>
        <pt x="377" y="444" on="1"/>
        <pt x="523" y="740" on="1"/>
        <pt x="734" y="740" on="1"/>
        <pt x="473" y="247" on="1"/>
        <pt x="473" y="0" on="1"/>
      </contour>
    </TTGlyph>
    <TTGlyph name="Z" xMin="39" yMin="0" xMax="631" yMax="740">
      <contour>
        <pt x="39" y="0" on="1"/>
        <pt x="39" y="133" on="1"/>
        <pt x="378" y="573" on="1"/>
        <pt x="39" y="573" on="1"/>
        <pt x="39" y="740" on="1"/>
        <pt x="631" y="740" on="1"/>
        <pt x="631" y="608" on="1"/>
        <pt x="290" y="168" on="1"/>
        <pt x="631" y="168" on="1"/>
        <pt x="631" y="0" on="1"/>
      </contour>
    </TTGlyph>
    <TTGlyph name="Zacute" xMin="39" yMin="0" xMax="631" yMax="989">
      <contour>
        <pt x="387" y="809" on="1"/>
        <pt x="254" y="810" on="1"/>
        <pt x="331" y="989" on="1"/>
        <pt x="501" y="989" on="1"/>
      </contour>
      <contour>
        <pt x="39" y="0" on="1"/>
        <pt x="39" y="133" on="1"/>
        <pt x="378" y="573" on="1"/>
        <pt x="39" y="573" on="1"/>
        <pt x="39" y="740" on="1"/>
        <pt x="631" y="740" on="1"/>
        <pt x="631" y="608" on="1"/>
        <pt x="290" y="168" on="1"/>
        <pt x="631" y="168" on="1"/>
        <pt x="631" y="0" on="1"/>
      </contour>
    </TTGlyph>
    <TTGlyph name="Zcaron" xMin="39" yMin="0" xMax="631" yMax="989">
      <contour>
        <pt x="245" y="800" on="1"/>
        <pt x="110" y="989" on="1"/>
        <pt x="251" y="989" on="1"/>
        <pt x="319" y="887" on="1"/>
        <pt x="386" y="989" on="1"/>
        <pt x="527" y="989" on="1"/>
        <pt x="392" y="800" on="1"/>
      </contour>
      <contour>
        <pt x="39" y="0" on="1"/>
        <pt x="39" y="133" on="1"/>
        <pt x="378" y="573" on="1"/>
        <pt x="39" y="573" on="1"/>
        <pt x="39" y="740" on="1"/>
        <pt x="631" y="740" on="1"/>
        <pt x="631" y="608" on="1"/>
        <pt x="290" y="168" on="1"/>
        <pt x="631" y="168" on="1"/>
        <pt x="631" y="0" on="1"/>
      </contour>
    </TTGlyph>
    <TTGlyph name="Zdotaccent" xMin="39" yMin="0" xMax="631" yMax="1000">
      <contour>
        <pt x="319" y="793" on="1"/>
        <pt x="272" y="793" on="0"/>
        <pt x="211" y="854" on="0"/>
        <pt x="211" y="896" on="1"/>
        <pt x="211" y="940" on="0"/>
        <pt x="272" y="1000" on="0"/>
        <pt x="319" y="1000" on="1"/>
        <pt x="366" y="1000" on="0"/>
        <pt x="428" y="940" on="0"/>
        <pt x="428" y="896" on="1"/>
        <pt x="428" y="854" on="0"/>
        <pt x="366" y="793" on="0"/>
      </contour>
      <contour>
        <pt x="39" y="0" on="1"/>
        <pt x="39" y="133" on="1"/>
        <pt x="378" y="573" on="1"/>
        <pt x="39" y="573" on="1"/>
        <pt x="39" y="740" on="1"/>
        <pt x="631" y="740" on="1"/>
        <pt x="631" y="608" on="1"/>
        <pt x="290" y="168" on="1"/>
        <pt x="631" y="168" on="1"/>
        <pt x="631" y="0" on="1"/>
      </contour>
    </TTGlyph>
    <TTGlyph name="a" xMin="45" yMin="-10" xMax="618" yMax="540">
      <contour>
        <pt x="273" y="540" on="1"/>
        <pt x="312" y="540" on="0"/>
        <pt x="368" y="519" on="0"/>
        <pt x="403" y="493" on="0"/>
        <pt x="420" y="472" on="0"/>
        <pt x="420" y="472" on="1"/>
        <pt x="428" y="472" on="1"/>
        <pt x="428" y="530" on="1"/>
        <pt x="618" y="530" on="1"/>
        <pt x="618" y="0" on="1"/>
        <pt x="428" y="0" on="1"/>
        <pt x="428" y="58" on="1"/>
        <pt x="420" y="58" on="1"/>
        <pt x="420" y="58" on="0"/>
        <pt x="403" y="37" on="0"/>
        <pt x="368" y="11" on="0"/>
        <pt x="312" y="-10" on="0"/>
        <pt x="273" y="-10" on="1"/>
        <pt x="215" y="-10" on="0"/>
        <pt x="130" y="37" on="0"/>
        <pt x="73" y="116" on="0"/>
        <pt x="45" y="214" on="0"/>
        <pt x="45" y="265" on="1"/>
        <pt x="45" y="316" on="0"/>
        <pt x="73" y="414" on="0"/>
        <pt x="130" y="493" on="0"/>
        <pt x="215" y="540" on="0"/>
      </contour>
      <contour>
        <pt x="336" y="389" on="1"/>
        <pt x="303" y="389" on="0"/>
        <pt x="259" y="352" on="0"/>
        <pt x="237" y="295" on="0"/>
        <pt x="237" y="265" on="1"/>
        <pt x="237" y="235" on="0"/>
        <pt x="259" y="178" on="0"/>
        <pt x="303" y="141" on="0"/>
        <pt x="336" y="141" on="1"/>
        <pt x="369" y="141" on="0"/>
        <pt x="413" y="178" on="0"/>
        <pt x="435" y="235" on="0"/>
        <pt x="435" y="265" on="1"/>
        <pt x="435" y="295" on="0"/>
        <pt x="413" y="352" on="0"/>
        <pt x="369" y="389" on="0"/>
      </contour>
    </TTGlyph>
    <TTGlyph name="a.ss01" xMin="35" yMin="-10" xMax="549" yMax="540">
      <contour>
        <pt x="356" y="60" on="1"/>
        <pt x="345" y="44" on="0"/>
        <pt x="310" y="12" on="0"/>
        <pt x="253" y="-10" on="0"/>
        <pt x="210" y="-10" on="1"/>
        <pt x="131" y="-10" on="0"/>
        <pt x="35" y="71" on="0"/>
        <pt x="35" y="142" on="1"/>
        <pt x="35" y="220" on="0"/>
        <pt x="153" y="302" on="0"/>
        <pt x="253" y="312" on="1"/>
        <pt x="363" y="323" on="1"/>
        <pt x="363" y="344" on="1"/>
        <pt x="363" y="374" on="0"/>
        <pt x="327" y="404" on="0"/>
        <pt x="298" y="404" on="1"/>
        <pt x="266" y="404" on="0"/>
        <pt x="237" y="378" on="0"/>
        <pt x="230" y="352" on="0"/>
        <pt x="230" y="352" on="1"/>
        <pt x="54" y="352" on="1"/>
        <pt x="54" y="352" on="0"/>
        <pt x="60" y="390" on="0"/>
        <pt x="84" y="446" on="0"/>
        <pt x="137" y="502" on="0"/>
        <pt x="230" y="540" on="0"/>
        <pt x="303" y="540" on="1"/>
        <pt x="372" y="540" on="0"/>
        <pt x="466" y="504" on="0"/>
        <pt x="524" y="447" on="0"/>
        <pt x="549" y="380" on="0"/>
        <pt x="549" y="348" on="1"/>
        <pt x="549" y="0" on="1"/>
        <pt x="363" y="0" on="1"/>
        <pt x="363" y="60" on="1"/>
      </contour>
      <contour>
        <pt x="217" y="160" on="1"/>
        <pt x="217" y="138" on="0"/>
        <pt x="252" y="113" on="0"/>
        <pt x="280" y="113" on="1"/>
        <pt x="315" y="113" on="0"/>
        <pt x="363" y="158" on="0"/>
        <pt x="363" y="201" on="1"/>
        <pt x="363" y="216" on="1"/>
        <pt x="276" y="207" on="1"/>
        <pt x="217" y="201" on="0"/>
      </contour>
    </TTGlyph>
    <TTGlyph name="aacute" xMin="45" yMin="-10" xMax="618" yMax="779">
      <contour>
        <pt x="403" y="599" on="1"/>
        <pt x="270" y="600" on="1"/>
        <pt x="347" y="779" on="1"/>
        <pt x="517" y="779" on="1"/>
      </contour>
      <contour>
        <pt x="273" y="540" on="1"/>
        <pt x="312" y="540" on="0"/>
        <pt x="368" y="519" on="0"/>
        <pt x="403" y="493" on="0"/>
        <pt x="420" y="472" on="0"/>
        <pt x="420" y="472" on="1"/>
        <pt x="428" y="472" on="1"/>
        <pt x="428" y="530" on="1"/>
        <pt x="618" y="530" on="1"/>
        <pt x="618" y="0" on="1"/>
        <pt x="428" y="0" on="1"/>
        <pt x="428" y="58" on="1"/>
        <pt x="420" y="58" on="1"/>
        <pt x="420" y="58" on="0"/>
        <pt x="403" y="37" on="0"/>
        <pt x="368" y="11" on="0"/>
        <pt x="312" y="-10" on="0"/>
        <pt x="273" y="-10" on="1"/>
        <pt x="215" y="-10" on="0"/>
        <pt x="130" y="37" on="0"/>
        <pt x="73" y="116" on="0"/>
        <pt x="45" y="214" on="0"/>
        <pt x="45" y="265" on="1"/>
        <pt x="45" y="316" on="0"/>
        <pt x="73" y="414" on="0"/>
        <pt x="130" y="493" on="0"/>
        <pt x="215" y="540" on="0"/>
      </contour>
      <contour>
        <pt x="336" y="389" on="1"/>
        <pt x="303" y="389" on="0"/>
        <pt x="259" y="352" on="0"/>
        <pt x="237" y="295" on="0"/>
        <pt x="237" y="265" on="1"/>
        <pt x="237" y="235" on="0"/>
        <pt x="259" y="178" on="0"/>
        <pt x="303" y="141" on="0"/>
        <pt x="336" y="141" on="1"/>
        <pt x="369" y="141" on="0"/>
        <pt x="413" y="178" on="0"/>
        <pt x="435" y="235" on="0"/>
        <pt x="435" y="265" on="1"/>
        <pt x="435" y="295" on="0"/>
        <pt x="413" y="352" on="0"/>
        <pt x="369" y="389" on="0"/>
      </contour>
    </TTGlyph>
    <TTGlyph name="aacute.ss01" xMin="35" yMin="-10" xMax="549" yMax="779">
      <contour>
        <pt x="371" y="599" on="1"/>
        <pt x="238" y="600" on="1"/>
        <pt x="315" y="779" on="1"/>
        <pt x="485" y="779" on="1"/>
      </contour>
      <contour>
        <pt x="356" y="60" on="1"/>
        <pt x="345" y="44" on="0"/>
        <pt x="310" y="12" on="0"/>
        <pt x="253" y="-10" on="0"/>
        <pt x="210" y="-10" on="1"/>
        <pt x="131" y="-10" on="0"/>
        <pt x="35" y="71" on="0"/>
        <pt x="35" y="142" on="1"/>
        <pt x="35" y="220" on="0"/>
        <pt x="153" y="302" on="0"/>
        <pt x="253" y="312" on="1"/>
        <pt x="363" y="323" on="1"/>
        <pt x="363" y="344" on="1"/>
        <pt x="363" y="374" on="0"/>
        <pt x="327" y="404" on="0"/>
        <pt x="298" y="404" on="1"/>
        <pt x="266" y="404" on="0"/>
        <pt x="237" y="378" on="0"/>
        <pt x="230" y="352" on="0"/>
        <pt x="230" y="352" on="1"/>
        <pt x="54" y="352" on="1"/>
        <pt x="54" y="352" on="0"/>
        <pt x="60" y="390" on="0"/>
        <pt x="84" y="446" on="0"/>
        <pt x="137" y="502" on="0"/>
        <pt x="230" y="540" on="0"/>
        <pt x="303" y="540" on="1"/>
        <pt x="372" y="540" on="0"/>
        <pt x="466" y="504" on="0"/>
        <pt x="524" y="447" on="0"/>
        <pt x="549" y="380" on="0"/>
        <pt x="549" y="348" on="1"/>
        <pt x="549" y="0" on="1"/>
        <pt x="363" y="0" on="1"/>
        <pt x="363" y="60" on="1"/>
      </contour>
      <contour>
        <pt x="217" y="160" on="1"/>
        <pt x="217" y="138" on="0"/>
        <pt x="252" y="113" on="0"/>
        <pt x="280" y="113" on="1"/>
        <pt x="315" y="113" on="0"/>
        <pt x="363" y="158" on="0"/>
        <pt x="363" y="201" on="1"/>
        <pt x="363" y="216" on="1"/>
        <pt x="276" y="207" on="1"/>
        <pt x="217" y="201" on="0"/>
      </contour>
    </TTGlyph>
    <TTGlyph name="abreve" xMin="45" yMin="-10" xMax="618" yMax="778">
      <contour>
        <pt x="335" y="592" on="1"/>
        <pt x="275" y="592" on="0"/>
        <pt x="200" y="630" on="0"/>
        <pt x="160" y="685" on="0"/>
        <pt x="144" y="740" on="0"/>
        <pt x="141" y="778" on="0"/>
        <pt x="141" y="778" on="1"/>
        <pt x="260" y="778" on="1"/>
        <pt x="260" y="778" on="0"/>
        <pt x="263" y="754" on="0"/>
        <pt x="277" y="721" on="0"/>
        <pt x="307" y="697" on="0"/>
        <pt x="335" y="697" on="1"/>
        <pt x="363" y="697" on="0"/>
        <pt x="394" y="721" on="0"/>
        <pt x="407" y="754" on="0"/>
        <pt x="410" y="778" on="0"/>
        <pt x="410" y="778" on="1"/>
        <pt x="529" y="778" on="1"/>
        <pt x="529" y="778" on="0"/>
        <pt x="526" y="740" on="0"/>
        <pt x="510" y="685" on="0"/>
        <pt x="470" y="630" on="0"/>
        <pt x="395" y="592" on="0"/>
      </contour>
      <contour>
        <pt x="273" y="540" on="1"/>
        <pt x="312" y="540" on="0"/>
        <pt x="368" y="519" on="0"/>
        <pt x="403" y="493" on="0"/>
        <pt x="420" y="472" on="0"/>
        <pt x="420" y="472" on="1"/>
        <pt x="428" y="472" on="1"/>
        <pt x="428" y="530" on="1"/>
        <pt x="618" y="530" on="1"/>
        <pt x="618" y="0" on="1"/>
        <pt x="428" y="0" on="1"/>
        <pt x="428" y="58" on="1"/>
        <pt x="420" y="58" on="1"/>
        <pt x="420" y="58" on="0"/>
        <pt x="403" y="37" on="0"/>
        <pt x="368" y="11" on="0"/>
        <pt x="312" y="-10" on="0"/>
        <pt x="273" y="-10" on="1"/>
        <pt x="215" y="-10" on="0"/>
        <pt x="130" y="37" on="0"/>
        <pt x="73" y="116" on="0"/>
        <pt x="45" y="214" on="0"/>
        <pt x="45" y="265" on="1"/>
        <pt x="45" y="316" on="0"/>
        <pt x="73" y="414" on="0"/>
        <pt x="130" y="493" on="0"/>
        <pt x="215" y="540" on="0"/>
      </contour>
      <contour>
        <pt x="336" y="389" on="1"/>
        <pt x="303" y="389" on="0"/>
        <pt x="259" y="352" on="0"/>
        <pt x="237" y="295" on="0"/>
        <pt x="237" y="265" on="1"/>
        <pt x="237" y="235" on="0"/>
        <pt x="259" y="178" on="0"/>
        <pt x="303" y="141" on="0"/>
        <pt x="336" y="141" on="1"/>
        <pt x="369" y="141" on="0"/>
        <pt x="413" y="178" on="0"/>
        <pt x="435" y="235" on="0"/>
        <pt x="435" y="265" on="1"/>
        <pt x="435" y="295" on="0"/>
        <pt x="413" y="352" on="0"/>
        <pt x="369" y="389" on="0"/>
      </contour>
    </TTGlyph>
    <TTGlyph name="abreve.ss01" xMin="35" yMin="-10" xMax="549" yMax="778">
      <contour>
        <pt x="303" y="592" on="1"/>
        <pt x="243" y="592" on="0"/>
        <pt x="168" y="630" on="0"/>
        <pt x="128" y="685" on="0"/>
        <pt x="112" y="740" on="0"/>
        <pt x="109" y="778" on="0"/>
        <pt x="109" y="778" on="1"/>
        <pt x="228" y="778" on="1"/>
        <pt x="228" y="778" on="0"/>
        <pt x="231" y="754" on="0"/>
        <pt x="245" y="721" on="0"/>
        <pt x="275" y="697" on="0"/>
        <pt x="303" y="697" on="1"/>
        <pt x="331" y="697" on="0"/>
        <pt x="362" y="721" on="0"/>
        <pt x="375" y="754" on="0"/>
        <pt x="378" y="778" on="0"/>
        <pt x="378" y="778" on="1"/>
        <pt x="497" y="778" on="1"/>
        <pt x="497" y="778" on="0"/>
        <pt x="494" y="740" on="0"/>
        <pt x="478" y="685" on="0"/>
        <pt x="438" y="630" on="0"/>
        <pt x="363" y="592" on="0"/>
      </contour>
      <contour>
        <pt x="356" y="60" on="1"/>
        <pt x="345" y="44" on="0"/>
        <pt x="310" y="12" on="0"/>
        <pt x="253" y="-10" on="0"/>
        <pt x="210" y="-10" on="1"/>
        <pt x="131" y="-10" on="0"/>
        <pt x="35" y="71" on="0"/>
        <pt x="35" y="142" on="1"/>
        <pt x="35" y="220" on="0"/>
        <pt x="153" y="302" on="0"/>
        <pt x="253" y="312" on="1"/>
        <pt x="363" y="323" on="1"/>
        <pt x="363" y="344" on="1"/>
        <pt x="363" y="374" on="0"/>
        <pt x="327" y="404" on="0"/>
        <pt x="298" y="404" on="1"/>
        <pt x="266" y="404" on="0"/>
        <pt x="237" y="378" on="0"/>
        <pt x="230" y="352" on="0"/>
        <pt x="230" y="352" on="1"/>
        <pt x="54" y="352" on="1"/>
        <pt x="54" y="352" on="0"/>
        <pt x="60" y="390" on="0"/>
        <pt x="84" y="446" on="0"/>
        <pt x="137" y="502" on="0"/>
        <pt x="230" y="540" on="0"/>
        <pt x="303" y="540" on="1"/>
        <pt x="372" y="540" on="0"/>
        <pt x="466" y="504" on="0"/>
        <pt x="524" y="447" on="0"/>
        <pt x="549" y="380" on="0"/>
        <pt x="549" y="348" on="1"/>
        <pt x="549" y="0" on="1"/>
        <pt x="363" y="0" on="1"/>
        <pt x="363" y="60" on="1"/>
      </contour>
      <contour>
        <pt x="217" y="160" on="1"/>
        <pt x="217" y="138" on="0"/>
        <pt x="252" y="113" on="0"/>
        <pt x="280" y="113" on="1"/>
        <pt x="315" y="113" on="0"/>
        <pt x="363" y="158" on="0"/>
        <pt x="363" y="201" on="1"/>
        <pt x="363" y="216" on="1"/>
        <pt x="276" y="207" on="1"/>
        <pt x="217" y="201" on="0"/>
      </contour>
    </TTGlyph>
    <TTGlyph name="acircumflex" xMin="45" yMin="-10" xMax="618" yMax="778">
      <contour>
        <pt x="127" y="589" on="1"/>
        <pt x="262" y="778" on="1"/>
        <pt x="409" y="778" on="1"/>
        <pt x="544" y="589" on="1"/>
        <pt x="403" y="589" on="1"/>
        <pt x="336" y="691" on="1"/>
        <pt x="268" y="589" on="1"/>
      </contour>
      <contour>
        <pt x="273" y="540" on="1"/>
        <pt x="312" y="540" on="0"/>
        <pt x="368" y="519" on="0"/>
        <pt x="403" y="493" on="0"/>
        <pt x="420" y="472" on="0"/>
        <pt x="420" y="472" on="1"/>
        <pt x="428" y="472" on="1"/>
        <pt x="428" y="530" on="1"/>
        <pt x="618" y="530" on="1"/>
        <pt x="618" y="0" on="1"/>
        <pt x="428" y="0" on="1"/>
        <pt x="428" y="58" on="1"/>
        <pt x="420" y="58" on="1"/>
        <pt x="420" y="58" on="0"/>
        <pt x="403" y="37" on="0"/>
        <pt x="368" y="11" on="0"/>
        <pt x="312" y="-10" on="0"/>
        <pt x="273" y="-10" on="1"/>
        <pt x="215" y="-10" on="0"/>
        <pt x="130" y="37" on="0"/>
        <pt x="73" y="116" on="0"/>
        <pt x="45" y="214" on="0"/>
        <pt x="45" y="265" on="1"/>
        <pt x="45" y="316" on="0"/>
        <pt x="73" y="414" on="0"/>
        <pt x="130" y="493" on="0"/>
        <pt x="215" y="540" on="0"/>
      </contour>
      <contour>
        <pt x="336" y="389" on="1"/>
        <pt x="303" y="389" on="0"/>
        <pt x="259" y="352" on="0"/>
        <pt x="237" y="295" on="0"/>
        <pt x="237" y="265" on="1"/>
        <pt x="237" y="235" on="0"/>
        <pt x="259" y="178" on="0"/>
        <pt x="303" y="141" on="0"/>
        <pt x="336" y="141" on="1"/>
        <pt x="369" y="141" on="0"/>
        <pt x="413" y="178" on="0"/>
        <pt x="435" y="235" on="0"/>
        <pt x="435" y="265" on="1"/>
        <pt x="435" y="295" on="0"/>
        <pt x="413" y="352" on="0"/>
        <pt x="369" y="389" on="0"/>
      </contour>
    </TTGlyph>
    <TTGlyph name="acircumflex.ss01" xMin="35" yMin="-10" xMax="549" yMax="778">
      <contour>
        <pt x="95" y="589" on="1"/>
        <pt x="230" y="778" on="1"/>
        <pt x="377" y="778" on="1"/>
        <pt x="512" y="589" on="1"/>
        <pt x="371" y="589" on="1"/>
        <pt x="304" y="691" on="1"/>
        <pt x="236" y="589" on="1"/>
      </contour>
      <contour>
        <pt x="356" y="60" on="1"/>
        <pt x="345" y="44" on="0"/>
        <pt x="310" y="12" on="0"/>
        <pt x="253" y="-10" on="0"/>
        <pt x="210" y="-10" on="1"/>
        <pt x="131" y="-10" on="0"/>
        <pt x="35" y="71" on="0"/>
        <pt x="35" y="142" on="1"/>
        <pt x="35" y="220" on="0"/>
        <pt x="153" y="302" on="0"/>
        <pt x="253" y="312" on="1"/>
        <pt x="363" y="323" on="1"/>
        <pt x="363" y="344" on="1"/>
        <pt x="363" y="374" on="0"/>
        <pt x="327" y="404" on="0"/>
        <pt x="298" y="404" on="1"/>
        <pt x="266" y="404" on="0"/>
        <pt x="237" y="378" on="0"/>
        <pt x="230" y="352" on="0"/>
        <pt x="230" y="352" on="1"/>
        <pt x="54" y="352" on="1"/>
        <pt x="54" y="352" on="0"/>
        <pt x="60" y="390" on="0"/>
        <pt x="84" y="446" on="0"/>
        <pt x="137" y="502" on="0"/>
        <pt x="230" y="540" on="0"/>
        <pt x="303" y="540" on="1"/>
        <pt x="372" y="540" on="0"/>
        <pt x="466" y="504" on="0"/>
        <pt x="524" y="447" on="0"/>
        <pt x="549" y="380" on="0"/>
        <pt x="549" y="348" on="1"/>
        <pt x="549" y="0" on="1"/>
        <pt x="363" y="0" on="1"/>
        <pt x="363" y="60" on="1"/>
      </contour>
      <contour>
        <pt x="217" y="160" on="1"/>
        <pt x="217" y="138" on="0"/>
        <pt x="252" y="113" on="0"/>
        <pt x="280" y="113" on="1"/>
        <pt x="315" y="113" on="0"/>
        <pt x="363" y="158" on="0"/>
        <pt x="363" y="201" on="1"/>
        <pt x="363" y="216" on="1"/>
        <pt x="276" y="207" on="1"/>
        <pt x="217" y="201" on="0"/>
      </contour>
    </TTGlyph>
    <TTGlyph name="acute" xMin="52" yMin="599" xMax="299" yMax="779">
      <contour>
        <pt x="185" y="599" on="1"/>
        <pt x="52" y="600" on="1"/>
        <pt x="129" y="779" on="1"/>
        <pt x="299" y="779" on="1"/>
      </contour>
    </TTGlyph>
    <TTGlyph name="acutecomb" xMin="12" yMin="599" xMax="259" yMax="779">
      <contour>
        <pt x="145" y="599" on="1"/>
        <pt x="12" y="600" on="1"/>
        <pt x="89" y="779" on="1"/>
        <pt x="259" y="779" on="1"/>
      </contour>
    </TTGlyph>
    <TTGlyph name="adieresis" xMin="45" yMin="-10" xMax="618" yMax="773">
      <contour>
        <pt x="460" y="578" on="1"/>
        <pt x="415" y="578" on="0"/>
        <pt x="358" y="635" on="0"/>
        <pt x="358" y="675" on="1"/>
        <pt x="358" y="716" on="0"/>
        <pt x="415" y="773" on="0"/>
        <pt x="460" y="773" on="1"/>
        <pt x="504" y="773" on="0"/>
        <pt x="562" y="716" on="0"/>
        <pt x="562" y="675" on="1"/>
        <pt x="562" y="635" on="0"/>
        <pt x="504" y="578" on="0"/>
      </contour>
      <contour>
        <pt x="209" y="578" on="1"/>
        <pt x="164" y="578" on="0"/>
        <pt x="107" y="635" on="0"/>
        <pt x="107" y="675" on="1"/>
        <pt x="107" y="716" on="0"/>
        <pt x="164" y="773" on="0"/>
        <pt x="209" y="773" on="1"/>
        <pt x="253" y="773" on="0"/>
        <pt x="311" y="716" on="0"/>
        <pt x="311" y="675" on="1"/>
        <pt x="311" y="635" on="0"/>
        <pt x="253" y="578" on="0"/>
      </contour>
      <contour>
        <pt x="273" y="540" on="1"/>
        <pt x="312" y="540" on="0"/>
        <pt x="368" y="519" on="0"/>
        <pt x="403" y="493" on="0"/>
        <pt x="420" y="472" on="0"/>
        <pt x="420" y="472" on="1"/>
        <pt x="428" y="472" on="1"/>
        <pt x="428" y="530" on="1"/>
        <pt x="618" y="530" on="1"/>
        <pt x="618" y="0" on="1"/>
        <pt x="428" y="0" on="1"/>
        <pt x="428" y="58" on="1"/>
        <pt x="420" y="58" on="1"/>
        <pt x="420" y="58" on="0"/>
        <pt x="403" y="37" on="0"/>
        <pt x="368" y="11" on="0"/>
        <pt x="312" y="-10" on="0"/>
        <pt x="273" y="-10" on="1"/>
        <pt x="215" y="-10" on="0"/>
        <pt x="130" y="37" on="0"/>
        <pt x="73" y="116" on="0"/>
        <pt x="45" y="214" on="0"/>
        <pt x="45" y="265" on="1"/>
        <pt x="45" y="316" on="0"/>
        <pt x="73" y="414" on="0"/>
        <pt x="130" y="493" on="0"/>
        <pt x="215" y="540" on="0"/>
      </contour>
      <contour>
        <pt x="336" y="389" on="1"/>
        <pt x="303" y="389" on="0"/>
        <pt x="259" y="352" on="0"/>
        <pt x="237" y="295" on="0"/>
        <pt x="237" y="265" on="1"/>
        <pt x="237" y="235" on="0"/>
        <pt x="259" y="178" on="0"/>
        <pt x="303" y="141" on="0"/>
        <pt x="336" y="141" on="1"/>
        <pt x="369" y="141" on="0"/>
        <pt x="413" y="178" on="0"/>
        <pt x="435" y="235" on="0"/>
        <pt x="435" y="265" on="1"/>
        <pt x="435" y="295" on="0"/>
        <pt x="413" y="352" on="0"/>
        <pt x="369" y="389" on="0"/>
      </contour>
    </TTGlyph>
    <TTGlyph name="adieresis.ss01" xMin="35" yMin="-10" xMax="549" yMax="773">
      <contour>
        <pt x="428" y="578" on="1"/>
        <pt x="383" y="578" on="0"/>
        <pt x="326" y="635" on="0"/>
        <pt x="326" y="675" on="1"/>
        <pt x="326" y="716" on="0"/>
        <pt x="383" y="773" on="0"/>
        <pt x="428" y="773" on="1"/>
        <pt x="472" y="773" on="0"/>
        <pt x="530" y="716" on="0"/>
        <pt x="530" y="675" on="1"/>
        <pt x="530" y="635" on="0"/>
        <pt x="472" y="578" on="0"/>
      </contour>
      <contour>
        <pt x="177" y="578" on="1"/>
        <pt x="132" y="578" on="0"/>
        <pt x="75" y="635" on="0"/>
        <pt x="75" y="675" on="1"/>
        <pt x="75" y="716" on="0"/>
        <pt x="132" y="773" on="0"/>
        <pt x="177" y="773" on="1"/>
        <pt x="221" y="773" on="0"/>
        <pt x="279" y="716" on="0"/>
        <pt x="279" y="675" on="1"/>
        <pt x="279" y="635" on="0"/>
        <pt x="221" y="578" on="0"/>
      </contour>
      <contour>
        <pt x="356" y="60" on="1"/>
        <pt x="345" y="44" on="0"/>
        <pt x="310" y="12" on="0"/>
        <pt x="253" y="-10" on="0"/>
        <pt x="210" y="-10" on="1"/>
        <pt x="131" y="-10" on="0"/>
        <pt x="35" y="71" on="0"/>
        <pt x="35" y="142" on="1"/>
        <pt x="35" y="220" on="0"/>
        <pt x="153" y="302" on="0"/>
        <pt x="253" y="312" on="1"/>
        <pt x="363" y="323" on="1"/>
        <pt x="363" y="344" on="1"/>
        <pt x="363" y="374" on="0"/>
        <pt x="327" y="404" on="0"/>
        <pt x="298" y="404" on="1"/>
        <pt x="266" y="404" on="0"/>
        <pt x="237" y="378" on="0"/>
        <pt x="230" y="352" on="0"/>
        <pt x="230" y="352" on="1"/>
        <pt x="54" y="352" on="1"/>
        <pt x="54" y="352" on="0"/>
        <pt x="60" y="390" on="0"/>
        <pt x="84" y="446" on="0"/>
        <pt x="137" y="502" on="0"/>
        <pt x="230" y="540" on="0"/>
        <pt x="303" y="540" on="1"/>
        <pt x="372" y="540" on="0"/>
        <pt x="466" y="504" on="0"/>
        <pt x="524" y="447" on="0"/>
        <pt x="549" y="380" on="0"/>
        <pt x="549" y="348" on="1"/>
        <pt x="549" y="0" on="1"/>
        <pt x="363" y="0" on="1"/>
        <pt x="363" y="60" on="1"/>
      </contour>
      <contour>
        <pt x="217" y="160" on="1"/>
        <pt x="217" y="138" on="0"/>
        <pt x="252" y="113" on="0"/>
        <pt x="280" y="113" on="1"/>
        <pt x="315" y="113" on="0"/>
        <pt x="363" y="158" on="0"/>
        <pt x="363" y="201" on="1"/>
        <pt x="363" y="216" on="1"/>
        <pt x="276" y="207" on="1"/>
        <pt x="217" y="201" on="0"/>
      </contour>
    </TTGlyph>
    <TTGlyph name="ae" xMin="35" yMin="-10" xMax="905" yMax="540">
      <contour>
        <pt x="231" y="-10" on="1"/>
        <pt x="143" y="-10" on="0"/>
        <pt x="35" y="76" on="0"/>
        <pt x="35" y="153" on="1"/>
        <pt x="35" y="227" on="0"/>
        <pt x="145" y="314" on="0"/>
        <pt x="260" y="317" on="1"/>
        <pt x="368" y="320" on="1"/>
        <pt x="368" y="337" on="1"/>
        <pt x="368" y="369" on="0"/>
        <pt x="331" y="400" on="0"/>
        <pt x="299" y="400" on="1"/>
        <pt x="268" y="400" on="0"/>
        <pt x="237" y="376" on="0"/>
        <pt x="228" y="352" on="0"/>
        <pt x="228" y="352" on="1"/>
        <pt x="50" y="352" on="1"/>
        <pt x="50" y="352" on="0"/>
        <pt x="58" y="390" on="0"/>
        <pt x="84" y="446" on="0"/>
        <pt x="136" y="502" on="0"/>
        <pt x="224" y="540" on="0"/>
        <pt x="291" y="540" on="1"/>
        <pt x="342" y="540" on="0"/>
        <pt x="411" y="519" on="0"/>
        <pt x="451" y="492" on="0"/>
        <pt x="469" y="471" on="0"/>
        <pt x="469" y="471" on="1"/>
        <pt x="473" y="471" on="1"/>
        <pt x="473" y="471" on="0"/>
        <pt x="493" y="492" on="0"/>
        <pt x="535" y="519" on="0"/>
        <pt x="601" y="540" on="0"/>
        <pt x="648" y="540" on="1"/>
        <pt x="721" y="540" on="0"/>
        <pt x="837" y="478" on="0"/>
        <pt x="905" y="354" on="0"/>
        <pt x="905" y="260" on="1"/>
        <pt x="905" y="217" on="1"/>
        <pt x="554" y="217" on="1"/>
        <pt x="557" y="183" on="0"/>
        <pt x="607" y="131" on="0"/>
        <pt x="651" y="131" on="1"/>
        <pt x="685" y="131" on="0"/>
        <pt x="719" y="154" on="0"/>
        <pt x="732" y="177" on="0"/>
        <pt x="732" y="177" on="1"/>
        <pt x="902" y="177" on="1"/>
        <pt x="902" y="177" on="0"/>
        <pt x="892" y="139" on="0"/>
        <pt x="864" y="84" on="0"/>
        <pt x="809" y="28" on="0"/>
        <pt x="718" y="-10" on="0"/>
        <pt x="651" y="-10" on="1"/>
        <pt x="591" y="-10" on="0"/>
        <pt x="507" y="20" on="0"/>
        <pt x="457" y="59" on="0"/>
        <pt x="434" y="89" on="0"/>
        <pt x="434" y="89" on="1"/>
        <pt x="429" y="89" on="1"/>
        <pt x="429" y="89" on="0"/>
        <pt x="410" y="59" on="0"/>
        <pt x="364" y="20" on="0"/>
        <pt x="288" y="-10" on="0"/>
      </contour>
      <contour>
        <pt x="554" y="322" on="1"/>
        <pt x="728" y="322" on="1"/>
        <pt x="727" y="363" on="0"/>
        <pt x="679" y="404" on="0"/>
        <pt x="640" y="404" on="1"/>
        <pt x="607" y="404" on="0"/>
        <pt x="557" y="364" on="0"/>
      </contour>
      <contour>
        <pt x="283" y="113" on="1"/>
        <pt x="321" y="113" on="0"/>
        <pt x="368" y="157" on="0"/>
        <pt x="368" y="194" on="1"/>
        <pt x="368" y="213" on="1"/>
        <pt x="282" y="209" on="1"/>
        <pt x="248" y="208" on="0"/>
        <pt x="217" y="181" on="0"/>
        <pt x="217" y="161" on="1"/>
        <pt x="217" y="139" on="0"/>
        <pt x="254" y="113" on="0"/>
      </contour>
    </TTGlyph>
    <TTGlyph name="agrave" xMin="45" yMin="-10" xMax="618" yMax="779">
      <contour>
        <pt x="270" y="599" on="1"/>
        <pt x="156" y="779" on="1"/>
        <pt x="326" y="779" on="1"/>
        <pt x="403" y="600" on="1"/>
      </contour>
      <contour>
        <pt x="273" y="540" on="1"/>
        <pt x="312" y="540" on="0"/>
        <pt x="368" y="519" on="0"/>
        <pt x="403" y="493" on="0"/>
        <pt x="420" y="472" on="0"/>
        <pt x="420" y="472" on="1"/>
        <pt x="428" y="472" on="1"/>
        <pt x="428" y="530" on="1"/>
        <pt x="618" y="530" on="1"/>
        <pt x="618" y="0" on="1"/>
        <pt x="428" y="0" on="1"/>
        <pt x="428" y="58" on="1"/>
        <pt x="420" y="58" on="1"/>
        <pt x="420" y="58" on="0"/>
        <pt x="403" y="37" on="0"/>
        <pt x="368" y="11" on="0"/>
        <pt x="312" y="-10" on="0"/>
        <pt x="273" y="-10" on="1"/>
        <pt x="215" y="-10" on="0"/>
        <pt x="130" y="37" on="0"/>
        <pt x="73" y="116" on="0"/>
        <pt x="45" y="214" on="0"/>
        <pt x="45" y="265" on="1"/>
        <pt x="45" y="316" on="0"/>
        <pt x="73" y="414" on="0"/>
        <pt x="130" y="493" on="0"/>
        <pt x="215" y="540" on="0"/>
      </contour>
      <contour>
        <pt x="336" y="389" on="1"/>
        <pt x="303" y="389" on="0"/>
        <pt x="259" y="352" on="0"/>
        <pt x="237" y="295" on="0"/>
        <pt x="237" y="265" on="1"/>
        <pt x="237" y="235" on="0"/>
        <pt x="259" y="178" on="0"/>
        <pt x="303" y="141" on="0"/>
        <pt x="336" y="141" on="1"/>
        <pt x="369" y="141" on="0"/>
        <pt x="413" y="178" on="0"/>
        <pt x="435" y="235" on="0"/>
        <pt x="435" y="265" on="1"/>
        <pt x="435" y="295" on="0"/>
        <pt x="413" y="352" on="0"/>
        <pt x="369" y="389" on="0"/>
      </contour>
    </TTGlyph>
    <TTGlyph name="agrave.ss01" xMin="35" yMin="-10" xMax="549" yMax="779">
      <contour>
        <pt x="238" y="599" on="1"/>
        <pt x="124" y="779" on="1"/>
        <pt x="294" y="779" on="1"/>
        <pt x="371" y="600" on="1"/>
      </contour>
      <contour>
        <pt x="356" y="60" on="1"/>
        <pt x="345" y="44" on="0"/>
        <pt x="310" y="12" on="0"/>
        <pt x="253" y="-10" on="0"/>
        <pt x="210" y="-10" on="1"/>
        <pt x="131" y="-10" on="0"/>
        <pt x="35" y="71" on="0"/>
        <pt x="35" y="142" on="1"/>
        <pt x="35" y="220" on="0"/>
        <pt x="153" y="302" on="0"/>
        <pt x="253" y="312" on="1"/>
        <pt x="363" y="323" on="1"/>
        <pt x="363" y="344" on="1"/>
        <pt x="363" y="374" on="0"/>
        <pt x="327" y="404" on="0"/>
        <pt x="298" y="404" on="1"/>
        <pt x="266" y="404" on="0"/>
        <pt x="237" y="378" on="0"/>
        <pt x="230" y="352" on="0"/>
        <pt x="230" y="352" on="1"/>
        <pt x="54" y="352" on="1"/>
        <pt x="54" y="352" on="0"/>
        <pt x="60" y="390" on="0"/>
        <pt x="84" y="446" on="0"/>
        <pt x="137" y="502" on="0"/>
        <pt x="230" y="540" on="0"/>
        <pt x="303" y="540" on="1"/>
        <pt x="372" y="540" on="0"/>
        <pt x="466" y="504" on="0"/>
        <pt x="524" y="447" on="0"/>
        <pt x="549" y="380" on="0"/>
        <pt x="549" y="348" on="1"/>
        <pt x="549" y="0" on="1"/>
        <pt x="363" y="0" on="1"/>
        <pt x="363" y="60" on="1"/>
      </contour>
      <contour>
        <pt x="217" y="160" on="1"/>
        <pt x="217" y="138" on="0"/>
        <pt x="252" y="113" on="0"/>
        <pt x="280" y="113" on="1"/>
        <pt x="315" y="113" on="0"/>
        <pt x="363" y="158" on="0"/>
        <pt x="363" y="201" on="1"/>
        <pt x="363" y="216" on="1"/>
        <pt x="276" y="207" on="1"/>
        <pt x="217" y="201" on="0"/>
      </contour>
    </TTGlyph>
    <TTGlyph name="amacron" xMin="45" yMin="-10" xMax="618" yMax="710">
      <contour>
        <pt x="165" y="608" on="1"/>
        <pt x="165" y="710" on="1"/>
        <pt x="505" y="710" on="1"/>
        <pt x="505" y="608" on="1"/>
      </contour>
      <contour>
        <pt x="273" y="540" on="1"/>
        <pt x="312" y="540" on="0"/>
        <pt x="368" y="519" on="0"/>
        <pt x="403" y="493" on="0"/>
        <pt x="420" y="472" on="0"/>
        <pt x="420" y="472" on="1"/>
        <pt x="428" y="472" on="1"/>
        <pt x="428" y="530" on="1"/>
        <pt x="618" y="530" on="1"/>
        <pt x="618" y="0" on="1"/>
        <pt x="428" y="0" on="1"/>
        <pt x="428" y="58" on="1"/>
        <pt x="420" y="58" on="1"/>
        <pt x="420" y="58" on="0"/>
        <pt x="403" y="37" on="0"/>
        <pt x="368" y="11" on="0"/>
        <pt x="312" y="-10" on="0"/>
        <pt x="273" y="-10" on="1"/>
        <pt x="215" y="-10" on="0"/>
        <pt x="130" y="37" on="0"/>
        <pt x="73" y="116" on="0"/>
        <pt x="45" y="214" on="0"/>
        <pt x="45" y="265" on="1"/>
        <pt x="45" y="316" on="0"/>
        <pt x="73" y="414" on="0"/>
        <pt x="130" y="493" on="0"/>
        <pt x="215" y="540" on="0"/>
      </contour>
      <contour>
        <pt x="336" y="389" on="1"/>
        <pt x="303" y="389" on="0"/>
        <pt x="259" y="352" on="0"/>
        <pt x="237" y="295" on="0"/>
        <pt x="237" y="265" on="1"/>
        <pt x="237" y="235" on="0"/>
        <pt x="259" y="178" on="0"/>
        <pt x="303" y="141" on="0"/>
        <pt x="336" y="141" on="1"/>
        <pt x="369" y="141" on="0"/>
        <pt x="413" y="178" on="0"/>
        <pt x="435" y="235" on="0"/>
        <pt x="435" y="265" on="1"/>
        <pt x="435" y="295" on="0"/>
        <pt x="413" y="352" on="0"/>
        <pt x="369" y="389" on="0"/>
      </contour>
    </TTGlyph>
    <TTGlyph name="amacron.ss01" xMin="35" yMin="-10" xMax="549" yMax="710">
      <contour>
        <pt x="133" y="608" on="1"/>
        <pt x="133" y="710" on="1"/>
        <pt x="473" y="710" on="1"/>
        <pt x="473" y="608" on="1"/>
      </contour>
      <contour>
        <pt x="356" y="60" on="1"/>
        <pt x="345" y="44" on="0"/>
        <pt x="310" y="12" on="0"/>
        <pt x="253" y="-10" on="0"/>
        <pt x="210" y="-10" on="1"/>
        <pt x="131" y="-10" on="0"/>
        <pt x="35" y="71" on="0"/>
        <pt x="35" y="142" on="1"/>
        <pt x="35" y="220" on="0"/>
        <pt x="153" y="302" on="0"/>
        <pt x="253" y="312" on="1"/>
        <pt x="363" y="323" on="1"/>
        <pt x="363" y="344" on="1"/>
        <pt x="363" y="374" on="0"/>
        <pt x="327" y="404" on="0"/>
        <pt x="298" y="404" on="1"/>
        <pt x="266" y="404" on="0"/>
        <pt x="237" y="378" on="0"/>
        <pt x="230" y="352" on="0"/>
        <pt x="230" y="352" on="1"/>
        <pt x="54" y="352" on="1"/>
        <pt x="54" y="352" on="0"/>
        <pt x="60" y="390" on="0"/>
        <pt x="84" y="446" on="0"/>
        <pt x="137" y="502" on="0"/>
        <pt x="230" y="540" on="0"/>
        <pt x="303" y="540" on="1"/>
        <pt x="372" y="540" on="0"/>
        <pt x="466" y="504" on="0"/>
        <pt x="524" y="447" on="0"/>
        <pt x="549" y="380" on="0"/>
        <pt x="549" y="348" on="1"/>
        <pt x="549" y="0" on="1"/>
        <pt x="363" y="0" on="1"/>
        <pt x="363" y="60" on="1"/>
      </contour>
      <contour>
        <pt x="217" y="160" on="1"/>
        <pt x="217" y="138" on="0"/>
        <pt x="252" y="113" on="0"/>
        <pt x="280" y="113" on="1"/>
        <pt x="315" y="113" on="0"/>
        <pt x="363" y="158" on="0"/>
        <pt x="363" y="201" on="1"/>
        <pt x="363" y="216" on="1"/>
        <pt x="276" y="207" on="1"/>
        <pt x="217" y="201" on="0"/>
      </contour>
    </TTGlyph>
    <TTGlyph name="ampersand" xMin="36" yMin="-10" xMax="760" yMax="750">
      <contour>
        <pt x="309" y="-10" on="1"/>
        <pt x="232" y="-10" on="0"/>
        <pt x="108" y="45" on="0"/>
        <pt x="36" y="147" on="0"/>
        <pt x="36" y="219" on="1"/>
        <pt x="36" y="283" on="0"/>
        <pt x="97" y="376" on="0"/>
        <pt x="160" y="413" on="1"/>
        <pt x="140" y="439" on="0"/>
        <pt x="106" y="511" on="0"/>
        <pt x="106" y="560" on="1"/>
        <pt x="106" y="623" on="0"/>
        <pt x="168" y="708" on="0"/>
        <pt x="266" y="750" on="0"/>
        <pt x="319" y="750" on="1"/>
        <pt x="372" y="750" on="0"/>
        <pt x="466" y="710" on="0"/>
        <pt x="526" y="632" on="0"/>
        <pt x="526" y="575" on="1"/>
        <pt x="526" y="529" on="0"/>
        <pt x="490" y="461" on="0"/>
        <pt x="429" y="410" on="0"/>
        <pt x="394" y="390" on="1"/>
        <pt x="493" y="285" on="1"/>
        <pt x="500" y="313" on="0"/>
        <pt x="509" y="379" on="0"/>
        <pt x="509" y="418" on="1"/>
        <pt x="656" y="418" on="1"/>
        <pt x="656" y="340" on="0"/>
        <pt x="629" y="215" on="0"/>
        <pt x="605" y="167" on="1"/>
        <pt x="760" y="2" on="1"/>
        <pt x="530" y="2" on="1"/>
        <pt x="494" y="41" on="1"/>
        <pt x="454" y="15" on="0"/>
        <pt x="359" y="-10" on="0"/>
      </contour>
      <contour>
        <pt x="259" y="567" on="1"/>
        <pt x="259" y="544" on="0"/>
        <pt x="286" y="501" on="0"/>
        <pt x="304" y="482" on="1"/>
        <pt x="331" y="495" on="0"/>
        <pt x="374" y="536" on="0"/>
        <pt x="374" y="570" on="1"/>
        <pt x="374" y="598" on="0"/>
        <pt x="338" y="627" on="0"/>
        <pt x="317" y="627" on="1"/>
        <pt x="296" y="627" on="0"/>
        <pt x="259" y="597" on="0"/>
      </contour>
      <contour>
        <pt x="206" y="232" on="1"/>
        <pt x="206" y="195" on="0"/>
        <pt x="262" y="133" on="0"/>
        <pt x="319" y="133" on="1"/>
        <pt x="360" y="133" on="0"/>
        <pt x="395" y="151" on="1"/>
        <pt x="250" y="312" on="1"/>
        <pt x="229" y="295" on="0"/>
        <pt x="206" y="256" on="0"/>
      </contour>
    </TTGlyph>
    <TTGlyph name="aogonek" xMin="45" yMin="-194" xMax="653" yMax="540">
      <contour>
        <pt x="273" y="540" on="1"/>
        <pt x="312" y="540" on="0"/>
        <pt x="368" y="519" on="0"/>
        <pt x="403" y="493" on="0"/>
        <pt x="420" y="472" on="0"/>
        <pt x="420" y="472" on="1"/>
        <pt x="428" y="472" on="1"/>
        <pt x="428" y="530" on="1"/>
        <pt x="618" y="530" on="1"/>
        <pt x="618" y="0" on="1"/>
        <pt x="618" y="0" on="0"/>
        <pt x="594" y="-13" on="0"/>
        <pt x="569" y="-37" on="0"/>
        <pt x="569" y="-55" on="1"/>
        <pt x="569" y="-68" on="0"/>
        <pt x="593" y="-90" on="0"/>
        <pt x="621" y="-90" on="1"/>
        <pt x="633" y="-90" on="0"/>
        <pt x="653" y="-87" on="0"/>
        <pt x="653" y="-87" on="1"/>
        <pt x="653" y="-189" on="1"/>
        <pt x="653" y="-189" on="0"/>
        <pt x="618" y="-194" on="0"/>
        <pt x="592" y="-194" on="1"/>
        <pt x="510" y="-194" on="0"/>
        <pt x="438" y="-130" on="0"/>
        <pt x="438" y="-87" on="1"/>
        <pt x="438" y="-56" on="0"/>
        <pt x="468" y="-13" on="0"/>
        <pt x="487" y="0" on="1"/>
        <pt x="428" y="0" on="1"/>
        <pt x="428" y="58" on="1"/>
        <pt x="420" y="58" on="1"/>
        <pt x="420" y="58" on="0"/>
        <pt x="403" y="37" on="0"/>
        <pt x="368" y="11" on="0"/>
        <pt x="312" y="-10" on="0"/>
        <pt x="273" y="-10" on="1"/>
        <pt x="215" y="-10" on="0"/>
        <pt x="130" y="37" on="0"/>
        <pt x="73" y="116" on="0"/>
        <pt x="45" y="214" on="0"/>
        <pt x="45" y="265" on="1"/>
        <pt x="45" y="316" on="0"/>
        <pt x="73" y="414" on="0"/>
        <pt x="130" y="493" on="0"/>
        <pt x="215" y="540" on="0"/>
      </contour>
      <contour>
        <pt x="336" y="389" on="1"/>
        <pt x="303" y="389" on="0"/>
        <pt x="259" y="352" on="0"/>
        <pt x="237" y="295" on="0"/>
        <pt x="237" y="265" on="1"/>
        <pt x="237" y="235" on="0"/>
        <pt x="259" y="178" on="0"/>
        <pt x="303" y="141" on="0"/>
        <pt x="336" y="141" on="1"/>
        <pt x="369" y="141" on="0"/>
        <pt x="413" y="178" on="0"/>
        <pt x="435" y="235" on="0"/>
        <pt x="435" y="265" on="1"/>
        <pt x="435" y="295" on="0"/>
        <pt x="413" y="352" on="0"/>
        <pt x="369" y="389" on="0"/>
      </contour>
    </TTGlyph>
    <TTGlyph name="aogonek.ss01" xMin="35" yMin="-194" xMax="584" yMax="540">
      <contour>
        <pt x="523" y="-194" on="1"/>
        <pt x="441" y="-194" on="0"/>
        <pt x="369" y="-130" on="0"/>
        <pt x="369" y="-87" on="1"/>
        <pt x="369" y="-56" on="0"/>
        <pt x="399" y="-13" on="0"/>
        <pt x="418" y="0" on="1"/>
        <pt x="363" y="0" on="1"/>
        <pt x="363" y="60" on="1"/>
        <pt x="356" y="60" on="1"/>
        <pt x="345" y="44" on="0"/>
        <pt x="310" y="12" on="0"/>
        <pt x="253" y="-10" on="0"/>
        <pt x="210" y="-10" on="1"/>
        <pt x="131" y="-10" on="0"/>
        <pt x="35" y="71" on="0"/>
        <pt x="35" y="142" on="1"/>
        <pt x="35" y="220" on="0"/>
        <pt x="153" y="302" on="0"/>
        <pt x="253" y="312" on="1"/>
        <pt x="363" y="323" on="1"/>
        <pt x="363" y="344" on="1"/>
        <pt x="363" y="374" on="0"/>
        <pt x="327" y="404" on="0"/>
        <pt x="298" y="404" on="1"/>
        <pt x="266" y="404" on="0"/>
        <pt x="237" y="378" on="0"/>
        <pt x="230" y="352" on="0"/>
        <pt x="230" y="352" on="1"/>
        <pt x="54" y="352" on="1"/>
        <pt x="54" y="352" on="0"/>
        <pt x="60" y="390" on="0"/>
        <pt x="84" y="446" on="0"/>
        <pt x="137" y="502" on="0"/>
        <pt x="230" y="540" on="0"/>
        <pt x="303" y="540" on="1"/>
        <pt x="372" y="540" on="0"/>
        <pt x="466" y="504" on="0"/>
        <pt x="524" y="447" on="0"/>
        <pt x="549" y="380" on="0"/>
        <pt x="549" y="348" on="1"/>
        <pt x="549" y="0" on="1"/>
        <pt x="549" y="0" on="0"/>
        <pt x="525" y="-13" on="0"/>
        <pt x="500" y="-37" on="0"/>
        <pt x="500" y="-55" on="1"/>
        <pt x="500" y="-68" on="0"/>
        <pt x="524" y="-90" on="0"/>
        <pt x="552" y="-90" on="1"/>
        <pt x="564" y="-90" on="0"/>
        <pt x="584" y="-87" on="0"/>
        <pt x="584" y="-87" on="1"/>
        <pt x="584" y="-189" on="1"/>
        <pt x="584" y="-189" on="0"/>
        <pt x="549" y="-194" on="0"/>
      </contour>
      <contour>
        <pt x="217" y="160" on="1"/>
        <pt x="217" y="138" on="0"/>
        <pt x="252" y="113" on="0"/>
        <pt x="280" y="113" on="1"/>
        <pt x="315" y="113" on="0"/>
        <pt x="363" y="158" on="0"/>
        <pt x="363" y="201" on="1"/>
        <pt x="363" y="216" on="1"/>
        <pt x="276" y="207" on="1"/>
        <pt x="217" y="201" on="0"/>
      </contour>
    </TTGlyph>
    <TTGlyph name="approxequal" xMin="115" yMin="156" xMax="500" yMax="553">
      <contour>
        <pt x="386" y="388" on="1"/>
        <pt x="357" y="388" on="0"/>
        <pt x="314" y="406" on="0"/>
        <pt x="281" y="429" on="0"/>
        <pt x="253" y="447" on="0"/>
        <pt x="239" y="447" on="1"/>
        <pt x="223" y="447" on="0"/>
        <pt x="211" y="419" on="0"/>
        <pt x="211" y="394" on="1"/>
        <pt x="115" y="394" on="1"/>
        <pt x="115" y="429" on="0"/>
        <pt x="132" y="502" on="0"/>
        <pt x="182" y="553" on="0"/>
        <pt x="229" y="553" on="1"/>
        <pt x="268" y="553" on="0"/>
        <pt x="320" y="524" on="0"/>
        <pt x="359" y="494" on="0"/>
        <pt x="377" y="494" on="1"/>
        <pt x="404" y="494" on="0"/>
        <pt x="404" y="547" on="1"/>
        <pt x="500" y="547" on="1"/>
        <pt x="500" y="512" on="0"/>
        <pt x="483" y="438" on="0"/>
        <pt x="434" y="388" on="0"/>
      </contour>
      <contour>
        <pt x="386" y="156" on="1"/>
        <pt x="357" y="156" on="0"/>
        <pt x="314" y="174" on="0"/>
        <pt x="281" y="197" on="0"/>
        <pt x="253" y="215" on="0"/>
        <pt x="239" y="215" on="1"/>
        <pt x="223" y="215" on="0"/>
        <pt x="211" y="187" on="0"/>
        <pt x="211" y="162" on="1"/>
        <pt x="115" y="162" on="1"/>
        <pt x="115" y="197" on="0"/>
        <pt x="132" y="270" on="0"/>
        <pt x="182" y="321" on="0"/>
        <pt x="229" y="321" on="1"/>
        <pt x="268" y="321" on="0"/>
        <pt x="320" y="292" on="0"/>
        <pt x="359" y="262" on="0"/>
        <pt x="377" y="262" on="1"/>
        <pt x="404" y="262" on="0"/>
        <pt x="404" y="315" on="1"/>
        <pt x="500" y="315" on="1"/>
        <pt x="500" y="280" on="0"/>
        <pt x="483" y="206" on="0"/>
        <pt x="434" y="156" on="0"/>
      </contour>
    </TTGlyph>
    <TTGlyph name="aring" xMin="45" yMin="-10" xMax="618" yMax="859">
      <contour>
        <pt x="335" y="578" on="1"/>
        <pt x="296" y="578" on="0"/>
        <pt x="232" y="616" on="0"/>
        <pt x="194" y="680" on="0"/>
        <pt x="194" y="719" on="1"/>
        <pt x="194" y="758" on="0"/>
        <pt x="232" y="821" on="0"/>
        <pt x="296" y="859" on="0"/>
        <pt x="335" y="859" on="1"/>
        <pt x="374" y="859" on="0"/>
        <pt x="438" y="821" on="0"/>
        <pt x="476" y="758" on="0"/>
        <pt x="476" y="719" on="1"/>
        <pt x="476" y="680" on="0"/>
        <pt x="438" y="616" on="0"/>
        <pt x="374" y="578" on="0"/>
      </contour>
      <contour>
        <pt x="335" y="668" on="1"/>
        <pt x="356" y="668" on="0"/>
        <pt x="386" y="697" on="0"/>
        <pt x="386" y="719" on="1"/>
        <pt x="386" y="740" on="0"/>
        <pt x="356" y="769" on="0"/>
        <pt x="335" y="769" on="1"/>
        <pt x="314" y="769" on="0"/>
        <pt x="284" y="740" on="0"/>
        <pt x="284" y="719" on="1"/>
        <pt x="284" y="697" on="0"/>
        <pt x="314" y="668" on="0"/>
      </contour>
      <contour>
        <pt x="273" y="540" on="1"/>
        <pt x="312" y="540" on="0"/>
        <pt x="368" y="519" on="0"/>
        <pt x="403" y="493" on="0"/>
        <pt x="420" y="472" on="0"/>
        <pt x="420" y="472" on="1"/>
        <pt x="428" y="472" on="1"/>
        <pt x="428" y="530" on="1"/>
        <pt x="618" y="530" on="1"/>
        <pt x="618" y="0" on="1"/>
        <pt x="428" y="0" on="1"/>
        <pt x="428" y="58" on="1"/>
        <pt x="420" y="58" on="1"/>
        <pt x="420" y="58" on="0"/>
        <pt x="403" y="37" on="0"/>
        <pt x="368" y="11" on="0"/>
        <pt x="312" y="-10" on="0"/>
        <pt x="273" y="-10" on="1"/>
        <pt x="215" y="-10" on="0"/>
        <pt x="130" y="37" on="0"/>
        <pt x="73" y="116" on="0"/>
        <pt x="45" y="214" on="0"/>
        <pt x="45" y="265" on="1"/>
        <pt x="45" y="316" on="0"/>
        <pt x="73" y="414" on="0"/>
        <pt x="130" y="493" on="0"/>
        <pt x="215" y="540" on="0"/>
      </contour>
      <contour>
        <pt x="336" y="389" on="1"/>
        <pt x="303" y="389" on="0"/>
        <pt x="259" y="352" on="0"/>
        <pt x="237" y="295" on="0"/>
        <pt x="237" y="265" on="1"/>
        <pt x="237" y="235" on="0"/>
        <pt x="259" y="178" on="0"/>
        <pt x="303" y="141" on="0"/>
        <pt x="336" y="141" on="1"/>
        <pt x="369" y="141" on="0"/>
        <pt x="413" y="178" on="0"/>
        <pt x="435" y="235" on="0"/>
        <pt x="435" y="265" on="1"/>
        <pt x="435" y="295" on="0"/>
        <pt x="413" y="352" on="0"/>
        <pt x="369" y="389" on="0"/>
      </contour>
    </TTGlyph>
    <TTGlyph name="aring.ss01" xMin="35" yMin="-10" xMax="549" yMax="859">
      <contour>
        <pt x="303" y="578" on="1"/>
        <pt x="264" y="578" on="0"/>
        <pt x="200" y="616" on="0"/>
        <pt x="162" y="680" on="0"/>
        <pt x="162" y="719" on="1"/>
        <pt x="162" y="758" on="0"/>
        <pt x="200" y="821" on="0"/>
        <pt x="264" y="859" on="0"/>
        <pt x="303" y="859" on="1"/>
        <pt x="342" y="859" on="0"/>
        <pt x="406" y="821" on="0"/>
        <pt x="444" y="758" on="0"/>
        <pt x="444" y="719" on="1"/>
        <pt x="444" y="680" on="0"/>
        <pt x="406" y="616" on="0"/>
        <pt x="342" y="578" on="0"/>
      </contour>
      <contour>
        <pt x="303" y="668" on="1"/>
        <pt x="324" y="668" on="0"/>
        <pt x="354" y="697" on="0"/>
        <pt x="354" y="719" on="1"/>
        <pt x="354" y="740" on="0"/>
        <pt x="324" y="769" on="0"/>
        <pt x="303" y="769" on="1"/>
        <pt x="282" y="769" on="0"/>
        <pt x="252" y="740" on="0"/>
        <pt x="252" y="719" on="1"/>
        <pt x="252" y="697" on="0"/>
        <pt x="282" y="668" on="0"/>
      </contour>
      <contour>
        <pt x="356" y="60" on="1"/>
        <pt x="345" y="44" on="0"/>
        <pt x="310" y="12" on="0"/>
        <pt x="253" y="-10" on="0"/>
        <pt x="210" y="-10" on="1"/>
        <pt x="131" y="-10" on="0"/>
        <pt x="35" y="71" on="0"/>
        <pt x="35" y="142" on="1"/>
        <pt x="35" y="220" on="0"/>
        <pt x="153" y="302" on="0"/>
        <pt x="253" y="312" on="1"/>
        <pt x="363" y="323" on="1"/>
        <pt x="363" y="344" on="1"/>
        <pt x="363" y="374" on="0"/>
        <pt x="327" y="404" on="0"/>
        <pt x="298" y="404" on="1"/>
        <pt x="266" y="404" on="0"/>
        <pt x="237" y="378" on="0"/>
        <pt x="230" y="352" on="0"/>
        <pt x="230" y="352" on="1"/>
        <pt x="54" y="352" on="1"/>
        <pt x="54" y="352" on="0"/>
        <pt x="60" y="390" on="0"/>
        <pt x="84" y="446" on="0"/>
        <pt x="137" y="502" on="0"/>
        <pt x="230" y="540" on="0"/>
        <pt x="303" y="540" on="1"/>
        <pt x="372" y="540" on="0"/>
        <pt x="466" y="504" on="0"/>
        <pt x="524" y="447" on="0"/>
        <pt x="549" y="380" on="0"/>
        <pt x="549" y="348" on="1"/>
        <pt x="549" y="0" on="1"/>
        <pt x="363" y="0" on="1"/>
        <pt x="363" y="60" on="1"/>
      </contour>
      <contour>
        <pt x="217" y="160" on="1"/>
        <pt x="217" y="138" on="0"/>
        <pt x="252" y="113" on="0"/>
        <pt x="280" y="113" on="1"/>
        <pt x="315" y="113" on="0"/>
        <pt x="363" y="158" on="0"/>
        <pt x="363" y="201" on="1"/>
        <pt x="363" y="216" on="1"/>
        <pt x="276" y="207" on="1"/>
        <pt x="217" y="201" on="0"/>
      </contour>
    </TTGlyph>
    <TTGlyph name="asciicircum" xMin="115" yMin="551" xMax="532" yMax="740">
      <contour>
        <pt x="115" y="551" on="1"/>
        <pt x="250" y="740" on="1"/>
        <pt x="397" y="740" on="1"/>
        <pt x="532" y="551" on="1"/>
        <pt x="391" y="551" on="1"/>
        <pt x="324" y="653" on="1"/>
        <pt x="256" y="551" on="1"/>
      </contour>
    </TTGlyph>
    <TTGlyph name="asciitilde" xMin="60" yMin="312" xMax="445" yMax="477">
      <contour>
        <pt x="331" y="312" on="1"/>
        <pt x="302" y="312" on="0"/>
        <pt x="259" y="330" on="0"/>
        <pt x="226" y="353" on="0"/>
        <pt x="198" y="371" on="0"/>
        <pt x="184" y="371" on="1"/>
        <pt x="168" y="371" on="0"/>
        <pt x="156" y="343" on="0"/>
        <pt x="156" y="318" on="1"/>
        <pt x="60" y="318" on="1"/>
        <pt x="60" y="353" on="0"/>
        <pt x="77" y="426" on="0"/>
        <pt x="127" y="477" on="0"/>
        <pt x="174" y="477" on="1"/>
        <pt x="213" y="477" on="0"/>
        <pt x="265" y="448" on="0"/>
        <pt x="304" y="418" on="0"/>
        <pt x="322" y="418" on="1"/>
        <pt x="349" y="418" on="0"/>
        <pt x="349" y="471" on="1"/>
        <pt x="445" y="471" on="1"/>
        <pt x="445" y="436" on="0"/>
        <pt x="428" y="362" on="0"/>
        <pt x="379" y="312" on="0"/>
      </contour>
    </TTGlyph>
    <TTGlyph name="asterisk" xMin="40" yMin="317" xMax="484" yMax="740">
      <contour>
        <pt x="189" y="317" on="1"/>
        <pt x="85" y="393" on="1"/>
        <pt x="163" y="496" on="1"/>
        <pt x="40" y="532" on="1"/>
        <pt x="79" y="655" on="1"/>
        <pt x="201" y="611" on="1"/>
        <pt x="197" y="740" on="1"/>
        <pt x="326" y="740" on="1"/>
        <pt x="322" y="611" on="1"/>
        <pt x="444" y="655" on="1"/>
        <pt x="484" y="532" on="1"/>
        <pt x="360" y="496" on="1"/>
        <pt x="439" y="393" on="1"/>
        <pt x="334" y="317" on="1"/>
        <pt x="262" y="423" on="1"/>
      </contour>
    </TTGlyph>
    <TTGlyph name="at" xMin="30" yMin="-190" xMax="997" yMax="760">
      <contour>
        <pt x="528" y="-190" on="1"/>
        <pt x="402" y="-190" on="0"/>
        <pt x="214" y="-111" on="0"/>
        <pt x="91" y="23" on="0"/>
        <pt x="30" y="191" on="0"/>
        <pt x="30" y="279" on="1"/>
        <pt x="30" y="369" on="0"/>
        <pt x="93" y="541" on="0"/>
        <pt x="218" y="679" on="0"/>
        <pt x="403" y="760" on="0"/>
        <pt x="524" y="760" on="1"/>
        <pt x="620" y="760" on="0"/>
        <pt x="790" y="700" on="0"/>
        <pt x="922" y="586" on="0"/>
        <pt x="997" y="423" on="0"/>
        <pt x="997" y="320" on="1"/>
        <pt x="997" y="245" on="0"/>
        <pt x="952" y="124" on="0"/>
        <pt x="859" y="52" on="0"/>
        <pt x="785" y="52" on="1"/>
        <pt x="741" y="52" on="0"/>
        <pt x="680" y="75" on="0"/>
        <pt x="643" y="104" on="0"/>
        <pt x="626" y="127" on="0"/>
        <pt x="626" y="127" on="1"/>
        <pt x="616" y="127" on="1"/>
        <pt x="616" y="127" on="0"/>
        <pt x="601" y="104" on="0"/>
        <pt x="568" y="75" on="0"/>
        <pt x="513" y="52" on="0"/>
        <pt x="473" y="52" on="1"/>
        <pt x="408" y="52" on="0"/>
        <pt x="322" y="117" on="0"/>
        <pt x="280" y="220" on="0"/>
        <pt x="280" y="275" on="1"/>
        <pt x="280" y="330" on="0"/>
        <pt x="321" y="429" on="0"/>
        <pt x="404" y="492" on="0"/>
        <pt x="468" y="492" on="1"/>
        <pt x="512" y="492" on="0"/>
        <pt x="564" y="467" on="0"/>
        <pt x="587" y="441" on="0"/>
        <pt x="587" y="441" on="1"/>
        <pt x="593" y="441" on="1"/>
        <pt x="593" y="484" on="1"/>
        <pt x="744" y="484" on="1"/>
        <pt x="744" y="318" on="1"/>
        <pt x="744" y="242" on="0"/>
        <pt x="773" y="175" on="0"/>
        <pt x="802" y="175" on="1"/>
        <pt x="833" y="175" on="0"/>
        <pt x="861" y="241" on="0"/>
        <pt x="861" y="299" on="1"/>
        <pt x="861" y="388" on="0"/>
        <pt x="804" y="515" on="0"/>
        <pt x="707" y="594" on="0"/>
        <pt x="587" y="631" on="0"/>
        <pt x="524" y="631" on="1"/>
        <pt x="437" y="631" on="0"/>
        <pt x="307" y="571" on="0"/>
        <pt x="219" y="471" on="0"/>
        <pt x="175" y="346" on="0"/>
        <pt x="175" y="281" on="1"/>
        <pt x="175" y="217" on="0"/>
        <pt x="218" y="95" on="0"/>
        <pt x="305" y="-2" on="0"/>
        <pt x="437" y="-59" on="0"/>
        <pt x="525" y="-59" on="1"/>
        <pt x="591" y="-59" on="0"/>
        <pt x="696" y="-33" on="0"/>
        <pt x="757" y="-7" on="0"/>
        <pt x="757" y="-7" on="1"/>
        <pt x="805" y="-128" on="1"/>
        <pt x="805" y="-128" on="0"/>
        <pt x="768" y="-147" on="0"/>
        <pt x="696" y="-171" on="0"/>
        <pt x="593" y="-190" on="0"/>
      </contour>
      <contour>
        <pt x="516" y="175" on="1"/>
        <pt x="557" y="175" on="0"/>
        <pt x="598" y="236" on="0"/>
        <pt x="598" y="272" on="1"/>
        <pt x="598" y="309" on="0"/>
        <pt x="557" y="369" on="0"/>
        <pt x="516" y="369" on="1"/>
        <pt x="476" y="369" on="0"/>
        <pt x="434" y="309" on="0"/>
        <pt x="434" y="272" on="1"/>
        <pt x="434" y="236" on="0"/>
        <pt x="476" y="175" on="0"/>
      </contour>
    </TTGlyph>
    <TTGlyph name="atilde" xMin="45" yMin="-10" xMax="618" yMax="777">
      <contour>
        <pt x="413" y="612" on="1"/>
        <pt x="386" y="612" on="0"/>
        <pt x="346" y="630" on="0"/>
        <pt x="315" y="653" on="0"/>
        <pt x="289" y="671" on="0"/>
        <pt x="275" y="671" on="1"/>
        <pt x="260" y="671" on="0"/>
        <pt x="249" y="644" on="0"/>
        <pt x="249" y="618" on="1"/>
        <pt x="156" y="618" on="1"/>
        <pt x="156" y="653" on="0"/>
        <pt x="172" y="726" on="0"/>
        <pt x="219" y="777" on="0"/>
        <pt x="264" y="777" on="1"/>
        <pt x="301" y="777" on="0"/>
        <pt x="350" y="748" on="0"/>
        <pt x="386" y="718" on="0"/>
        <pt x="403" y="718" on="1"/>
        <pt x="417" y="718" on="0"/>
        <pt x="428" y="746" on="0"/>
        <pt x="428" y="771" on="1"/>
        <pt x="521" y="771" on="1"/>
        <pt x="521" y="737" on="0"/>
        <pt x="505" y="663" on="0"/>
        <pt x="459" y="612" on="0"/>
      </contour>
      <contour>
        <pt x="273" y="540" on="1"/>
        <pt x="312" y="540" on="0"/>
        <pt x="368" y="519" on="0"/>
        <pt x="403" y="493" on="0"/>
        <pt x="420" y="472" on="0"/>
        <pt x="420" y="472" on="1"/>
        <pt x="428" y="472" on="1"/>
        <pt x="428" y="530" on="1"/>
        <pt x="618" y="530" on="1"/>
        <pt x="618" y="0" on="1"/>
        <pt x="428" y="0" on="1"/>
        <pt x="428" y="58" on="1"/>
        <pt x="420" y="58" on="1"/>
        <pt x="420" y="58" on="0"/>
        <pt x="403" y="37" on="0"/>
        <pt x="368" y="11" on="0"/>
        <pt x="312" y="-10" on="0"/>
        <pt x="273" y="-10" on="1"/>
        <pt x="215" y="-10" on="0"/>
        <pt x="130" y="37" on="0"/>
        <pt x="73" y="116" on="0"/>
        <pt x="45" y="214" on="0"/>
        <pt x="45" y="265" on="1"/>
        <pt x="45" y="316" on="0"/>
        <pt x="73" y="414" on="0"/>
        <pt x="130" y="493" on="0"/>
        <pt x="215" y="540" on="0"/>
      </contour>
      <contour>
        <pt x="336" y="389" on="1"/>
        <pt x="303" y="389" on="0"/>
        <pt x="259" y="352" on="0"/>
        <pt x="237" y="295" on="0"/>
        <pt x="237" y="265" on="1"/>
        <pt x="237" y="235" on="0"/>
        <pt x="259" y="178" on="0"/>
        <pt x="303" y="141" on="0"/>
        <pt x="336" y="141" on="1"/>
        <pt x="369" y="141" on="0"/>
        <pt x="413" y="178" on="0"/>
        <pt x="435" y="235" on="0"/>
        <pt x="435" y="265" on="1"/>
        <pt x="435" y="295" on="0"/>
        <pt x="413" y="352" on="0"/>
        <pt x="369" y="389" on="0"/>
      </contour>
    </TTGlyph>
    <TTGlyph name="atilde.ss01" xMin="35" yMin="-10" xMax="549" yMax="777">
      <contour>
        <pt x="381" y="612" on="1"/>
        <pt x="354" y="612" on="0"/>
        <pt x="314" y="630" on="0"/>
        <pt x="283" y="653" on="0"/>
        <pt x="257" y="671" on="0"/>
        <pt x="243" y="671" on="1"/>
        <pt x="228" y="671" on="0"/>
        <pt x="217" y="644" on="0"/>
        <pt x="217" y="618" on="1"/>
        <pt x="124" y="618" on="1"/>
        <pt x="124" y="653" on="0"/>
        <pt x="140" y="726" on="0"/>
        <pt x="187" y="777" on="0"/>
        <pt x="232" y="777" on="1"/>
        <pt x="269" y="777" on="0"/>
        <pt x="318" y="748" on="0"/>
        <pt x="354" y="718" on="0"/>
        <pt x="371" y="718" on="1"/>
        <pt x="385" y="718" on="0"/>
        <pt x="396" y="746" on="0"/>
        <pt x="396" y="771" on="1"/>
        <pt x="489" y="771" on="1"/>
        <pt x="489" y="737" on="0"/>
        <pt x="473" y="663" on="0"/>
        <pt x="427" y="612" on="0"/>
      </contour>
      <contour>
        <pt x="356" y="60" on="1"/>
        <pt x="345" y="44" on="0"/>
        <pt x="310" y="12" on="0"/>
        <pt x="253" y="-10" on="0"/>
        <pt x="210" y="-10" on="1"/>
        <pt x="131" y="-10" on="0"/>
        <pt x="35" y="71" on="0"/>
        <pt x="35" y="142" on="1"/>
        <pt x="35" y="220" on="0"/>
        <pt x="153" y="302" on="0"/>
        <pt x="253" y="312" on="1"/>
        <pt x="363" y="323" on="1"/>
        <pt x="363" y="344" on="1"/>
        <pt x="363" y="374" on="0"/>
        <pt x="327" y="404" on="0"/>
        <pt x="298" y="404" on="1"/>
        <pt x="266" y="404" on="0"/>
        <pt x="237" y="378" on="0"/>
        <pt x="230" y="352" on="0"/>
        <pt x="230" y="352" on="1"/>
        <pt x="54" y="352" on="1"/>
        <pt x="54" y="352" on="0"/>
        <pt x="60" y="390" on="0"/>
        <pt x="84" y="446" on="0"/>
        <pt x="137" y="502" on="0"/>
        <pt x="230" y="540" on="0"/>
        <pt x="303" y="540" on="1"/>
        <pt x="372" y="540" on="0"/>
        <pt x="466" y="504" on="0"/>
        <pt x="524" y="447" on="0"/>
        <pt x="549" y="380" on="0"/>
        <pt x="549" y="348" on="1"/>
        <pt x="549" y="0" on="1"/>
        <pt x="363" y="0" on="1"/>
        <pt x="363" y="60" on="1"/>
      </contour>
      <contour>
        <pt x="217" y="160" on="1"/>
        <pt x="217" y="138" on="0"/>
        <pt x="252" y="113" on="0"/>
        <pt x="280" y="113" on="1"/>
        <pt x="315" y="113" on="0"/>
        <pt x="363" y="158" on="0"/>
        <pt x="363" y="201" on="1"/>
        <pt x="363" y="216" on="1"/>
        <pt x="276" y="207" on="1"/>
        <pt x="217" y="201" on="0"/>
      </contour>
    </TTGlyph>
    <TTGlyph name="b" xMin="60" yMin="-10" xMax="633" yMax="760">
      <contour>
        <pt x="405" y="-10" on="1"/>
        <pt x="366" y="-10" on="0"/>
        <pt x="310" y="11" on="0"/>
        <pt x="275" y="37" on="0"/>
        <pt x="258" y="58" on="0"/>
        <pt x="258" y="58" on="1"/>
        <pt x="250" y="58" on="1"/>
        <pt x="250" y="0" on="1"/>
        <pt x="60" y="0" on="1"/>
        <pt x="60" y="760" on="1"/>
        <pt x="250" y="760" on="1"/>
        <pt x="250" y="472" on="1"/>
        <pt x="258" y="472" on="1"/>
        <pt x="258" y="472" on="0"/>
        <pt x="275" y="493" on="0"/>
        <pt x="310" y="519" on="0"/>
        <pt x="366" y="540" on="0"/>
        <pt x="405" y="540" on="1"/>
        <pt x="463" y="540" on="0"/>
        <pt x="548" y="493" on="0"/>
        <pt x="605" y="414" on="0"/>
        <pt x="633" y="316" on="0"/>
        <pt x="633" y="265" on="1"/>
        <pt x="633" y="214" on="0"/>
        <pt x="605" y="116" on="0"/>
        <pt x="548" y="37" on="0"/>
        <pt x="463" y="-10" on="0"/>
      </contour>
      <contour>
        <pt x="342" y="141" on="1"/>
        <pt x="376" y="141" on="0"/>
        <pt x="419" y="178" on="0"/>
        <pt x="441" y="235" on="0"/>
        <pt x="441" y="265" on="1"/>
        <pt x="441" y="295" on="0"/>
        <pt x="419" y="352" on="0"/>
        <pt x="376" y="389" on="0"/>
        <pt x="342" y="389" on="1"/>
        <pt x="309" y="389" on="0"/>
        <pt x="265" y="352" on="0"/>
        <pt x="243" y="295" on="0"/>
        <pt x="243" y="265" on="1"/>
        <pt x="243" y="235" on="0"/>
        <pt x="265" y="178" on="0"/>
        <pt x="309" y="141" on="0"/>
      </contour>
    </TTGlyph>
    <TTGlyph name="backslash" xMin="15" yMin="-201" xMax="531" yMax="833">
      <contour>
        <pt x="531" y="-201" on="1"/>
        <pt x="364" y="-201" on="1"/>
        <pt x="15" y="833" on="1"/>
        <pt x="182" y="833" on="1"/>
      </contour>
    </TTGlyph>
    <TTGlyph name="bar" xMin="150" yMin="-259" xMax="302" yMax="960">
      <contour>
        <pt x="150" y="-259" on="1"/>
        <pt x="150" y="960" on="1"/>
        <pt x="302" y="960" on="1"/>
        <pt x="302" y="-259" on="1"/>
      </contour>
    </TTGlyph>
    <TTGlyph name="braceleft" xMin="30" yMin="-221" xMax="476" yMax="863">
      <contour>
        <pt x="366" y="-221" on="1"/>
        <pt x="254" y="-221" on="0"/>
        <pt x="136" y="-103" on="0"/>
        <pt x="136" y="9" on="1"/>
        <pt x="136" y="181" on="1"/>
        <pt x="136" y="241" on="0"/>
        <pt x="76" y="241" on="1"/>
        <pt x="30" y="241" on="1"/>
        <pt x="30" y="401" on="1"/>
        <pt x="76" y="401" on="1"/>
        <pt x="136" y="401" on="0"/>
        <pt x="136" y="461" on="1"/>
        <pt x="136" y="633" on="1"/>
        <pt x="136" y="745" on="0"/>
        <pt x="254" y="863" on="0"/>
        <pt x="366" y="863" on="1"/>
        <pt x="476" y="863" on="1"/>
        <pt x="476" y="702" on="1"/>
        <pt x="391" y="702" on="1"/>
        <pt x="331" y="702" on="0"/>
        <pt x="331" y="642" on="1"/>
        <pt x="331" y="461" on="1"/>
        <pt x="331" y="402" on="0"/>
        <pt x="295" y="341" on="0"/>
        <pt x="241" y="325" on="1"/>
        <pt x="241" y="317" on="1"/>
        <pt x="295" y="301" on="0"/>
        <pt x="331" y="238" on="0"/>
        <pt x="331" y="181" on="1"/>
        <pt x="331" y="0" on="1"/>
        <pt x="331" y="-60" on="0"/>
        <pt x="391" y="-60" on="1"/>
        <pt x="476" y="-60" on="1"/>
        <pt x="476" y="-221" on="1"/>
      </contour>
    </TTGlyph>
    <TTGlyph name="braceleft.case" xMin="30" yMin="-191" xMax="476" yMax="893">
      <contour>
        <pt x="366" y="-191" on="1"/>
        <pt x="254" y="-191" on="0"/>
        <pt x="136" y="-73" on="0"/>
        <pt x="136" y="39" on="1"/>
        <pt x="136" y="211" on="1"/>
        <pt x="136" y="271" on="0"/>
        <pt x="76" y="271" on="1"/>
        <pt x="30" y="271" on="1"/>
        <pt x="30" y="431" on="1"/>
        <pt x="76" y="431" on="1"/>
        <pt x="136" y="431" on="0"/>
        <pt x="136" y="491" on="1"/>
        <pt x="136" y="663" on="1"/>
        <pt x="136" y="775" on="0"/>
        <pt x="254" y="893" on="0"/>
        <pt x="366" y="893" on="1"/>
        <pt x="476" y="893" on="1"/>
        <pt x="476" y="732" on="1"/>
        <pt x="391" y="732" on="1"/>
        <pt x="331" y="732" on="0"/>
        <pt x="331" y="672" on="1"/>
        <pt x="331" y="491" on="1"/>
        <pt x="331" y="432" on="0"/>
        <pt x="295" y="371" on="0"/>
        <pt x="241" y="355" on="1"/>
        <pt x="241" y="347" on="1"/>
        <pt x="295" y="331" on="0"/>
        <pt x="331" y="268" on="0"/>
        <pt x="331" y="211" on="1"/>
        <pt x="331" y="30" on="1"/>
        <pt x="331" y="-30" on="0"/>
        <pt x="391" y="-30" on="1"/>
        <pt x="476" y="-30" on="1"/>
        <pt x="476" y="-191" on="1"/>
      </contour>
    </TTGlyph>
    <TTGlyph name="braceright" xMin="40" yMin="-221" xMax="486" yMax="863">
      <contour>
        <pt x="150" y="863" on="1"/>
        <pt x="262" y="863" on="0"/>
        <pt x="380" y="745" on="0"/>
        <pt x="380" y="633" on="1"/>
        <pt x="380" y="461" on="1"/>
        <pt x="380" y="401" on="0"/>
        <pt x="440" y="401" on="1"/>
        <pt x="486" y="401" on="1"/>
        <pt x="486" y="241" on="1"/>
        <pt x="440" y="241" on="1"/>
        <pt x="380" y="241" on="0"/>
        <pt x="380" y="181" on="1"/>
        <pt x="380" y="9" on="1"/>
        <pt x="380" y="-103" on="0"/>
        <pt x="262" y="-221" on="0"/>
        <pt x="150" y="-221" on="1"/>
        <pt x="40" y="-221" on="1"/>
        <pt x="40" y="-60" on="1"/>
        <pt x="125" y="-60" on="1"/>
        <pt x="185" y="-60" on="0"/>
        <pt x="185" y="0" on="1"/>
        <pt x="185" y="181" on="1"/>
        <pt x="185" y="240" on="0"/>
        <pt x="221" y="301" on="0"/>
        <pt x="275" y="317" on="1"/>
        <pt x="275" y="325" on="1"/>
        <pt x="221" y="342" on="0"/>
        <pt x="185" y="404" on="0"/>
        <pt x="185" y="461" on="1"/>
        <pt x="185" y="642" on="1"/>
        <pt x="185" y="702" on="0"/>
        <pt x="125" y="702" on="1"/>
        <pt x="40" y="702" on="1"/>
        <pt x="40" y="863" on="1"/>
      </contour>
    </TTGlyph>
    <TTGlyph name="braceright.case" xMin="40" yMin="-191" xMax="486" yMax="893">
      <contour>
        <pt x="150" y="893" on="1"/>
        <pt x="262" y="893" on="0"/>
        <pt x="380" y="775" on="0"/>
        <pt x="380" y="663" on="1"/>
        <pt x="380" y="491" on="1"/>
        <pt x="380" y="431" on="0"/>
        <pt x="440" y="431" on="1"/>
        <pt x="486" y="431" on="1"/>
        <pt x="486" y="271" on="1"/>
        <pt x="440" y="271" on="1"/>
        <pt x="380" y="271" on="0"/>
        <pt x="380" y="211" on="1"/>
        <pt x="380" y="39" on="1"/>
        <pt x="380" y="-73" on="0"/>
        <pt x="262" y="-191" on="0"/>
        <pt x="150" y="-191" on="1"/>
        <pt x="40" y="-191" on="1"/>
        <pt x="40" y="-30" on="1"/>
        <pt x="125" y="-30" on="1"/>
        <pt x="185" y="-30" on="0"/>
        <pt x="185" y="30" on="1"/>
        <pt x="185" y="211" on="1"/>
        <pt x="185" y="270" on="0"/>
        <pt x="221" y="331" on="0"/>
        <pt x="275" y="347" on="1"/>
        <pt x="275" y="355" on="1"/>
        <pt x="221" y="372" on="0"/>
        <pt x="185" y="434" on="0"/>
        <pt x="185" y="491" on="1"/>
        <pt x="185" y="672" on="1"/>
        <pt x="185" y="732" on="0"/>
        <pt x="125" y="732" on="1"/>
        <pt x="40" y="732" on="1"/>
        <pt x="40" y="893" on="1"/>
      </contour>
    </TTGlyph>
    <TTGlyph name="bracketleft" xMin="60" yMin="-221" xMax="434" yMax="863">
      <contour>
        <pt x="60" y="-221" on="1"/>
        <pt x="60" y="863" on="1"/>
        <pt x="434" y="863" on="1"/>
        <pt x="434" y="702" on="1"/>
        <pt x="255" y="702" on="1"/>
        <pt x="255" y="-60" on="1"/>
        <pt x="434" y="-60" on="1"/>
        <pt x="434" y="-221" on="1"/>
      </contour>
    </TTGlyph>
    <TTGlyph name="bracketleft.case" xMin="100" yMin="-191" xMax="474" yMax="893">
      <contour>
        <pt x="100" y="-191" on="1"/>
        <pt x="100" y="893" on="1"/>
        <pt x="474" y="893" on="1"/>
        <pt x="474" y="732" on="1"/>
        <pt x="295" y="732" on="1"/>
        <pt x="295" y="-30" on="1"/>
        <pt x="474" y="-30" on="1"/>
        <pt x="474" y="-191" on="1"/>
      </contour>
    </TTGlyph>
</ttFont>
